<svg width="666" height="124" viewBox="0 0 666 124" fill="none" xmlns="http://www.w3.org/2000/svg">
<g clip-path="url(#clip0)">
<rect width="666" height="124" fill="white"/>
<path d="M147.575 112.789H141.552V133H147.575V112.789Z" fill="url(#paint0_radial)"/>
<path d="M99.0637 112.789H93.04V133H99.0637V112.789Z" fill="url(#paint1_radial)"/>
<path d="M149.511 118.345V111.64C149.511 104.928 144.007 99.488 137.217 99.488H103.4C96.6095 99.488 91.105 104.928 91.105 111.64V118.345H101.192V133H139.424V118.345H149.511Z" fill="url(#paint2_radial)"/>
<g opacity="0.3">
<path opacity="0.3" d="M143.734 117.113C142.772 117.113 142.239 117.76 141.858 118.345H145.609C145.228 117.76 144.695 117.113 143.734 117.113Z" fill="#FFC43E"/>
<path opacity="0.3" d="M91.1055 117.115V118.345H92.9008C92.5308 117.776 92.0169 117.15 91.1055 117.115Z" fill="#FFC43E"/>
<path opacity="0.3" d="M137.877 122.567C136.762 122.567 136.223 123.437 135.83 124.073C135.46 124.67 135.265 124.932 134.949 124.932C134.633 124.932 134.438 124.67 134.068 124.073C133.674 123.437 133.136 122.567 132.02 122.567C130.905 122.567 130.366 123.437 129.973 124.073C129.603 124.67 129.408 124.932 129.092 124.932C128.776 124.932 128.581 124.67 128.211 124.073C127.818 123.437 127.279 122.567 126.164 122.567C125.049 122.567 124.51 123.437 124.116 124.073C123.746 124.67 123.551 124.932 123.235 124.932C122.919 124.932 122.724 124.67 122.354 124.073C121.961 123.437 121.422 122.567 120.307 122.567C119.192 122.567 118.653 123.437 118.26 124.073C117.89 124.67 117.695 124.932 117.379 124.932C117.063 124.932 116.868 124.67 116.498 124.073C116.105 123.437 115.566 122.567 114.451 122.567C113.335 122.567 112.797 123.437 112.403 124.073C112.034 124.67 111.838 124.932 111.523 124.932C111.207 124.932 111.012 124.67 110.642 124.073C110.248 123.437 109.71 122.567 108.594 122.567C107.479 122.567 106.941 123.437 106.547 124.073C106.177 124.67 105.982 124.932 105.666 124.932C105.351 124.932 105.155 124.67 104.786 124.073C104.392 123.437 103.853 122.567 102.738 122.567C102.024 122.567 101.547 122.924 101.192 123.347V125.684C101.471 125.402 101.679 125.066 101.857 124.778C102.227 124.18 102.422 123.919 102.738 123.919C103.054 123.919 103.249 124.18 103.619 124.778C104.012 125.414 104.551 126.284 105.666 126.284C106.782 126.284 107.32 125.414 107.714 124.778C108.084 124.18 108.279 123.919 108.594 123.919C108.91 123.919 109.106 124.18 109.475 124.778C109.869 125.414 110.407 126.284 111.523 126.284C112.638 126.284 113.177 125.414 113.57 124.778C113.94 124.18 114.135 123.919 114.451 123.919C114.767 123.919 114.962 124.18 115.332 124.778C115.725 125.414 116.264 126.284 117.379 126.284C118.494 126.284 119.033 125.414 119.426 124.778C119.796 124.18 119.991 123.919 120.307 123.919C120.623 123.919 120.818 124.18 121.188 124.778C121.581 125.414 122.12 126.284 123.235 126.284C124.351 126.284 124.889 125.414 125.283 124.778C125.653 124.181 125.848 123.919 126.164 123.919C126.48 123.919 126.675 124.18 127.045 124.778C127.438 125.414 127.977 126.284 129.092 126.284C130.207 126.284 130.746 125.414 131.14 124.778C131.509 124.181 131.705 123.919 132.02 123.919C132.336 123.919 132.531 124.18 132.901 124.778C133.295 125.414 133.834 126.284 134.949 126.284C136.064 126.284 136.603 125.414 136.996 124.778C137.366 124.18 137.561 123.919 137.877 123.919C138.193 123.919 138.388 124.18 138.758 124.778C138.937 125.067 139.146 125.403 139.424 125.685V123.349C139.07 122.925 138.592 122.567 137.877 122.567Z" fill="#FFC43E"/>
<path opacity="0.3" d="M137.877 117.113C136.762 117.113 136.223 117.983 135.83 118.618C135.46 119.216 135.265 119.478 134.949 119.478C134.633 119.478 134.438 119.216 134.068 118.618C133.675 117.983 133.136 117.113 132.021 117.113C130.905 117.113 130.367 117.983 129.973 118.618C129.603 119.216 129.408 119.478 129.092 119.478C128.776 119.478 128.581 119.216 128.211 118.618C127.818 117.983 127.279 117.113 126.164 117.113C125.049 117.113 124.51 117.983 124.117 118.618C123.747 119.216 123.551 119.478 123.236 119.478C122.92 119.478 122.724 119.216 122.355 118.618C121.961 117.983 121.422 117.113 120.307 117.113C119.192 117.113 118.653 117.983 118.26 118.618C117.89 119.216 117.695 119.478 117.379 119.478C117.063 119.478 116.868 119.216 116.498 118.618C116.105 117.983 115.566 117.113 114.451 117.113C113.336 117.113 112.797 117.983 112.404 118.618C112.034 119.216 111.839 119.478 111.523 119.478C111.207 119.478 111.012 119.216 110.642 118.618C110.249 117.983 109.71 117.113 108.595 117.113C107.479 117.113 106.941 117.983 106.547 118.618C106.178 119.216 105.982 119.478 105.667 119.478C105.351 119.478 105.156 119.216 104.786 118.618C104.392 117.983 103.854 117.113 102.738 117.113C101.777 117.113 101.244 117.76 100.863 118.345H101.193V120.23C101.471 119.948 101.679 119.612 101.858 119.324C102.227 118.726 102.423 118.464 102.738 118.464C103.054 118.464 103.249 118.726 103.619 119.324C104.013 119.959 104.551 120.829 105.667 120.829C106.782 120.829 107.321 119.959 107.714 119.324C108.084 118.726 108.279 118.464 108.595 118.464C108.911 118.464 109.106 118.726 109.476 119.324C109.869 119.959 110.408 120.829 111.523 120.829C112.638 120.829 113.177 119.959 113.57 119.324C113.94 118.726 114.135 118.464 114.451 118.464C114.767 118.464 114.962 118.726 115.332 119.324C115.725 119.959 116.264 120.829 117.379 120.829C118.494 120.829 119.033 119.959 119.426 119.324C119.796 118.726 119.991 118.464 120.307 118.464C120.623 118.464 120.818 118.726 121.188 119.324C121.582 119.959 122.12 120.829 123.236 120.829C124.351 120.829 124.89 119.959 125.283 119.324C125.653 118.726 125.848 118.464 126.164 118.464C126.48 118.464 126.675 118.726 127.045 119.324C127.438 119.959 127.977 120.829 129.092 120.829C130.208 120.829 130.746 119.959 131.14 119.324C131.51 118.726 131.705 118.464 132.021 118.464C132.337 118.464 132.532 118.726 132.902 119.324C133.295 119.959 133.834 120.829 134.949 120.829C136.064 120.829 136.603 119.959 136.996 119.324C137.366 118.726 137.561 118.464 137.877 118.464C138.193 118.464 138.388 118.726 138.758 119.324C138.937 119.612 139.146 119.949 139.425 120.231V118.345H139.753C139.372 117.76 138.839 117.113 137.877 117.113Z" fill="#FFC43E"/>
<path opacity="0.3" d="M96.882 117.113C95.9204 117.113 95.3876 117.76 95.0068 118.345H98.7573C98.3765 117.76 97.8437 117.113 96.882 117.113Z" fill="#FFC43E"/>
<path opacity="0.3" d="M96.0012 102.962C96.3712 102.364 96.5663 102.102 96.8821 102.102C97.198 102.102 97.3931 102.364 97.7631 102.962C98.1564 103.597 98.6951 104.467 99.8104 104.467C100.926 104.467 101.464 103.597 101.858 102.962C102.227 102.364 102.423 102.102 102.738 102.102C103.054 102.102 103.249 102.364 103.619 102.962C104.013 103.597 104.551 104.467 105.667 104.467C106.782 104.467 107.321 103.597 107.714 102.962C108.084 102.364 108.279 102.102 108.595 102.102C108.911 102.102 109.106 102.364 109.476 102.962C109.869 103.597 110.408 104.467 111.523 104.467C112.638 104.467 113.177 103.597 113.57 102.962C113.94 102.364 114.135 102.102 114.451 102.102C114.767 102.102 114.962 102.364 115.332 102.962C115.725 103.597 116.264 104.467 117.379 104.467C118.494 104.467 119.033 103.597 119.426 102.962C119.796 102.364 119.991 102.102 120.307 102.102C120.623 102.102 120.818 102.364 121.188 102.962C121.582 103.597 122.12 104.467 123.236 104.467C124.351 104.467 124.89 103.597 125.283 102.962C125.653 102.364 125.848 102.102 126.164 102.102C126.48 102.102 126.675 102.364 127.045 102.962C127.438 103.597 127.977 104.467 129.092 104.467C130.208 104.467 130.746 103.597 131.14 102.962C131.51 102.364 131.705 102.102 132.021 102.102C132.337 102.102 132.532 102.364 132.902 102.962C133.295 103.597 133.834 104.467 134.949 104.467C136.064 104.467 136.603 103.597 136.996 102.962C137.366 102.364 137.561 102.102 137.877 102.102C138.193 102.102 138.388 102.364 138.758 102.962C139.152 103.597 139.69 104.467 140.806 104.467C141.921 104.467 142.46 103.597 142.853 102.962C143.223 102.364 143.418 102.102 143.734 102.102C144.05 102.102 144.245 102.364 144.615 102.962C145.009 103.597 145.547 104.467 146.663 104.467C146.821 104.467 146.968 104.449 147.105 104.417C146.016 102.964 144.607 101.759 142.981 100.905C142.352 101.183 141.979 101.784 141.687 102.256C141.317 102.854 141.122 103.116 140.806 103.116C140.49 103.116 140.295 102.854 139.925 102.256C139.531 101.621 138.993 100.75 137.877 100.75C136.762 100.75 136.223 101.621 135.83 102.256C135.46 102.854 135.265 103.116 134.949 103.116C134.633 103.116 134.438 102.854 134.068 102.256C133.675 101.621 133.136 100.75 132.021 100.75C130.905 100.75 130.367 101.621 129.973 102.256C129.603 102.854 129.408 103.116 129.092 103.116C128.776 103.116 128.581 102.854 128.211 102.256C127.818 101.621 127.279 100.75 126.164 100.75C125.049 100.75 124.51 101.621 124.117 102.256C123.747 102.854 123.552 103.116 123.236 103.116C122.92 103.116 122.724 102.854 122.355 102.256C121.961 101.621 121.422 100.75 120.307 100.75C119.192 100.75 118.653 101.621 118.26 102.256C117.89 102.854 117.695 103.116 117.379 103.116C117.063 103.116 116.868 102.854 116.498 102.256C116.105 101.621 115.566 100.75 114.451 100.75C113.336 100.75 112.797 101.621 112.404 102.256C112.034 102.854 111.839 103.116 111.523 103.116C111.207 103.116 111.012 102.854 110.642 102.256C110.249 101.621 109.71 100.75 108.595 100.75C107.48 100.75 106.941 101.621 106.547 102.256C106.178 102.854 105.982 103.116 105.667 103.116C105.351 103.116 105.156 102.854 104.786 102.256C104.392 101.621 103.854 100.75 102.738 100.75C101.623 100.75 101.084 101.621 100.691 102.256C100.321 102.854 100.126 103.116 99.8104 103.116C99.4945 103.116 99.2994 102.854 98.9295 102.256C98.6373 101.784 98.2648 101.183 97.6357 100.905C96.0099 101.76 94.6012 102.964 93.5127 104.417C93.6491 104.449 93.7955 104.467 93.954 104.467C95.0692 104.467 95.6079 103.597 96.0012 102.962Z" fill="#FFC43E"/>
<path opacity="0.3" d="M147.544 107.71C147.174 108.308 146.979 108.57 146.663 108.57C146.347 108.57 146.152 108.308 145.782 107.71C145.388 107.075 144.85 106.205 143.734 106.205C142.619 106.205 142.08 107.075 141.687 107.71C141.317 108.308 141.122 108.57 140.806 108.57C140.49 108.57 140.295 108.308 139.925 107.71C139.531 107.075 138.993 106.205 137.877 106.205C136.762 106.205 136.224 107.075 135.83 107.71C135.46 108.308 135.265 108.57 134.949 108.57C134.633 108.57 134.438 108.308 134.068 107.71C133.675 107.075 133.136 106.205 132.021 106.205C130.906 106.205 130.367 107.075 129.974 107.71C129.604 108.308 129.409 108.57 129.093 108.57C128.777 108.57 128.582 108.308 128.212 107.71C127.818 107.075 127.28 106.205 126.164 106.205C125.049 106.205 124.51 107.075 124.117 107.71C123.747 108.308 123.552 108.57 123.236 108.57C122.92 108.57 122.725 108.308 122.355 107.71C121.961 107.075 121.423 106.205 120.308 106.205C119.192 106.205 118.654 107.075 118.26 107.71C117.89 108.308 117.695 108.57 117.379 108.57C117.064 108.57 116.868 108.308 116.498 107.71C116.105 107.075 115.566 106.205 114.451 106.205C113.336 106.205 112.797 107.075 112.404 107.71C112.034 108.308 111.839 108.57 111.523 108.57C111.207 108.57 111.012 108.308 110.642 107.71C110.249 107.075 109.71 106.205 108.595 106.205C107.48 106.205 106.941 107.075 106.548 107.71C106.178 108.308 105.983 108.57 105.667 108.57C105.351 108.57 105.156 108.308 104.786 107.71C104.393 107.075 103.854 106.205 102.739 106.205C101.623 106.205 101.085 107.075 100.691 107.71C100.322 108.308 100.126 108.57 99.8107 108.57C99.4948 108.57 99.2996 108.308 98.9297 107.71C98.5364 107.075 97.9977 106.205 96.8824 106.205C95.7672 106.205 95.2285 107.075 94.8351 107.71C94.4652 108.308 94.27 108.57 93.9542 108.57C93.6383 108.57 93.4433 108.308 93.0733 107.71C92.8534 107.355 92.588 106.927 92.202 106.618C91.9922 107.074 91.81 107.545 91.6577 108.03C91.7329 108.138 91.8145 108.267 91.907 108.416C92.3003 109.051 92.839 109.922 93.9543 109.922C95.0695 109.922 95.6083 109.051 96.0016 108.416C96.3715 107.818 96.5666 107.556 96.8825 107.556C97.1983 107.556 97.3935 107.818 97.7634 108.416C98.1568 109.051 98.6955 109.922 99.8107 109.922C100.926 109.922 101.465 109.051 101.858 108.416C102.228 107.818 102.423 107.556 102.739 107.556C103.055 107.556 103.25 107.818 103.62 108.416C104.013 109.051 104.552 109.922 105.667 109.922C106.782 109.922 107.321 109.051 107.714 108.416C108.084 107.818 108.279 107.556 108.595 107.556C108.911 107.556 109.106 107.818 109.476 108.416C109.869 109.051 110.408 109.922 111.523 109.922C112.638 109.922 113.177 109.051 113.57 108.416C113.94 107.818 114.136 107.556 114.451 107.556C114.767 107.556 114.962 107.818 115.332 108.416C115.725 109.051 116.264 109.922 117.379 109.922C118.495 109.922 119.033 109.051 119.427 108.416C119.797 107.818 119.992 107.556 120.308 107.556C120.623 107.556 120.818 107.818 121.189 108.416C121.582 109.051 122.121 109.922 123.236 109.922C124.351 109.922 124.89 109.051 125.283 108.416C125.653 107.818 125.848 107.556 126.164 107.556C126.48 107.556 126.675 107.818 127.045 108.416C127.439 109.051 127.977 109.922 129.093 109.922C130.208 109.922 130.747 109.051 131.14 108.416C131.51 107.818 131.705 107.556 132.021 107.556C132.337 107.556 132.532 107.818 132.902 108.416C133.295 109.051 133.834 109.922 134.949 109.922C136.065 109.922 136.603 109.051 136.997 108.416C137.367 107.818 137.562 107.556 137.878 107.556C138.194 107.556 138.389 107.818 138.759 108.416C139.152 109.051 139.691 109.922 140.806 109.922C141.921 109.922 142.46 109.051 142.853 108.416C143.223 107.818 143.418 107.556 143.734 107.556C144.05 107.556 144.246 107.818 144.616 108.416C145.009 109.051 145.548 109.922 146.663 109.922C147.779 109.922 148.317 109.051 148.711 108.416C148.803 108.266 148.885 108.138 148.96 108.029C148.808 107.545 148.626 107.074 148.416 106.618C148.03 106.927 147.764 107.355 147.544 107.71Z" fill="#FFC43E"/>
<path opacity="0.3" d="M147.716 118.345H149.511V117.115C148.6 117.15 148.086 117.776 147.716 118.345Z" fill="#FFC43E"/>
<path opacity="0.3" d="M147.544 113.164C147.174 113.762 146.979 114.024 146.663 114.024C146.347 114.024 146.152 113.762 145.781 113.164C145.388 112.529 144.849 111.659 143.734 111.659C142.619 111.659 142.08 112.529 141.687 113.164C141.317 113.762 141.122 114.024 140.806 114.024C140.49 114.024 140.295 113.762 139.925 113.164C139.531 112.529 138.992 111.659 137.877 111.659C136.762 111.659 136.223 112.529 135.83 113.164C135.46 113.762 135.265 114.024 134.949 114.024C134.633 114.024 134.438 113.762 134.068 113.164C133.675 112.529 133.136 111.659 132.021 111.659C130.905 111.659 130.367 112.529 129.973 113.164C129.603 113.762 129.408 114.024 129.092 114.024C128.776 114.024 128.581 113.762 128.211 113.164C127.818 112.529 127.279 111.659 126.164 111.659C125.049 111.659 124.51 112.529 124.117 113.164C123.746 113.762 123.551 114.024 123.235 114.024C122.919 114.024 122.724 113.762 122.354 113.164C121.961 112.529 121.422 111.659 120.307 111.659C119.192 111.659 118.653 112.529 118.26 113.164C117.89 113.762 117.695 114.024 117.379 114.024C117.063 114.024 116.868 113.762 116.498 113.164C116.105 112.529 115.566 111.659 114.451 111.659C113.336 111.659 112.797 112.529 112.404 113.164C112.034 113.762 111.839 114.024 111.523 114.024C111.207 114.024 111.012 113.762 110.642 113.164C110.249 112.529 109.71 111.659 108.595 111.659C107.479 111.659 106.941 112.529 106.547 113.164C106.177 113.762 105.982 114.024 105.667 114.024C105.351 114.024 105.156 113.762 104.786 113.164C104.392 112.529 103.854 111.659 102.738 111.659C101.623 111.659 101.084 112.529 100.691 113.164C100.321 113.762 100.126 114.024 99.8103 114.024C99.4944 114.024 99.2993 113.762 98.9294 113.164C98.536 112.529 97.9973 111.659 96.8821 111.659C95.7668 111.659 95.2281 112.529 94.8348 113.164C94.4648 113.762 94.2697 114.024 93.9539 114.024C93.638 114.024 93.4428 113.762 93.0729 113.164C92.6891 112.544 92.1666 111.701 91.1055 111.661V113.017C91.3766 113.059 91.5689 113.324 91.9066 113.87C92.2999 114.505 92.8386 115.375 93.9539 115.375C95.0691 115.375 95.6078 114.505 96.0011 113.87C96.3711 113.272 96.5662 113.01 96.8821 113.01C97.1979 113.01 97.3931 113.272 97.763 113.87C98.1564 114.505 98.6951 115.375 99.8103 115.375C100.925 115.375 101.464 114.505 101.857 113.87C102.227 113.272 102.422 113.01 102.738 113.01C103.054 113.01 103.249 113.272 103.619 113.87C104.013 114.505 104.551 115.375 105.667 115.375C106.782 115.375 107.32 114.505 107.714 113.87C108.084 113.272 108.279 113.01 108.595 113.01C108.91 113.01 109.106 113.272 109.476 113.87C109.869 114.505 110.408 115.375 111.523 115.375C112.638 115.375 113.177 114.505 113.57 113.87C113.94 113.272 114.135 113.01 114.451 113.01C114.767 113.01 114.962 113.272 115.332 113.87C115.725 114.505 116.264 115.375 117.379 115.375C118.494 115.375 119.033 114.505 119.426 113.87C119.796 113.272 119.991 113.01 120.307 113.01C120.623 113.01 120.818 113.272 121.188 113.87C121.582 114.505 122.12 115.375 123.236 115.375C124.351 115.375 124.89 114.505 125.283 113.87C125.653 113.272 125.848 113.01 126.164 113.01C126.48 113.01 126.675 113.272 127.045 113.87C127.438 114.505 127.977 115.375 129.092 115.375C130.207 115.375 130.746 114.505 131.14 113.87C131.51 113.272 131.705 113.01 132.021 113.01C132.337 113.01 132.532 113.272 132.902 113.87C133.295 114.505 133.834 115.375 134.949 115.375C136.064 115.375 136.603 114.505 136.996 113.87C137.366 113.272 137.561 113.01 137.877 113.01C138.193 113.01 138.388 113.272 138.758 113.87C139.152 114.505 139.69 115.375 140.806 115.375C141.921 115.375 142.46 114.505 142.853 113.87C143.223 113.272 143.418 113.01 143.734 113.01C144.05 113.01 144.245 113.272 144.615 113.87C145.009 114.505 145.547 115.375 146.663 115.375C147.778 115.375 148.317 114.505 148.71 113.87C149.048 113.324 149.24 113.059 149.512 113.017V111.661C148.45 111.701 147.928 112.544 147.544 113.164Z" fill="#FFC43E"/>
</g>
<path d="M120.308 87.842C137.299 87.842 151.072 74.2285 151.072 57.4353C151.072 40.6421 137.299 27.0286 120.308 27.0286C103.318 27.0286 89.5449 40.6421 89.5449 57.4353C89.5449 74.2285 103.318 87.842 120.308 87.842Z" fill="#291514"/>
<path d="M120.308 105.316C123.872 105.316 126.762 103.235 126.762 100.667V99.488H113.854V100.667C113.854 103.235 116.744 105.316 120.308 105.316Z" fill="url(#paint3_linear)"/>
<path d="M116.238 85.6997V100.042C116.238 101.662 118.06 102.974 120.308 102.974C122.556 102.974 124.378 101.662 124.378 100.042V85.6997H116.238Z" fill="url(#paint4_radial)"/>
<path d="M99.9977 72.9143C102.798 72.9143 105.069 70.6703 105.069 67.9022C105.069 65.1341 102.798 62.8901 99.9977 62.8901C97.1971 62.8901 94.9268 65.1341 94.9268 67.9022C94.9268 70.6703 97.1971 72.9143 99.9977 72.9143Z" fill="url(#paint5_radial)"/>
<path d="M140.619 72.9141C143.419 72.9141 145.69 70.6701 145.69 67.902C145.69 65.1339 143.419 62.8899 140.619 62.8899C137.818 62.8899 135.548 65.1339 135.548 67.902C135.548 70.6701 137.818 72.9141 140.619 72.9141Z" fill="url(#paint6_radial)"/>
<path d="M133.253 51.5669H107.363C101.992 55.4913 98.5088 61.7953 98.5088 68.904C98.5088 80.8039 108.269 90.4506 120.308 90.4506C132.348 90.4506 142.108 80.8039 142.108 68.904C142.108 61.7953 138.624 55.4913 133.253 51.5669Z" fill="url(#paint7_radial)"/>
<path d="M118.488 67.9153V73.2938C118.488 74.2871 119.303 75.0924 120.308 75.0924C121.313 75.0924 122.128 74.2871 122.128 73.2938V67.9153H118.488Z" fill="url(#paint8_radial)"/>
<path d="M116.131 68.1523C116.131 70.6648 114.071 72.7013 111.529 72.7013C108.987 72.7013 106.927 70.6648 106.927 68.1523C106.927 65.6397 108.987 63.6033 111.529 63.6033C114.071 63.6033 116.131 65.6397 116.131 68.1523Z" fill="#FFEDCD"/>
<path d="M114.146 68.1524C114.146 69.5812 112.975 70.739 111.529 70.739C110.084 70.739 108.913 69.5812 108.913 68.1524C108.913 66.7237 110.084 65.5659 111.529 65.5659C112.975 65.5659 114.146 66.7237 114.146 68.1524Z" fill="#291514"/>
<path d="M112.883 68.0633C113.581 68.0633 114.146 67.5042 114.146 66.8146C114.146 66.125 113.581 65.5659 112.883 65.5659C112.185 65.5659 111.62 66.125 111.62 66.8146C111.62 67.5042 112.185 68.0633 112.883 68.0633Z" fill="#FFEDCD"/>
<path d="M129.087 72.7013C131.629 72.7013 133.689 70.6646 133.689 68.1523C133.689 65.6399 131.629 63.6033 129.087 63.6033C126.545 63.6033 124.484 65.6399 124.484 68.1523C124.484 70.6646 126.545 72.7013 129.087 72.7013Z" fill="#FFEDCD"/>
<path d="M129.087 70.7389C130.532 70.7389 131.704 69.5809 131.704 68.1523C131.704 66.7238 130.532 65.5657 129.087 65.5657C127.641 65.5657 126.47 66.7238 126.47 68.1523C126.47 69.5809 127.641 70.7389 129.087 70.7389Z" fill="#291514"/>
<path d="M130.44 68.0631C131.138 68.0631 131.704 67.5041 131.704 66.8144C131.704 66.1248 131.138 65.5657 130.44 65.5657C129.742 65.5657 129.177 66.1248 129.177 66.8144C129.177 67.5041 129.742 68.0631 130.44 68.0631Z" fill="#FFEDCD"/>
<path d="M110.426 60.0215C110.149 60.0215 109.922 59.8035 109.915 59.5288C109.908 59.2497 110.131 59.0178 110.413 59.0107C112.073 58.9694 113.399 57.1706 113.412 57.1525C113.577 56.926 113.896 56.8737 114.126 57.036C114.355 57.1983 114.408 57.5132 114.244 57.7402C114.179 57.8311 112.613 59.9671 110.439 60.0213C110.434 60.0214 110.43 60.0215 110.426 60.0215Z" fill="#291514"/>
<path d="M130.191 60.0217C130.187 60.0217 130.183 60.0216 130.178 60.0215C128.004 59.9673 126.438 57.8313 126.372 57.7404C126.208 57.5132 126.262 57.1975 126.492 57.0354C126.722 56.8734 127.041 56.9261 127.205 57.1529C127.227 57.1827 128.55 58.9697 130.204 59.011C130.486 59.018 130.709 59.2499 130.702 59.529C130.695 59.8037 130.468 60.0217 130.191 60.0217Z" fill="#291514"/>
<g opacity="0.5">
<path opacity="0.5" d="M102.67 69.8478V72.1263L108.912 65.9561V63.6775L102.67 69.8478Z" fill="#FFECB4"/>
</g>
<g opacity="0.5">
<path opacity="0.5" d="M110.717 71.6843V73.2225L116.07 67.9314V66.3931L110.717 71.6843Z" fill="#FFECB4"/>
</g>
<g opacity="0.5">
<path opacity="0.5" d="M129.605 70.3234V71.8615L135.255 66.278V64.7397L129.605 70.3234Z" fill="#FFECB4"/>
</g>
<g opacity="0.5">
<path opacity="0.5" d="M100.806 68.5735V69.5883L104.533 65.9043V64.8894L100.806 68.5735Z" fill="#FFECB4"/>
</g>
<g opacity="0.5">
<path opacity="0.5" d="M123.748 66.9006V67.9155L127.475 64.2315V63.2166L123.748 66.9006Z" fill="#FFECB4"/>
</g>
<g opacity="0.5">
<path opacity="0.5" d="M133.418 70.6965V73.3259L140.063 66.7581V64.1287L133.418 70.6965Z" fill="#FFECB4"/>
</g>
<path d="M101.192 118.345H91.105V120.437H101.192V118.345Z" fill="url(#paint9_linear)"/>
<path d="M149.512 118.345H139.425V120.437H149.512V118.345Z" fill="url(#paint10_linear)"/>
<path d="M120.308 92.5239C122.208 92.5239 123.748 91.0019 123.748 89.1243C123.748 87.2467 122.208 85.7246 120.308 85.7246C118.409 85.7246 116.869 87.2467 116.869 89.1243C116.869 91.0019 118.409 92.5239 120.308 92.5239Z" fill="url(#paint11_radial)"/>
<path d="M107.558 78.374C108.721 79.8069 110.132 81.042 111.711 82.01C113.319 82.9947 115.098 83.6994 116.949 84.0818C118.872 84.4792 120.869 84.5303 122.811 84.2351C124.69 83.9497 126.514 83.3358 128.18 82.4294C129.809 81.5422 131.282 80.3786 132.519 79.0048C132.704 78.7991 132.884 78.5887 133.058 78.374H107.558V78.374Z" fill="#FFEDCD"/>
<path d="M113.034 75.5606H103.338C100.362 75.5606 97.9404 73.1672 97.9404 70.2254V61.6195C97.9404 61.3093 98.1948 61.0579 98.5086 61.0579H117.863C118.177 61.0579 118.431 61.3093 118.431 61.6195V70.2254C118.431 73.1672 116.01 75.5606 113.034 75.5606ZM99.0768 62.1811V70.2254C99.0768 72.5479 100.989 74.4374 103.338 74.4374H113.034C115.383 74.4374 117.295 72.5479 117.295 70.2254V62.1811H99.0768Z" fill="#006BA6"/>
<path d="M137.278 75.5606H127.582C124.606 75.5606 122.185 73.1672 122.185 70.2254V61.6195C122.185 61.3093 122.439 61.0579 122.753 61.0579H142.107C142.421 61.0579 142.676 61.3093 142.676 61.6195V70.2254C142.676 73.1672 140.254 75.5606 137.278 75.5606ZM123.321 62.1811V70.2254C123.321 72.5479 125.233 74.4374 127.582 74.4374H137.278C139.627 74.4374 141.539 72.5479 141.539 70.2254V62.1811H123.321Z" fill="#006BA6"/>
<path d="M122.753 67.1996C122.44 67.1996 122.185 66.9482 122.185 66.638C122.185 65.6152 121.343 64.7831 120.308 64.7831C119.274 64.7831 118.432 65.6152 118.432 66.638C118.432 66.9482 118.177 67.1996 117.864 67.1996C117.55 67.1996 117.295 66.9482 117.295 66.638C117.295 64.9959 118.647 63.6599 120.308 63.6599C121.97 63.6599 123.322 64.9959 123.322 66.638C123.322 66.9482 123.067 67.1996 122.753 67.1996Z" fill="#006BA6"/>
<path d="M138.419 7.74741L137.748 6.26121L96.1878 5.04833L69.3359 36.3304L70.0199 37.845L111.544 39.0571L138.419 7.74741Z" fill="url(#paint12_angular)"/>
<path d="M85.7442 41.2284L90.1323 50.9468L115.166 51.6774L118.63 50.1542L134.774 31.3465C134.774 31.295 134.774 31.2442 134.773 31.193L130.43 21.5761L112.882 42.0202L85.7442 41.2284Z" fill="url(#paint13_angular)"/>
<path d="M145.414 32.8058L136.878 13.8995L134.779 16.4359L142.708 33.9959L143.338 40.0709L147.592 42.4182L148.494 42.0216L149.57 37.33L145.414 32.8058Z" fill="url(#paint14_angular)"/>
<path d="M54.314 86C54.589 85.1748 54.7266 83.2493 54.7266 80.2236V71.4004C51.0661 63.3389 48.728 58.3136 47.7124 56.3247C46.6968 54.3146 45.8398 52.7277 45.1416 51.564C42.9411 47.84 41.6081 45.703 41.1426 45.1528C40.6982 44.6027 40.2433 44.1478 39.7778 43.7881H50.7275C50.9603 44.2113 51.2777 44.8354 51.6797 45.6606L59.3604 61.8789C59.7201 60.9902 60.1432 59.9958 60.6299 58.8955C65.2425 48.972 67.5806 43.9362 67.644 43.7881H78.1177C77.0386 44.6556 75.7161 46.4753 74.1504 49.2471C73.6637 50.0723 73.1771 51.0138 72.6904 52.0718L65.5176 67.0205C64.7135 68.819 64.0259 70.4377 63.4546 71.8765V80.9854C63.4546 83.1012 63.5815 84.7728 63.8354 86H54.314ZM193.74 43.6294C195.052 43.7352 196.142 43.7881 197.009 43.7881H199.644C200.532 43.7881 201.463 43.7035 202.437 43.5342V69.7817C202.437 74.9868 200.86 79.1657 197.708 82.3184C194.724 85.3018 190.979 86.7935 186.472 86.7935C181.542 86.7935 177.554 85.5133 174.507 82.9531C171.1 80.0755 169.397 75.9284 169.397 70.5117V43.6294C171.153 43.7352 172.804 43.7881 174.348 43.7881C175.914 43.7881 177.205 43.7035 178.22 43.5342V70.9243C178.22 73.5903 179.035 75.6639 180.664 77.145C182.188 78.4992 184.092 79.1763 186.377 79.1763C189.762 79.1763 192.016 77.4412 193.137 73.9712C193.539 72.7228 193.74 71.1782 193.74 69.3374V43.6294ZM213.386 86C213.513 85.2806 213.577 84.4977 213.577 83.6514V43.7881H219.924L236.746 70.2578V45.9463C236.746 44.7826 236.64 44.0632 236.428 43.7881H244.998C244.892 44.6344 244.839 45.5654 244.839 46.5811V86H238.237L221.67 60.5776V86H213.386ZM291.05 60.5459C290.648 61.2653 290.447 62.9897 290.447 65.7192V75.5581C290.447 78.5415 288.902 81.1335 285.813 83.334C282.618 85.6403 278.704 86.7935 274.07 86.7935C267.638 86.7935 262.507 84.7728 258.677 80.7314C254.974 76.8805 253.123 71.9717 253.123 66.0049C253.123 59.6572 255.006 54.3675 258.772 50.1357C262.983 45.375 268.78 42.9946 276.165 42.9946C281.095 42.9946 284.998 43.9468 287.876 45.8511L287.368 55.2139L287.114 55.2773C286.374 53.9867 284.914 52.9287 282.734 52.1035C280.661 51.3206 278.481 50.9292 276.196 50.9292C273.932 50.9292 271.943 51.2889 270.229 52.0083C268.537 52.7277 267.098 53.7539 265.913 55.0869C263.416 57.8164 262.168 61.424 262.168 65.9097C262.168 69.8241 263.268 72.9661 265.469 75.3359C267.669 77.6846 270.505 78.8589 273.975 78.8589C277.804 78.8589 280.386 77.8644 281.719 75.8755C282.142 75.2407 282.354 74.5213 282.354 73.7173V68.4487H278.259C276.059 68.4487 274.863 68.6392 274.673 69.02L274.578 68.9883L274.292 60.7046C274.884 60.8739 277.286 60.9585 281.497 60.9585H285.242C287.569 60.9585 289.473 60.7998 290.955 60.4824L291.05 60.5459ZM355.923 60.5459C355.521 61.2653 355.32 62.9897 355.32 65.7192V75.5581C355.32 78.5415 353.775 81.1335 350.686 83.334C347.491 85.6403 343.577 86.7935 338.943 86.7935C332.511 86.7935 327.38 84.7728 323.55 80.7314C319.847 76.8805 317.996 71.9717 317.996 66.0049C317.996 59.6572 319.879 54.3675 323.645 50.1357C327.856 45.375 333.653 42.9946 341.038 42.9946C345.968 42.9946 349.871 43.9468 352.749 45.8511L352.241 55.2139L351.987 55.2773C351.247 53.9867 349.787 52.9287 347.607 52.1035C345.534 51.3206 343.354 50.9292 341.069 50.9292C338.805 50.9292 336.816 51.2889 335.103 52.0083C333.41 52.7277 331.971 53.7539 330.786 55.0869C328.289 57.8164 327.041 61.424 327.041 65.9097C327.041 69.8241 328.141 72.9661 330.342 75.3359C332.542 77.6846 335.378 78.8589 338.848 78.8589C342.677 78.8589 345.259 77.8644 346.592 75.8755C347.015 75.2407 347.227 74.5213 347.227 73.7173V68.4487H343.132C340.932 68.4487 339.736 68.6392 339.546 69.02L339.451 68.9883L339.165 60.7046C339.757 60.8739 342.159 60.9585 346.37 60.9585H350.115C352.442 60.9585 354.347 60.7998 355.828 60.4824L355.923 60.5459ZM378.076 69.5913C377.441 69.6336 376.764 69.6548 376.045 69.6548C375.326 69.6548 374.257 69.6019 372.839 69.4961V86H364.429V43.5659C367.391 43.1851 371.03 42.9946 375.347 42.9946C381.229 42.9946 385.609 44.0843 388.486 46.2637C391.385 48.4219 392.834 51.765 392.834 56.293C392.834 59.8053 391.512 62.8099 388.867 65.3066C388 66.1107 387.005 66.8089 385.884 67.4014L392.358 81.0488C393.628 83.863 394.601 85.5345 395.278 86.0635L395.12 86.2222C393.067 85.8836 389.84 85.8942 385.439 86.2539L378.076 69.5913ZM375.95 50.4849C374.871 50.4849 373.834 50.5378 372.839 50.6436V62.7676C373.876 62.9157 375.093 62.9897 376.489 62.9897C377.886 62.9897 379.06 62.8734 380.012 62.6406C380.964 62.3867 381.79 62.0059 382.488 61.498C383.99 60.3766 384.741 58.6945 384.741 56.4517C384.741 54.2088 383.958 52.6325 382.393 51.7227C380.933 50.8975 378.785 50.4849 375.95 50.4849ZM405.403 86.2539C403.583 86.0846 401.457 86 399.023 86H396.516L410.322 47.311C410.936 45.576 411.243 44.571 411.243 44.2959C411.243 43.9997 411.232 43.8198 411.211 43.7563L411.243 43.6929C412.618 43.7563 414.078 43.7881 415.623 43.7881C416.892 43.7881 418.416 43.7669 420.193 43.7246L420.225 43.7881C420.182 43.8727 420.161 43.9891 420.161 44.1372C420.161 44.5392 420.479 45.6077 421.113 47.3428L435.205 86.0952C434.782 86.0741 434.285 86.0635 433.713 86.0635C433.713 86.0635 433.163 86.0423 432.063 86C431.534 86 431.058 86 430.635 86H425.715L422.732 76.8594H408.386L405.403 86.2539ZM420.256 69.2422L415.464 54.4839L410.798 69.2422H420.256ZM450.63 86.7935C447.202 86.7935 443.975 86.5184 440.95 85.9683V43.5024C443.743 43.1639 446.98 42.9946 450.662 42.9946C454.364 42.9946 457.708 43.5024 460.691 44.5181C463.695 45.5125 466.203 46.9408 468.213 48.8027C472.275 52.5267 474.307 57.7424 474.307 64.4497C474.307 71.9611 472.043 77.6634 467.515 81.5566C463.452 85.0479 457.824 86.7935 450.63 86.7935ZM449.202 79.0493C450.577 79.3032 451.952 79.4302 453.328 79.4302C454.703 79.4302 456.184 79.1657 457.771 78.6367C459.358 78.0866 460.733 77.2402 461.897 76.0977C464.394 73.6855 465.642 70.1732 465.642 65.5605C465.642 57.9857 462.881 53.3307 457.358 51.5957C455.539 51.0244 453.433 50.7388 451.042 50.7388H450.186C449.868 50.7388 449.54 50.7493 449.202 50.7705V79.0493ZM507.695 43.6294C509.007 43.7352 510.097 43.7881 510.964 43.7881H513.599C514.487 43.7881 515.418 43.7035 516.392 43.5342V69.7817C516.392 74.9868 514.815 79.1657 511.663 82.3184C508.679 85.3018 504.934 86.7935 500.427 86.7935C495.497 86.7935 491.509 85.5133 488.462 82.9531C485.055 80.0755 483.352 75.9284 483.352 70.5117V43.6294C485.108 43.7352 486.759 43.7881 488.303 43.7881C489.869 43.7881 491.16 43.7035 492.175 43.5342V70.9243C492.175 73.5903 492.99 75.6639 494.619 77.145C496.143 78.4992 498.047 79.1763 500.332 79.1763C503.717 79.1763 505.971 77.4412 507.092 73.9712C507.494 72.7228 507.695 71.1782 507.695 69.3374V43.6294ZM530.134 86.2539C528.315 86.0846 526.188 86 523.755 86H521.248L535.054 47.311C535.667 45.576 535.974 44.571 535.974 44.2959C535.974 43.9997 535.964 43.8198 535.942 43.7563L535.974 43.6929C537.349 43.7563 538.809 43.7881 540.354 43.7881C541.624 43.7881 543.147 43.7669 544.924 43.7246L544.956 43.7881C544.914 43.8727 544.893 43.9891 544.893 44.1372C544.893 44.5392 545.21 45.6077 545.845 47.3428L559.937 86.0952C559.513 86.0741 559.016 86.0635 558.445 86.0635C558.445 86.0635 557.895 86.0423 556.794 86C556.265 86 555.789 86 555.366 86H550.447L547.463 76.8594H533.118L530.134 86.2539ZM544.988 69.2422L540.195 54.4839L535.53 69.2422H544.988ZM580.312 86.1904C579.297 86.0635 576.684 86 572.473 86H571.458V50.8975H565.173C563.311 50.8975 562.211 50.9927 561.873 51.1831C561.534 51.3735 561.27 51.5428 561.079 51.6909L560.984 51.6592V43.5342L561.079 43.439C561.777 43.6717 563.66 43.7881 566.729 43.7881H586.628C588.49 43.7881 589.591 43.6929 589.929 43.5024C590.268 43.312 590.532 43.1427 590.723 42.9946L590.818 43.0264V51.1514L590.723 51.2466C590.024 51.0138 588.141 50.8975 585.073 50.8975H580.312V86.1904ZM618.875 78.3828C620.186 78.3828 621.096 78.2559 621.604 78.002L621.731 78.0337L621.414 86H597.642V43.5659C598.213 43.6082 598.848 43.64 599.546 43.6611L601.768 43.7246C603.249 43.7669 604.857 43.7881 606.592 43.7881C611.437 43.7881 616.23 43.7035 620.969 43.5342C620.736 45.3962 620.62 47.8823 620.62 50.9927C620.62 51.3312 620.641 51.5851 620.684 51.7544L620.62 51.8496C619.52 51.5322 617.954 51.3735 615.923 51.3735H605.925V59.4668H613.447C615.775 59.4668 617.171 59.4033 617.637 59.2764L617.732 67.1157C616.716 67.0099 615.404 66.957 613.796 66.957H605.925V78.3828H618.875Z" fill="#006BA6"/>
</g>
<defs>
<radialGradient id="paint0_radial" cx="0" cy="0" r="1" gradientUnits="userSpaceOnUse" gradientTransform="translate(144.842 133.342) scale(15.2724 17.5935)">
<stop offset="0.2128" stop-color="#682C1E"/>
<stop offset="0.3309" stop-color="#662C1D"/>
<stop offset="0.4298" stop-color="#5F291C"/>
<stop offset="0.5218" stop-color="#542419"/>
<stop offset="0.6096" stop-color="#451D14"/>
<stop offset="0.6937" stop-color="#32130C"/>
<stop offset="0.734" stop-color="#270C06"/>
</radialGradient>
<radialGradient id="paint1_radial" cx="0" cy="0" r="1" gradientUnits="userSpaceOnUse" gradientTransform="translate(96.3302 133.342) scale(15.2722 17.5933)">
<stop offset="0.2128" stop-color="#682C1E"/>
<stop offset="0.3309" stop-color="#662C1D"/>
<stop offset="0.4298" stop-color="#5F291C"/>
<stop offset="0.5218" stop-color="#542419"/>
<stop offset="0.6096" stop-color="#451D14"/>
<stop offset="0.6937" stop-color="#32130C"/>
<stop offset="0.734" stop-color="#270C06"/>
</radialGradient>
<radialGradient id="paint2_radial" cx="0" cy="0" r="1" gradientUnits="userSpaceOnUse" gradientTransform="translate(119.854 97.4669) scale(47.8067 47.2523)">
<stop offset="0.1223" stop-color="#277BCF"/>
<stop offset="0.1237" stop-color="#006BA6"/>
<stop offset="0.244" stop-color="#006BA6"/>
<stop offset="0.3679" stop-color="#006BA6"/>
<stop offset="0.4973" stop-color="#277BCF"/>
<stop offset="0.6345" stop-color="#277BCF"/>
<stop offset="0.7926" stop-color="#277BCF"/>
</radialGradient>
<linearGradient id="paint3_linear" x1="120.308" y1="96.7088" x2="120.308" y2="112.28" gradientUnits="userSpaceOnUse">
<stop stop-color="#5F0000"/>
<stop offset="0.1717" stop-color="#720708"/>
<stop offset="0.5687" stop-color="#9F1A1E"/>
<stop offset="0.8551" stop-color="#BB2228"/>
<stop offset="1" stop-color="#C8252C"/>
</linearGradient>
<radialGradient id="paint4_radial" cx="0" cy="0" r="1" gradientUnits="userSpaceOnUse" gradientTransform="translate(120.163 107.581) scale(19.9383 19.707)">
<stop offset="0.2128" stop-color="#682C1E"/>
<stop offset="0.3586" stop-color="#662C1D"/>
<stop offset="0.4807" stop-color="#5F291C"/>
<stop offset="0.5943" stop-color="#542419"/>
<stop offset="0.7027" stop-color="#451D14"/>
<stop offset="0.8065" stop-color="#32130C"/>
<stop offset="0.8564" stop-color="#270C06"/>
</radialGradient>
<radialGradient id="paint5_radial" cx="0" cy="0" r="1" gradientUnits="userSpaceOnUse" gradientTransform="translate(81.7657 67.2767) scale(19.0072 18.7867)">
<stop offset="0.4309" stop-color="#682C1E"/>
<stop offset="0.6428" stop-color="#672C1D"/>
<stop offset="0.7312" stop-color="#622A1C"/>
<stop offset="0.7966" stop-color="#5A271A"/>
<stop offset="0.8506" stop-color="#4F2217"/>
<stop offset="0.8977" stop-color="#411B12"/>
<stop offset="0.9392" stop-color="#30120B"/>
<stop offset="0.9574" stop-color="#270C06"/>
</radialGradient>
<radialGradient id="paint6_radial" cx="0" cy="0" r="1" gradientUnits="userSpaceOnUse" gradientTransform="translate(158.851 67.2764) rotate(180) scale(19.0071 18.7867)">
<stop offset="0.4309" stop-color="#682C1E"/>
<stop offset="0.6428" stop-color="#672C1D"/>
<stop offset="0.7312" stop-color="#622A1C"/>
<stop offset="0.7966" stop-color="#5A271A"/>
<stop offset="0.8506" stop-color="#4F2217"/>
<stop offset="0.8977" stop-color="#411B12"/>
<stop offset="0.9392" stop-color="#30120B"/>
<stop offset="0.9574" stop-color="#270C06"/>
</radialGradient>
<radialGradient id="paint7_radial" cx="0" cy="0" r="1" gradientUnits="userSpaceOnUse" gradientTransform="translate(120.078 59.7198) scale(40.3543 39.8863)">
<stop offset="0.399" stop-color="#682C1E"/>
<stop offset="0.6216" stop-color="#672C1D"/>
<stop offset="0.7145" stop-color="#622A1C"/>
<stop offset="0.7831" stop-color="#5A271A"/>
<stop offset="0.8399" stop-color="#4F2217"/>
<stop offset="0.8893" stop-color="#411B12"/>
<stop offset="0.9329" stop-color="#30120B"/>
<stop offset="0.9521" stop-color="#270C06"/>
</radialGradient>
<radialGradient id="paint8_radial" cx="0" cy="0" r="1" gradientUnits="userSpaceOnUse" gradientTransform="translate(120.048 67.9153) scale(9.33728 9.22897)">
<stop offset="0.399" stop-color="#682C1E"/>
<stop offset="0.5405" stop-color="#6A2D1F"/>
<stop offset="0.5995" stop-color="#6E3122"/>
<stop offset="0.6431" stop-color="#753626"/>
<stop offset="0.6792" stop-color="#7F3E2D"/>
<stop offset="0.7106" stop-color="#8C4735"/>
<stop offset="0.7388" stop-color="#9C533E"/>
<stop offset="0.7639" stop-color="#AE6148"/>
<stop offset="0.7766" stop-color="#B8684E"/>
</radialGradient>
<linearGradient id="paint9_linear" x1="104.487" y1="119.391" x2="89.35" y2="119.391" gradientUnits="userSpaceOnUse">
<stop stop-color="#5F0000"/>
<stop offset="0.0831" stop-color="#75080A"/>
<stop offset="0.1989" stop-color="#921619"/>
<stop offset="0.3103" stop-color="#A91D22"/>
<stop offset="0.4147" stop-color="#B92227"/>
<stop offset="0.5092" stop-color="#C2242A"/>
<stop offset="0.5851" stop-color="#C8252C"/>
</linearGradient>
<linearGradient id="paint10_linear" x1="136.13" y1="119.391" x2="151.267" y2="119.391" gradientUnits="userSpaceOnUse">
<stop stop-color="#5F0000"/>
<stop offset="0.0831" stop-color="#75080A"/>
<stop offset="0.1989" stop-color="#921619"/>
<stop offset="0.3103" stop-color="#A91D22"/>
<stop offset="0.4147" stop-color="#B92227"/>
<stop offset="0.5092" stop-color="#C2242A"/>
<stop offset="0.5851" stop-color="#C8252C"/>
</linearGradient>
<radialGradient id="paint11_radial" cx="0" cy="0" r="1" gradientUnits="userSpaceOnUse" gradientTransform="translate(120.078 59.7199) scale(40.3544 39.8863)">
<stop offset="0.399" stop-color="#682C1E"/>
<stop offset="0.6216" stop-color="#672C1D"/>
<stop offset="0.7145" stop-color="#622A1C"/>
<stop offset="0.7831" stop-color="#5A271A"/>
<stop offset="0.8399" stop-color="#4F2217"/>
<stop offset="0.8893" stop-color="#411B12"/>
<stop offset="0.9329" stop-color="#30120B"/>
<stop offset="0.9521" stop-color="#270C06"/>
</radialGradient>
<radialGradient id="paint12_angular" cx="0" cy="0" r="1" gradientUnits="userSpaceOnUse" gradientTransform="translate(103.881 22.0461) rotate(65.6994) scale(18.6575 37.3624)">
<stop stop-color="#0EBDFE"/>
<stop offset="0.19337" stop-color="#0EBDFE" stop-opacity="0.5"/>
<stop offset="0.524862" stop-color="#0EBDFE"/>
<stop offset="0.734807" stop-color="#0EBDFE" stop-opacity="0.475138"/>
<stop offset="0.9997" stop-color="#0EBDFE" stop-opacity="0.718232"/>
</radialGradient>
<radialGradient id="paint13_angular" cx="0" cy="0" r="1" gradientUnits="userSpaceOnUse" gradientTransform="translate(112.493 41.159) rotate(65.6994) scale(10.7053 24.4071)">
<stop stop-color="#0EBDFE"/>
<stop offset="0.19337" stop-color="#0EBDFE" stop-opacity="0.5"/>
<stop offset="0.524862" stop-color="#0EBDFE"/>
<stop offset="0.734807" stop-color="#0EBDFE" stop-opacity="0.475138"/>
<stop offset="0.9997" stop-color="#0EBDFE" stop-opacity="0.718232"/>
</radialGradient>
<radialGradient id="paint14_angular" cx="0" cy="0" r="1" gradientUnits="userSpaceOnUse" gradientTransform="translate(141.784 28.3573) rotate(65.6994) scale(15.2104 3.4041)">
<stop stop-color="#0EBDFE"/>
<stop offset="0.19337" stop-color="#0EBDFE" stop-opacity="0.5"/>
<stop offset="0.524862" stop-color="#0EBDFE"/>
<stop offset="0.734807" stop-color="#0EBDFE" stop-opacity="0.475138"/>
<stop offset="0.9997" stop-color="#0EBDFE" stop-opacity="0.718232"/>
</radialGradient>
<clipPath id="clip0">
<rect width="666" height="124" fill="white"/>
</clipPath>
</defs>
</svg>
