<svg width="65" height="114" xmlns="http://www.w3.org/2000/svg"><g stroke="#8E44AD" stroke-width="4" fill="none" fill-rule="evenodd" stroke-linecap="round"><path d="M11.865 55.862H4.23c-1.713 0-2.784-1.87-1.928-3.366L30.573 3.122c.856-1.496 2.998-1.496 3.855 0l28.27 49.374c.857 1.496-.214 3.366-1.927 3.366h-3.78c-1.715 0-2.785 1.87-1.928 3.367l7.635 13.336c.857 1.496-.214 3.366-1.927 3.366h-3.78c-1.715 0-2.785 1.87-1.928 3.366l7.635 13.337C63.555 94.13 62.484 96 60.771 96H4.229c-1.713 0-2.784-1.87-1.928-3.366l7.637-13.337c.857-1.496-.215-3.366-1.928-3.366H4.23c-1.714 0-2.785-1.87-1.929-3.366l9.564-16.703M33 112V96"/></g></svg>