<svg width="66" height="130" xmlns="http://www.w3.org/2000/svg"><g stroke-width="4" stroke="#8E44AD" fill="none" fill-rule="evenodd" stroke-linecap="round"><path d="M32.586 29.85V2.532M32.586 29.85L2 59.24M32.586 29.85L63.17 59.24M53.655 12.774L32.585 2.532M54 13L33 23"/><g><path d="M63.171 59.516v63.207c0 2.914-2.345 5.277-5.24 5.277H7.24C4.346 128 2 125.637 2 122.723V59.516"/><path d="M21.496 128V98.704h22.18V128M19.728 68.36c0-7.151 5.757-12.95 12.858-12.95 7.1 0 12.858 5.799 12.858 12.95 0 7.153-5.758 12.952-12.858 12.952-7.101 0-12.858-5.799-12.858-12.951z"/></g></g></svg>