<svg width="93" height="78" xmlns="http://www.w3.org/2000/svg"><g stroke="#8E44AD" stroke-width="4" fill="none" fill-rule="evenodd" stroke-linecap="round"><path d="M2 75.738V60.334c0-12.05 9.768-21.816 21.816-21.816 12.05 0 21.817 9.767 21.817 21.816v15.404M9.092 16.724C9.092 8.592 15.684 2 23.817 2c8.131 0 14.724 6.592 14.724 14.724 0 8.132-6.593 14.725-14.724 14.725-8.133 0-14.725-6.593-14.725-14.725zM2 75.738h43.633M54.84 69.062V56.447c0-9.866 7.999-17.865 17.866-17.865s17.865 7.999 17.865 17.865v12.615M60.648 20.735c0-6.66 5.398-12.058 12.058-12.058s12.058 5.399 12.058 12.058c0 6.66-5.399 12.058-12.058 12.058-6.66 0-12.058-5.398-12.058-12.058zM54.84 69.062h35.731"/></g></svg>