<svg width="116" height="116" xmlns="http://www.w3.org/2000/svg"><g stroke="#8E44AD" stroke-width="4" fill="none" fill-rule="evenodd" stroke-linecap="round"><path d="M7.5 64a5.5 5.5 0 1 1 .001-11.001A5.5 5.5 0 0 1 7.5 64zM108.5 64a5.5 5.5 0 1 1 0-11 5.5 5.5 0 0 1 0 11zM64 108.5a5.5 5.5 0 1 1-11.001-.001A5.5 5.5 0 0 1 64 108.5zM64 7.5a5.5 5.5 0 1 1-11.001-.001A5.5 5.5 0 0 1 64 7.5z"/><path d="M7.5 64a5.5 5.5 0 1 1 .001-11.001A5.5 5.5 0 0 1 7.5 64zM108.5 64a5.5 5.5 0 1 1 0-11 5.5 5.5 0 0 1 0 11zM64 108.5a5.5 5.5 0 1 1-11.001-.001A5.5 5.5 0 0 1 64 108.5zM64 7.5a5.5 5.5 0 1 1-11.001-.001A5.5 5.5 0 0 1 64 7.5zM26.389 97.389a5.5 5.5 0 1 1-7.779-7.777 5.5 5.5 0 0 1 7.779 7.777zM97.389 26.389a5.5 5.5 0 1 1-7.779-7.777 5.5 5.5 0 0 1 7.779 7.777zM97.389 89.611a5.5 5.5 0 1 1-7.778 7.779 5.5 5.5 0 0 1 7.778-7.779zM26.389 18.611a5.5 5.5 0 1 1-7.778 7.779 5.5 5.5 0 0 1 7.778-7.779zM44 83v-9.933C44 65.299 50.269 59 58 59c7.732 0 14 6.299 14 14.067V83M49 42.5a9.5 9.5 0 1 1 19.001 0A9.5 9.5 0 0 1 49 42.5zM44 83h28"/></g></svg>