<svg width="109" height="59" xmlns="http://www.w3.org/2000/svg"><g fill="none" fill-rule="evenodd"><path d="M96.512 47.608H12.154C6.57 47.608 2 43.04 2 37.454S6.57 27.3 12.154 27.3h84.358c5.585 0 10.154 4.57 10.154 10.155 0 5.585-4.569 10.154-10.154 10.154zM26.79 26.991V15.82C26.79 8.187 32.977 2 40.609 2h16.277c13.802 0 24.99 11.19 24.99 24.991" stroke="#8E44AD" stroke-width="4" stroke-linecap="round"/><path d="M32.252 53.925A8.934 8.934 0 1 1 19.617 41.29a8.934 8.934 0 0 1 12.635 12.635" fill="#FFF"/><path d="M32.252 53.925A8.934 8.934 0 1 1 19.617 41.29a8.934 8.934 0 0 1 12.635 12.635z" stroke="#8E44AD" stroke-width="4" stroke-linecap="round"/><path d="M89.05 53.925A8.934 8.934 0 1 1 76.415 41.29 8.934 8.934 0 0 1 89.05 53.925" fill="#FFF"/><path d="M89.05 53.925A8.934 8.934 0 1 1 76.415 41.29 8.934 8.934 0 0 1 89.05 53.925z" stroke="#8E44AD" stroke-width="4" stroke-linecap="round"/></g></svg>