<svg width="2715" height="595" viewBox="0 0 2715 595" fill="none" xmlns="http://www.w3.org/2000/svg">
<path d="M166.012 403.09C153.408 401.371 145.745 394.711 143.023 383.109L143.238 380.746C143.811 379.027 144.456 377.094 145.172 374.945C145.888 372.51 146.676 370.147 147.535 367.855C148.395 365.421 149.827 363.272 151.832 361.41C152.262 360.121 153.049 358.188 154.195 355.609C155.484 352.888 157.561 348.878 160.426 343.578C162.717 339.424 164.508 336.13 165.797 333.695C167.229 331.26 168.375 329.398 169.234 328.109C167.802 325.531 165.797 323.025 163.219 320.59C160.927 316.293 158.922 312.211 157.203 308.344C155.628 304.333 154.41 300.753 153.551 297.602C153.408 294.164 152.835 290.655 151.832 287.074C151.402 285.212 150.973 283.35 150.543 281.488C150.113 279.626 149.898 277.693 149.898 275.688C149.326 274.685 148.824 273.396 148.395 271.82L148.824 269.242C149.54 268.096 149.684 266.592 149.254 264.73C148.967 262.725 148.538 260.72 147.965 258.715C147.535 256.853 147.105 254.919 146.676 252.914C146.389 250.766 146.318 248.689 146.461 246.684C146.604 244.678 147.105 242.745 147.965 240.883C148.967 239.021 150.615 237.445 152.906 236.156L155.055 234.652L157.203 235.941C158.779 236.944 160.283 237.803 161.715 238.52C163.147 239.236 164.579 239.952 166.012 240.668C167.73 241.527 169.449 242.458 171.168 243.461C172.887 244.32 174.749 245.323 176.754 246.469L178.902 247.973L178.688 250.336C178.688 250.622 178.759 250.98 178.902 251.41C179.046 251.84 179.26 252.198 179.547 252.484L181.91 253.129L182.125 256.137V258.715C182.125 260.004 182.197 260.935 182.34 261.508C182.483 261.938 182.77 262.439 183.199 263.012L184.273 265.805C184.273 268.383 184.488 270.674 184.918 272.68C185.348 274.685 185.849 276.69 186.422 278.695C187.138 280.701 187.711 282.777 188.141 284.926C188.57 286.931 188.642 289.151 188.355 291.586C189.215 291.156 190.074 290.512 190.934 289.652C191.22 289.366 191.507 289.079 191.793 288.793C192.223 288.507 192.652 288.22 193.082 287.934L208.121 267.523L207.691 264.945L213.062 259.789C214.495 258.643 215.855 257.497 217.145 256.352C218.434 255.062 219.508 253.63 220.367 252.055L221.656 250.121C228.102 241.527 236.409 236.228 246.578 234.223L250.23 233.363L251.305 236.801C252.021 238.806 253.382 240.596 255.387 242.172C257.535 243.604 259.827 245.036 262.262 246.469L264.625 247.973C265.484 249.691 265.914 250.98 265.914 251.84C265.914 252.699 265.842 253.415 265.699 253.988L266.773 256.781C265.198 260.935 263.479 263.943 261.617 265.805C259.755 267.523 257.822 269.171 255.816 270.746C254.241 272.035 252.809 273.324 251.52 274.613C250.23 275.902 249.228 277.335 248.512 278.91L246.793 281.059C243.212 282.921 240.921 285.642 239.918 289.223L239.059 292.23H235.836C235.693 292.23 235.335 292.589 234.762 293.305C234.189 293.878 233.329 295.382 232.184 297.816C230.895 299.535 229.964 300.681 229.391 301.254C228.961 301.684 228.603 302.042 228.316 302.328C228.03 303.044 227.743 303.689 227.457 304.262C227.314 304.835 227.099 305.551 226.812 306.41L225.523 308.129C224.234 309.275 223.303 310.421 222.73 311.566C222.158 312.569 221.513 313.786 220.797 315.219C220.224 316.508 219.579 317.868 218.863 319.301C218.147 320.59 217.145 321.879 215.855 323.168L216.285 325.531L214.566 327.035C213.421 328.038 212.418 329.327 211.559 330.902C210.699 332.335 209.84 333.839 208.98 335.414C208.121 337.133 207.19 338.852 206.188 340.57C205.185 342.289 203.896 343.865 202.32 345.297C201.318 347.875 200.387 349.88 199.527 351.312C198.811 352.745 197.522 354.464 195.66 356.469C193.941 363.344 189.859 370.72 183.414 378.598C183.271 380.173 182.77 381.749 181.91 383.324C181.194 384.757 180.406 386.117 179.547 387.406C179.26 387.979 178.902 388.624 178.473 389.34C178.186 389.913 177.971 390.342 177.828 390.629L177.184 392.992C176.324 394.568 175.393 395.857 174.391 396.859C173.531 397.862 172.672 398.793 171.812 399.652C171.383 399.939 170.953 400.297 170.523 400.727C170.237 401.156 169.951 401.514 169.664 401.801L166.012 403.09ZM361.09 331.547C360.947 333.266 361.09 334.913 361.52 336.488C361.949 338.064 362.451 339.639 363.023 341.215C363.74 342.647 364.384 344.151 364.957 345.727C365.53 347.302 365.96 348.878 366.246 350.453C366.533 352.458 366.533 354.678 366.246 357.113C365.96 359.405 365.458 361.697 364.742 363.988C364.026 366.137 363.095 368.142 361.949 370.004C360.803 371.723 359.443 373.012 357.867 373.871C355.862 376.449 353.427 378.454 350.562 379.887C347.698 381.319 345.048 383.038 342.613 385.043C341.038 386.046 339.247 386.762 337.242 387.191C335.38 387.621 333.447 388.051 331.441 388.48C329.866 389.34 328.004 390.271 325.855 391.273C323.707 392.133 321.487 392.992 319.195 393.852C316.904 394.568 314.612 395.141 312.32 395.57C310.029 395.857 308.023 395.928 306.305 395.785C302.008 397.361 297.783 398.363 293.629 398.793C289.618 399.366 284.892 399.079 279.449 397.934C274.293 398.65 269.495 398.435 265.055 397.289C260.758 396.143 256.891 394.353 253.453 391.918C250.159 389.34 247.223 386.332 244.645 382.895C242.21 379.314 240.204 375.59 238.629 371.723C237.483 363.559 237.77 356.182 239.488 349.594C241.207 342.862 243.642 336.703 246.793 331.117C250.087 325.388 253.811 320.16 257.965 315.434C262.118 310.564 266.129 305.837 269.996 301.254C270.855 301.54 271.5 301.54 271.93 301.254C272.503 300.824 273.004 300.323 273.434 299.75C273.863 299.034 274.293 298.389 274.723 297.816C275.296 297.243 275.94 296.885 276.656 296.742C277.659 294.594 279.091 293.018 280.953 292.016C282.958 290.87 284.534 289.294 285.68 287.289C286.969 287.003 288.043 286.573 288.902 286C289.762 285.427 290.549 284.783 291.266 284.066C292.125 283.35 292.984 282.706 293.844 282.133C294.703 281.417 295.706 280.915 296.852 280.629V278.266C299.43 277.12 301.292 275.831 302.438 274.398C303.727 272.823 305.23 270.961 306.949 268.812C308.238 268.669 309.241 268.598 309.957 268.598C310.816 268.598 312.034 268.454 313.609 268.168C314.755 266.163 315.758 264.659 316.617 263.656C317.62 262.654 319.052 261.579 320.914 260.434C322.633 261.293 324.495 261.866 326.5 262.152C328.648 262.439 330.51 263.37 332.086 264.945C332.229 266.378 332.659 267.523 333.375 268.383C334.091 269.099 334.879 269.815 335.738 270.531C336.598 271.104 337.385 271.749 338.102 272.465C338.961 273.181 339.534 274.184 339.82 275.473C340.393 275.616 340.751 275.544 340.895 275.258C341.181 274.971 341.611 274.9 342.184 275.043C342.613 277.048 343.115 278.409 343.688 279.125C344.26 279.698 344.833 280.915 345.406 282.777C344.69 284.21 344.117 285.714 343.688 287.289C343.401 288.721 342.542 289.796 341.109 290.512C340.966 291.514 341.253 292.087 341.969 292.23C342.685 292.23 343.115 292.589 343.258 293.305C343.401 294.594 343.186 295.525 342.613 296.098C346.051 301.684 349.13 307.628 351.852 313.93C354.573 320.089 357.652 325.961 361.09 331.547ZM334.234 351.957C334.807 350.382 335.523 349.092 336.383 348.09C337.385 347.087 337.958 345.583 338.102 343.578C337.385 342.432 336.956 341.573 336.812 341C336.669 340.284 336.598 339.21 336.598 337.777C333.447 333.337 330.725 328.611 328.434 323.598C326.142 318.441 323.564 313.643 320.699 309.203C320.413 309.776 319.911 310.349 319.195 310.922C318.479 311.495 317.691 311.352 316.832 310.492C316.546 311.638 316.044 312.497 315.328 313.07C314.612 313.5 313.824 313.715 312.965 313.715C312.105 313.572 311.174 313.357 310.172 313.07C309.312 312.641 308.525 312.139 307.809 311.566C303.655 314.861 299.501 318.083 295.348 321.234C291.194 324.385 287.47 328.038 284.176 332.191C283.603 332.478 283.245 332.621 283.102 332.621C282.958 332.478 282.529 332.549 281.812 332.836C280.667 335.557 279.234 338.064 277.516 340.355C275.94 342.504 274.365 344.724 272.789 347.016C271.214 349.307 269.853 351.742 268.707 354.32C267.561 356.898 266.917 359.906 266.773 363.344C269.208 365.349 272.073 366.566 275.367 366.996C278.661 367.426 282.027 367.497 285.465 367.211C289.046 366.924 292.483 366.495 295.777 365.922C299.215 365.206 302.366 364.848 305.23 364.848C311.246 363.415 316.402 361.553 320.699 359.262C324.996 356.827 329.508 354.392 334.234 351.957ZM385.367 289.652C385.081 287.79 384.723 286.645 384.293 286.215C385.296 283.637 386.012 281.13 386.441 278.695C387.014 276.117 387.444 273.682 387.73 271.391C388.017 269.385 388.303 267.523 388.59 265.805C389.02 264.086 389.521 262.439 390.094 260.863C392.529 260.29 394.319 259.288 395.465 257.855C396.754 256.28 397.757 254.919 398.473 253.773C401.051 253.63 402.698 253.988 403.414 254.848C404.273 255.707 405.204 257.139 406.207 259.145C406.923 260.72 407.926 262.439 409.215 264.301C410.504 266.02 412.438 267.38 415.016 268.383C415.445 269.958 415.947 271.462 416.52 272.895C417.092 274.327 417.737 275.831 418.453 277.406C419.742 280.414 420.96 283.565 422.105 286.859C423.251 290.01 423.896 293.018 424.039 295.883C422.32 299.177 420.96 302.973 419.957 307.27C419.098 311.566 418.525 315.935 418.238 320.375C418.095 324.672 418.238 328.826 418.668 332.836C419.098 336.846 419.814 340.212 420.816 342.934L422.105 346.371L426.832 345.941C431.988 344.652 436.643 343.22 440.797 341.645C444.951 339.926 448.818 337.921 452.398 335.629C455.979 333.337 459.417 330.759 462.711 327.895C466.005 324.887 469.443 321.378 473.023 317.367C476.461 313.357 479.54 308.845 482.262 303.832C484.983 298.676 487.203 293.376 488.922 287.934C490.784 282.491 492.216 277.048 493.219 271.605C494.221 266.163 494.866 261.078 495.152 256.352C497.874 255.062 499.378 252.986 499.664 250.121L499.02 247.328C498.59 246.612 498.375 245.967 498.375 245.395C498.518 244.678 498.733 244.034 499.02 243.461C500.165 240.167 502.6 237.732 506.324 236.156C508.902 237.875 511.266 239.737 513.414 241.742C515.706 243.747 517.783 245.753 519.645 247.758C519.931 251.625 520.504 254.991 521.363 257.855C522.223 260.577 523.154 263.227 524.156 265.805C525.159 268.24 526.018 270.603 526.734 272.895C527.594 275.186 528.167 277.979 528.453 281.273C527.021 285.57 525.947 289.652 525.23 293.52C524.658 297.243 524.085 301.182 523.512 305.336L523.082 307.699C520.504 312.139 517.926 316.723 515.348 321.449C512.913 326.033 510.908 330.043 509.332 333.48C508.473 334.34 507.685 335.342 506.969 336.488C506.396 337.634 505.823 338.78 505.25 339.926C504.964 340.355 504.534 341.072 503.961 342.074C503.531 343.077 503.102 343.793 502.672 344.223L497.516 342.289L496.227 348.949L492.789 349.809L490.211 352.816C486.917 358.546 483.408 363.344 479.684 367.211C476.103 371.078 472.021 374.516 467.438 377.523C462.997 380.531 457.913 383.396 452.184 386.117C446.598 388.695 440.152 391.488 432.848 394.496C429.983 394.066 427.477 393.852 425.328 393.852C423.323 393.708 421.318 393.565 419.312 393.422C417.307 393.422 415.374 393.35 413.512 393.207C411.65 393.064 409.501 392.849 407.066 392.562C406.493 391.273 405.706 390.342 404.703 389.77C403.701 389.197 402.77 388.91 401.91 388.91C399.046 387.478 396.897 385.473 395.465 382.895C394.033 380.316 392.529 377.452 390.953 374.301C390.237 372.582 389.449 370.863 388.59 369.145C387.874 367.426 386.943 365.779 385.797 364.203L390.094 362.914L384.508 356.469C384.078 356.039 383.577 355.609 383.004 355.18C382.574 354.75 382.145 354.249 381.715 353.676V349.594C381.142 337.849 380.855 327.035 380.855 317.152C380.999 307.126 382.359 298.318 384.938 290.727L385.367 289.652ZM561.754 375.805C560.322 376.951 559.462 378.454 559.176 380.316C558.889 382.035 558.531 383.754 558.102 385.473C557.672 387.191 556.884 388.695 555.738 389.984C554.736 391.13 552.874 391.632 550.152 391.488C549.579 392.204 549.436 392.634 549.723 392.777C550.152 392.921 550.51 393.565 550.797 394.711C548.792 394.424 547.359 394.568 546.5 395.141C545.641 395.714 544.566 396.143 543.277 396.43C539.983 395.427 537.19 393.637 534.898 391.059C532.75 388.337 530.816 385.401 529.098 382.25C527.522 379.099 526.09 375.876 524.801 372.582C523.655 369.288 522.438 366.423 521.148 363.988C521.148 363.415 521.435 363.201 522.008 363.344C522.438 363.344 522.867 363.344 523.297 363.344C522.581 361.911 522.079 360.336 521.793 358.617C521.363 356.755 520.647 355.251 519.645 354.105C523.798 345.225 528.238 335.987 532.965 326.391C537.691 316.651 542.418 306.84 547.145 296.957C552.014 286.931 556.812 276.905 561.539 266.879C566.409 256.71 571.064 246.755 575.504 237.016C579.514 238.448 583.382 240.167 587.105 242.172C590.973 244.034 594.482 246.254 597.633 248.832C600.784 251.41 603.434 254.418 605.582 257.855C607.874 261.15 609.378 264.945 610.094 269.242C609.807 270.102 609.449 270.388 609.02 270.102C608.59 269.815 608.232 269.958 607.945 270.531C608.661 271.391 609.02 272.035 609.02 272.465C609.163 272.751 609.163 273.109 609.02 273.539C608.876 273.826 608.805 274.255 608.805 274.828C608.805 275.401 609.163 276.189 609.879 277.191C609.163 277.048 608.661 277.191 608.375 277.621C608.089 277.908 607.587 277.908 606.871 277.621C607.587 279.626 607.802 281.202 607.516 282.348C607.229 283.493 606.799 284.568 606.227 285.57C605.654 286.43 605.152 287.432 604.723 288.578C604.436 289.581 604.579 291.013 605.152 292.875C604.579 292.875 604.15 293.018 603.863 293.305C603.72 293.448 603.577 293.663 603.434 293.949C603.29 294.236 603.076 294.522 602.789 294.809C602.646 294.952 602.288 294.952 601.715 294.809C602.145 298.533 602.288 302.328 602.145 306.195C602.001 309.919 601.858 313.786 601.715 317.797C601.572 321.664 601.572 325.674 601.715 329.828C601.858 333.982 602.431 338.279 603.434 342.719C609.592 339.138 614.534 334.483 618.258 328.754C622.125 323.025 625.133 316.651 627.281 309.633C629.573 302.615 631.292 295.095 632.438 287.074C633.727 279.053 635.016 270.889 636.305 262.582C637.88 261.007 639.098 259.073 639.957 256.781C640.96 254.49 641.747 252.126 642.32 249.691C643.036 247.257 643.681 244.822 644.254 242.387C644.97 239.809 645.901 237.517 647.047 235.512C649.625 235.798 651.773 236.586 653.492 237.875C655.354 239.021 657.073 240.382 658.648 241.957C660.224 243.389 661.871 244.75 663.59 246.039C665.309 247.328 667.457 248.188 670.035 248.617C672.04 251.482 673.902 254.275 675.621 256.996C677.34 259.574 678.486 262.51 679.059 265.805C678.199 267.237 677.555 268.812 677.125 270.531C676.695 272.25 676.194 273.969 675.621 275.688C675.191 277.406 674.547 278.982 673.688 280.414C672.828 281.846 671.611 283.064 670.035 284.066C669.605 288.363 668.961 292.374 668.102 296.098C667.242 299.822 666.454 303.474 665.738 307.055C665.022 310.635 664.378 314.359 663.805 318.227C663.232 322.094 663.017 326.319 663.16 330.902C661.871 335.056 660.439 339.353 658.863 343.793C657.288 348.09 656.142 352.1 655.426 355.824C652.704 357.973 650.556 360.622 648.98 363.773C647.405 366.924 645.758 370.076 644.039 373.227C643.323 373.799 642.893 373.943 642.75 373.656C642.607 373.227 641.962 372.94 640.816 372.797C640.96 374.086 640.673 374.945 639.957 375.375C639.384 375.661 639.456 376.664 640.172 378.383C637.737 379.529 635.589 381.033 633.727 382.895C631.865 384.757 629.788 386.475 627.496 388.051C625.348 389.626 622.77 390.701 619.762 391.273C616.897 391.703 613.102 391.059 608.375 389.34C601.357 384.184 595.055 378.24 589.469 371.508C583.883 364.776 579.443 356.827 576.148 347.66C574.716 348.09 573.642 349.021 572.926 350.453C572.21 351.885 571.565 353.389 570.992 354.965C570.419 356.54 569.846 357.973 569.273 359.262C568.701 360.551 567.841 361.195 566.695 361.195C566.409 362.484 565.836 363.702 564.977 364.848C564.26 365.85 563.544 366.924 562.828 368.07C562.112 369.073 561.539 370.219 561.109 371.508C560.823 372.797 561.038 374.229 561.754 375.805ZM673.473 345.082C673.473 343.507 673.688 342.074 674.117 340.785C674.547 339.496 674.618 337.849 674.332 335.844C678.772 326.391 683.785 317.654 689.371 309.633C695.1 301.469 701.904 294.307 709.781 288.148C711.07 287.146 712.073 286.143 712.789 285.141C713.648 283.995 714.436 282.921 715.152 281.918C716.012 280.915 716.943 280.056 717.945 279.34C718.948 278.48 720.237 277.908 721.812 277.621C725.393 273.467 729.69 269.672 734.703 266.234C739.716 262.797 744.944 259.503 750.387 256.352C755.829 253.201 761.272 249.978 766.715 246.684C772.301 243.389 777.314 239.809 781.754 235.941C783.329 236.944 784.547 237.302 785.406 237.016C786.409 236.586 787.411 236.514 788.414 236.801C789.703 239.522 791.35 241.456 793.355 242.602C795.504 243.604 797.652 244.678 799.801 245.824C802.092 246.827 804.169 248.116 806.031 249.691C808.036 251.124 809.54 253.129 810.543 255.707C809.54 255.707 809.039 256.065 809.039 256.781C809.182 257.497 809.397 258.285 809.684 259.145C809.97 260.004 810.113 260.792 810.113 261.508C810.113 262.224 809.469 262.582 808.18 262.582C808.18 263.585 808.681 264.086 809.684 264.086C810.686 264.086 811.188 264.587 811.188 265.59C811.188 266.449 810.973 267.165 810.543 267.738C810.257 268.168 810.257 268.956 810.543 270.102C807.105 272.393 803.238 274.613 798.941 276.762C794.788 278.767 790.348 280.915 785.621 283.207C781.038 285.499 776.311 288.005 771.441 290.727C766.715 293.305 761.988 296.312 757.262 299.75C752.535 303.188 747.737 306.983 742.867 311.137C738.141 315.29 733.557 319.73 729.117 324.457C724.677 329.04 720.523 333.839 716.656 338.852C712.789 343.721 709.495 348.52 706.773 353.246C707.06 353.962 707.418 354.607 707.848 355.18C708.421 355.753 708.85 356.397 709.137 357.113C714.579 357.4 719.664 357.4 724.391 357.113C729.117 356.684 733.844 356.97 738.57 357.973C739.143 357.543 739.501 356.97 739.645 356.254C739.788 355.538 740.217 355.036 740.934 354.75C750.673 353.747 759.768 352.172 768.219 350.023C776.669 347.732 785.263 345.44 794 343.148C791.422 342.146 789.13 341.358 787.125 340.785C786.266 339.926 786.266 339.21 787.125 338.637C788.128 337.921 788.915 337.204 789.488 336.488C787.197 335.199 785.263 333.48 783.688 331.332C782.255 329.184 781.396 326.391 781.109 322.953C782.112 322.094 782.613 321.091 782.613 319.945C782.613 318.799 782.112 317.868 781.109 317.152C780.393 316.866 779.964 316.866 779.82 317.152C779.677 317.439 779.534 317.725 779.391 318.012C779.391 318.298 779.247 318.585 778.961 318.871C778.818 319.158 778.46 319.158 777.887 318.871C778.03 317.296 778.388 316.007 778.961 315.004C779.534 314.001 779.964 312.784 780.25 311.352L798.082 299.535C799.944 300.967 802.236 302.471 804.957 304.047C807.678 305.622 810.543 307.198 813.551 308.773C816.559 310.349 819.638 311.996 822.789 313.715C825.94 315.29 828.876 316.866 831.598 318.441C834.176 319.587 836.396 321.02 838.258 322.738C840.12 324.314 841.91 326.033 843.629 327.895C845.348 329.613 847.066 331.332 848.785 333.051C850.504 334.77 852.581 336.202 855.016 337.348C854.729 339.639 854.872 341.501 855.445 342.934C856.018 344.366 856.161 346.085 855.875 348.09C853.154 352.96 849.859 357.113 845.992 360.551C842.125 363.845 837.757 366.71 832.887 369.145C828.16 371.579 823.076 373.656 817.633 375.375C812.19 376.951 806.604 378.526 800.875 380.102C795.146 381.534 789.345 383.109 783.473 384.828C777.743 386.404 772.086 388.266 766.5 390.414C764.065 390.414 761.988 390.486 760.27 390.629C758.551 390.772 756.904 390.987 755.328 391.273C753.753 391.56 752.177 391.846 750.602 392.133C749.026 392.419 747.307 392.634 745.445 392.777C744.729 392.634 744.228 392.777 743.941 393.207C743.798 393.637 743.512 393.995 743.082 394.281C740.217 394.711 737.639 394.926 735.348 394.926C733.056 394.926 731.122 394.926 729.547 394.926C727.542 394.926 725.465 395.212 723.316 395.785C721.168 396.358 719.163 396.573 717.301 396.43C704.41 395.857 694.312 391.273 687.008 382.68C679.703 374.086 675.693 362.27 674.977 347.23C675.12 346.514 674.977 346.085 674.547 345.941C674.117 345.655 673.759 345.368 673.473 345.082ZM928.492 345.082C928.492 343.507 928.707 342.074 929.137 340.785C929.566 339.496 929.638 337.849 929.352 335.844C933.792 326.391 938.805 317.654 944.391 309.633C950.12 301.469 956.923 294.307 964.801 288.148C966.09 287.146 967.092 286.143 967.809 285.141C968.668 283.995 969.456 282.921 970.172 281.918C971.031 280.915 971.962 280.056 972.965 279.34C973.967 278.48 975.257 277.908 976.832 277.621C980.413 273.467 984.71 269.672 989.723 266.234C994.736 262.797 999.964 259.503 1005.41 256.352C1010.85 253.201 1016.29 249.978 1021.73 246.684C1027.32 243.389 1032.33 239.809 1036.77 235.941C1038.35 236.944 1039.57 237.302 1040.43 237.016C1041.43 236.586 1042.43 236.514 1043.43 236.801C1044.72 239.522 1046.37 241.456 1048.38 242.602C1050.52 243.604 1052.67 244.678 1054.82 245.824C1057.11 246.827 1059.19 248.116 1061.05 249.691C1063.06 251.124 1064.56 253.129 1065.56 255.707C1064.56 255.707 1064.06 256.065 1064.06 256.781C1064.2 257.497 1064.42 258.285 1064.7 259.145C1064.99 260.004 1065.13 260.792 1065.13 261.508C1065.13 262.224 1064.49 262.582 1063.2 262.582C1063.2 263.585 1063.7 264.086 1064.7 264.086C1065.71 264.086 1066.21 264.587 1066.21 265.59C1066.21 266.449 1065.99 267.165 1065.56 267.738C1065.28 268.168 1065.28 268.956 1065.56 270.102C1062.12 272.393 1058.26 274.613 1053.96 276.762C1049.81 278.767 1045.37 280.915 1040.64 283.207C1036.06 285.499 1031.33 288.005 1026.46 290.727C1021.73 293.305 1017.01 296.312 1012.28 299.75C1007.55 303.188 1002.76 306.983 997.887 311.137C993.16 315.29 988.577 319.73 984.137 324.457C979.697 329.04 975.543 333.839 971.676 338.852C967.809 343.721 964.514 348.52 961.793 353.246C962.079 353.962 962.438 354.607 962.867 355.18C963.44 355.753 963.87 356.397 964.156 357.113C969.599 357.4 974.684 357.4 979.41 357.113C984.137 356.684 988.863 356.97 993.59 357.973C994.163 357.543 994.521 356.97 994.664 356.254C994.807 355.538 995.237 355.036 995.953 354.75C1005.69 353.747 1014.79 352.172 1023.24 350.023C1031.69 347.732 1040.28 345.44 1049.02 343.148C1046.44 342.146 1044.15 341.358 1042.14 340.785C1041.29 339.926 1041.29 339.21 1042.14 338.637C1043.15 337.921 1043.93 337.204 1044.51 336.488C1042.22 335.199 1040.28 333.48 1038.71 331.332C1037.27 329.184 1036.42 326.391 1036.13 322.953C1037.13 322.094 1037.63 321.091 1037.63 319.945C1037.63 318.799 1037.13 317.868 1036.13 317.152C1035.41 316.866 1034.98 316.866 1034.84 317.152C1034.7 317.439 1034.55 317.725 1034.41 318.012C1034.41 318.298 1034.27 318.585 1033.98 318.871C1033.84 319.158 1033.48 319.158 1032.91 318.871C1033.05 317.296 1033.41 316.007 1033.98 315.004C1034.55 314.001 1034.98 312.784 1035.27 311.352L1053.1 299.535C1054.96 300.967 1057.26 302.471 1059.98 304.047C1062.7 305.622 1065.56 307.198 1068.57 308.773C1071.58 310.349 1074.66 311.996 1077.81 313.715C1080.96 315.29 1083.9 316.866 1086.62 318.441C1089.2 319.587 1091.42 321.02 1093.28 322.738C1095.14 324.314 1096.93 326.033 1098.65 327.895C1100.37 329.613 1102.09 331.332 1103.8 333.051C1105.52 334.77 1107.6 336.202 1110.04 337.348C1109.75 339.639 1109.89 341.501 1110.46 342.934C1111.04 344.366 1111.18 346.085 1110.89 348.09C1108.17 352.96 1104.88 357.113 1101.01 360.551C1097.14 363.845 1092.78 366.71 1087.91 369.145C1083.18 371.579 1078.1 373.656 1072.65 375.375C1067.21 376.951 1061.62 378.526 1055.89 380.102C1050.17 381.534 1044.36 383.109 1038.49 384.828C1032.76 386.404 1027.11 388.266 1021.52 390.414C1019.08 390.414 1017.01 390.486 1015.29 390.629C1013.57 390.772 1011.92 390.987 1010.35 391.273C1008.77 391.56 1007.2 391.846 1005.62 392.133C1004.05 392.419 1002.33 392.634 1000.46 392.777C999.749 392.634 999.247 392.777 998.961 393.207C998.818 393.637 998.531 393.995 998.102 394.281C995.237 394.711 992.659 394.926 990.367 394.926C988.076 394.926 986.142 394.926 984.566 394.926C982.561 394.926 980.484 395.212 978.336 395.785C976.188 396.358 974.182 396.573 972.32 396.43C959.43 395.857 949.332 391.273 942.027 382.68C934.723 374.086 930.712 362.27 929.996 347.23C930.139 346.514 929.996 346.085 929.566 345.941C929.137 345.655 928.779 345.368 928.492 345.082ZM1108.1 377.523C1107.39 377.667 1106.74 377.165 1106.17 376.02C1105.6 374.73 1104.95 373.513 1104.23 372.367H1106.6C1105.6 369.216 1105.31 366.352 1105.74 363.773C1106.31 361.052 1106.96 358.474 1107.67 356.039C1108.39 353.461 1108.96 351.026 1109.39 348.734C1109.96 346.299 1109.75 343.793 1108.75 341.215C1109.46 341.645 1109.96 341.501 1110.25 340.785C1110.68 339.926 1110.97 338.923 1111.11 337.777C1111.4 336.488 1111.47 335.199 1111.32 333.91C1111.32 332.478 1111.25 331.332 1111.11 330.473C1112.97 326.033 1114.4 321.449 1115.41 316.723C1116.55 311.996 1117.55 307.341 1118.41 302.758C1119.27 298.031 1120.2 293.52 1121.21 289.223C1122.35 284.783 1123.79 280.629 1125.5 276.762C1127.51 276.475 1129.59 276.762 1131.73 277.621C1134.03 278.337 1135.53 279.268 1136.25 280.414C1140.69 276.977 1144.62 272.823 1148.06 267.953C1151.5 263.083 1154.94 258.357 1158.38 253.773C1161.96 249.047 1165.97 244.893 1170.41 241.312C1174.85 237.732 1180.36 235.583 1186.95 234.867C1190.39 237.302 1194.25 239.952 1198.55 242.816C1202.85 245.538 1206.36 248.975 1209.08 253.129C1210.22 253.845 1211.3 254.633 1212.3 255.492C1213.45 256.208 1214.59 256.924 1215.74 257.641V260.863C1217.74 262.725 1219.39 264.945 1220.68 267.523C1222.11 269.958 1223.33 272.608 1224.33 275.473C1225.48 278.194 1226.55 280.987 1227.55 283.852C1228.56 286.716 1229.7 289.366 1230.99 291.801C1230.71 292.66 1230.56 293.448 1230.56 294.164C1230.71 294.737 1230.85 295.382 1230.99 296.098C1231.28 296.671 1231.49 297.387 1231.64 298.246C1231.78 298.962 1231.85 299.893 1231.85 301.039C1231.28 308.63 1228.77 314.789 1224.33 319.516C1220.04 324.099 1214.74 327.895 1208.43 330.902C1202.27 333.767 1195.69 336.273 1188.67 338.422C1181.65 340.427 1175.28 342.647 1169.55 345.082C1169.55 345.655 1169.83 345.941 1170.41 345.941C1171.12 345.941 1171.34 346.371 1171.05 347.23C1175.35 349.809 1178.64 351.885 1180.93 353.461C1183.37 355.036 1185.59 356.397 1187.59 357.543C1189.74 358.546 1192.03 359.405 1194.47 360.121C1197.05 360.837 1200.56 361.697 1205 362.699C1209.44 363.702 1212.87 364.561 1215.31 365.277C1217.89 365.85 1220.18 366.352 1222.18 366.781C1224.19 367.068 1226.34 367.354 1228.63 367.641C1230.92 367.927 1234 368.285 1237.87 368.715C1239.44 370.29 1240.73 372.152 1241.73 374.301C1242.74 376.449 1243.45 378.598 1243.88 380.746C1244.31 382.895 1244.38 384.971 1244.1 386.977C1243.95 388.839 1243.38 390.342 1242.38 391.488C1242.52 392.061 1242.88 392.348 1243.45 392.348C1244.17 392.204 1244.89 392.204 1245.6 392.348C1244.6 393.064 1243.74 393.923 1243.02 394.926C1242.31 395.928 1241.59 396.931 1240.88 397.934C1240.16 398.936 1239.3 399.867 1238.3 400.727C1237.44 401.586 1236.29 402.087 1234.86 402.23C1229.7 404.236 1223.11 404.307 1215.09 402.445C1207.07 400.583 1196.83 397.289 1184.37 392.562C1178.21 390.271 1173.2 388.194 1169.33 386.332C1165.46 384.47 1162.1 382.68 1159.23 380.961C1156.37 379.099 1153.72 377.165 1151.29 375.16C1148.85 373.012 1146.06 370.505 1142.91 367.641C1142.48 367.784 1142.19 368.07 1142.05 368.5C1142.05 368.93 1141.83 369.216 1141.4 369.359C1140.69 375.089 1139.54 379.743 1137.96 383.324C1136.53 386.905 1134.38 390.557 1131.52 394.281C1129.23 393.852 1127.65 394.066 1126.79 394.926C1126.08 395.785 1125.15 396.573 1124 397.289C1122.57 397.576 1121.49 397.504 1120.78 397.074C1120.06 396.788 1119.42 396.43 1118.84 396C1118.27 395.57 1117.63 395.141 1116.91 394.711C1116.19 394.281 1115.05 394.138 1113.47 394.281C1113.04 392.992 1112.61 391.775 1112.18 390.629C1111.75 389.34 1110.61 388.767 1108.75 388.91C1109.18 387.621 1109.32 386.547 1109.18 385.688C1109.03 384.685 1108.82 383.826 1108.53 383.109C1108.24 382.25 1107.96 381.391 1107.67 380.531C1107.53 379.672 1107.67 378.669 1108.1 377.523ZM1179.86 279.34C1178 282.061 1175.92 284.568 1173.63 286.859C1171.34 289.008 1169.05 291.299 1166.75 293.734C1164.61 296.026 1162.67 298.604 1160.95 301.469C1159.23 304.19 1158.02 307.484 1157.3 311.352C1163.32 310.635 1169.62 308.988 1176.21 306.41C1182.8 303.689 1189.03 301.111 1194.9 298.676C1194.18 293.376 1192.32 289.151 1189.31 286C1186.3 282.706 1183.15 280.486 1179.86 279.34ZM1238.73 375.59L1241.52 373.441L1241.73 368.93C1245.32 360.193 1248.97 351.814 1252.69 343.793C1256.56 335.772 1260.57 327.536 1264.72 319.086C1266.01 316.365 1267.3 313.643 1268.59 310.922C1270.02 308.201 1271.38 305.408 1272.67 302.543C1272.53 301.97 1272.46 301.397 1272.46 300.824C1272.46 300.108 1272.6 299.32 1272.89 298.461C1274.89 295.596 1276.47 293.018 1277.61 290.727C1278.9 288.435 1280.12 286.072 1281.27 283.637C1282.55 280.772 1283.92 277.908 1285.35 275.043C1286.92 272.178 1288.86 269.385 1291.15 266.664L1292.65 264.516L1295.02 264.73C1295.59 264.444 1296.16 264.229 1296.73 264.086C1297.45 263.799 1298.31 263.656 1299.31 263.656L1303.18 264.301C1307.91 262.152 1312.06 259.073 1315.64 255.062C1319.36 250.909 1323.09 245.967 1326.81 240.238L1329.39 236.586L1332.83 238.734C1333.54 239.164 1334.69 239.594 1336.27 240.023C1337.84 240.453 1339.49 240.954 1341.21 241.527C1344.21 242.243 1347.15 243.103 1350.02 244.105C1352.88 244.965 1355.1 246.182 1356.68 247.758L1357.75 249.691C1358.04 251.267 1358.25 252.699 1358.39 253.988C1358.68 255.277 1358.97 256.566 1359.25 257.855C1359.83 260.863 1360.33 263.871 1360.76 266.879C1361.19 269.743 1361.47 272.966 1361.62 276.547C1362.33 279.411 1362.98 282.348 1363.55 285.355C1364.27 288.22 1364.91 291.085 1365.48 293.949C1366.2 298.103 1366.99 302.113 1367.85 305.98C1368.71 309.704 1369.85 313.285 1371.29 316.723C1372.72 316.723 1373.58 316.794 1373.86 316.938C1375.58 316.221 1377.59 315.792 1379.88 315.648L1382.67 315.434L1383.53 318.012C1383.82 318.441 1384.18 318.871 1384.61 319.301C1385.04 319.73 1385.54 320.16 1386.11 320.59C1388.4 320.733 1390.05 321.234 1391.05 322.094C1392.2 322.81 1393.13 323.526 1393.84 324.242C1394.13 324.529 1394.49 324.887 1394.92 325.316C1395.35 325.603 1395.71 325.818 1395.99 325.961L1399.86 327.465L1397.71 331.547C1396.14 334.555 1393.7 337.491 1390.41 340.355C1387.26 343.22 1383.67 345.583 1379.66 347.445C1379.95 348.448 1380.09 349.379 1380.09 350.238C1380.24 351.098 1380.45 352.1 1380.74 353.246C1381.31 356.111 1381.74 359.118 1382.03 362.27C1382.46 365.277 1382.46 368.428 1382.03 371.723C1380.6 375.447 1378.88 378.812 1376.87 381.82C1375.01 384.685 1372.72 387.335 1370 389.77C1367.42 392.061 1364.48 393.995 1361.19 395.57C1357.89 397.003 1354.46 397.79 1350.88 397.934C1348.87 397.504 1347.37 397.003 1346.36 396.43C1345.5 395.857 1344.72 395.284 1344 394.711C1342.85 393.852 1341.92 393.279 1341.21 392.992L1338.41 391.703L1339.27 388.48C1339.7 387.335 1339.63 386.332 1339.06 385.473C1338.63 384.613 1337.63 383.467 1336.05 382.035C1335.48 381.605 1334.98 381.176 1334.55 380.746C1334.12 380.173 1333.62 379.6 1333.04 379.027L1328.75 374.086L1335.84 372.152C1340.13 371.007 1343 369.574 1344.43 367.855C1345.86 365.993 1346.43 362.771 1346.15 358.188C1342.57 357.471 1339.63 357.4 1337.34 357.973C1335.05 358.402 1332.76 358.904 1330.46 359.477C1327.17 360.336 1323.95 361.124 1320.8 361.84C1317.65 362.413 1314.21 362.699 1310.48 362.699C1308.05 362.699 1305.47 362.484 1302.75 362.055L1300.39 361.84L1299.74 359.477C1299.74 359.19 1299.53 358.904 1299.1 358.617C1298.81 358.188 1298.52 357.829 1298.24 357.543C1297.52 356.684 1296.66 355.538 1295.66 354.105C1294.66 352.673 1294.44 350.883 1295.02 348.734C1294.01 347.159 1293.44 345.512 1293.3 343.793C1292.72 344.939 1292.22 346.085 1291.79 347.23C1291.51 348.233 1291.22 349.236 1290.93 350.238L1290.07 353.031L1287.28 353.461C1286.99 353.747 1286.71 354.177 1286.42 354.75C1286.28 355.323 1286.28 355.753 1286.42 356.039L1287.28 358.402L1285.13 360.336C1284.85 360.766 1284.49 361.124 1284.06 361.41C1283.63 361.697 1283.27 361.983 1282.98 362.27C1282.7 363.845 1282.27 365.349 1281.7 366.781C1281.27 368.214 1280.76 369.646 1280.19 371.078C1279.48 373.37 1278.76 375.59 1278.04 377.738C1277.47 379.887 1277.18 382.035 1277.18 384.184L1276.32 386.977C1275.61 388.122 1274.68 388.982 1273.53 389.555C1272.53 390.128 1271.53 390.629 1270.52 391.059C1269.09 391.632 1268.09 392.204 1267.52 392.777L1266.87 395.57L1263.65 396C1261.79 396.43 1260.43 396.716 1259.57 396.859C1258.85 397.003 1257.99 397.074 1256.99 397.074L1254.2 396.859C1252.48 395.141 1251.04 393.852 1249.9 392.992C1248.9 391.99 1247.68 391.13 1246.25 390.414L1244.96 388.695C1244.38 387.549 1244.03 386.547 1243.88 385.688C1243.74 384.685 1243.52 383.682 1243.24 382.68C1242.95 380.818 1242.52 379.529 1241.95 378.812L1238.73 375.59ZM1307.26 319.73C1305.26 322.595 1303.32 325.603 1301.46 328.754C1302.46 328.611 1303.39 328.539 1304.25 328.539C1305.26 328.539 1306.26 328.467 1307.26 328.324C1312.27 328.038 1316.93 327.68 1321.23 327.25C1325.52 326.82 1330.18 326.104 1335.19 325.102C1334.05 319.802 1332.76 314.431 1331.32 308.988C1330.04 303.402 1328.6 297.816 1327.03 292.23L1325.95 294.379C1322.37 298.246 1318.93 302.4 1315.64 306.84C1312.35 311.28 1309.62 315.505 1307.48 319.516L1307.26 319.73ZM1419.84 398.363C1415.69 397.361 1412.46 395.714 1410.17 393.422C1408.02 390.987 1406.38 388.194 1405.23 385.043C1404.23 381.749 1403.51 378.168 1403.08 374.301C1402.8 370.434 1402.44 366.423 1402.01 362.27C1402.58 360.408 1403.3 358.832 1404.16 357.543C1405.16 356.254 1405.59 354.464 1405.45 352.172C1407.02 347.589 1408.45 343.148 1409.74 338.852C1411.03 334.555 1411.89 330.115 1412.32 325.531C1413.18 324.242 1414.04 323.383 1414.9 322.953C1416.04 314.789 1416.19 306.41 1415.33 297.816C1414.47 289.223 1413.04 281.273 1411.03 273.969C1411.17 272.393 1411.39 271.247 1411.68 270.531C1411.96 269.672 1411.96 268.956 1411.68 268.383C1411.39 267.094 1411.82 266.449 1412.96 266.449C1414.11 266.449 1415.26 266.449 1416.4 266.449C1416.4 263.871 1415.9 261.365 1414.9 258.93C1414.04 256.352 1413.18 253.415 1412.32 250.121C1413.47 247.543 1414.25 245.036 1414.68 242.602C1415.11 240.167 1415.9 237.947 1417.05 235.941C1421.63 237.374 1426.14 239.021 1430.58 240.883C1435.02 242.745 1439.39 244.607 1443.69 246.469C1447.98 248.188 1452.21 249.906 1456.36 251.625C1460.52 253.201 1464.6 254.49 1468.61 255.492C1474.77 259.932 1481.07 264.372 1487.52 268.812C1494.1 273.109 1500.05 277.908 1505.35 283.207C1510.79 288.363 1515.3 294.307 1518.88 301.039C1522.46 307.771 1524.54 315.72 1525.11 324.887C1524.83 325.746 1524.61 326.462 1524.47 327.035C1524.33 327.608 1524.18 328.181 1524.04 328.754C1523.9 329.327 1523.82 329.971 1523.82 330.688C1523.82 331.404 1523.82 332.406 1523.82 333.695C1518.67 342.719 1512.15 350.31 1504.27 356.469C1496.4 362.628 1487.8 368.07 1478.49 372.797C1469.18 377.523 1459.44 381.892 1449.27 385.902C1439.25 389.77 1429.44 393.923 1419.84 398.363ZM1440.89 276.547C1439.61 276.547 1438.67 276.833 1438.1 277.406C1439.82 283.852 1441.11 289.939 1441.97 295.668C1442.83 301.397 1443.26 307.126 1443.26 312.855C1443.4 318.585 1443.11 324.457 1442.4 330.473C1441.68 336.488 1440.68 343.005 1439.39 350.023C1441.25 349.88 1442.9 349.522 1444.33 348.949C1445.76 348.376 1447.2 347.732 1448.63 347.016C1450.2 346.299 1451.78 345.655 1453.36 345.082C1455.07 344.509 1457.01 344.151 1459.16 344.008C1459.73 342.862 1460.45 342.003 1461.3 341.43C1462.31 340.714 1463.17 339.997 1463.88 339.281C1467.46 337.849 1471.04 336.345 1474.62 334.77C1478.21 333.194 1481.5 331.404 1484.51 329.398C1487.52 327.393 1490.24 325.102 1492.67 322.523C1495.11 319.945 1497.11 316.866 1498.69 313.285C1497.54 311.137 1496.11 309.346 1494.39 307.914C1492.82 306.339 1491.1 304.835 1489.23 303.402C1487.52 301.827 1485.8 300.251 1484.08 298.676C1482.5 296.957 1481.21 295.023 1480.21 292.875C1477.92 292.589 1475.91 292.016 1474.2 291.156C1472.48 290.154 1470.83 289.223 1469.25 288.363C1467.68 287.361 1465.96 286.43 1464.1 285.57C1462.38 284.711 1460.3 284.21 1457.87 284.066C1454.14 282.061 1450.78 280.701 1447.77 279.984C1444.76 279.125 1442.47 277.979 1440.89 276.547ZM1541.66 289.652C1541.37 287.79 1541.01 286.645 1540.58 286.215C1541.58 283.637 1542.3 281.13 1542.73 278.695C1543.3 276.117 1543.73 273.682 1544.02 271.391C1544.31 269.385 1544.59 267.523 1544.88 265.805C1545.31 264.086 1545.81 262.439 1546.38 260.863C1548.82 260.29 1550.61 259.288 1551.75 257.855C1553.04 256.28 1554.05 254.919 1554.76 253.773C1557.34 253.63 1558.99 253.988 1559.7 254.848C1560.56 255.707 1561.49 257.139 1562.5 259.145C1563.21 260.72 1564.21 262.439 1565.5 264.301C1566.79 266.02 1568.73 267.38 1571.3 268.383C1571.73 269.958 1572.24 271.462 1572.81 272.895C1573.38 274.327 1574.03 275.831 1574.74 277.406C1576.03 280.414 1577.25 283.565 1578.39 286.859C1579.54 290.01 1580.18 293.018 1580.33 295.883C1578.61 299.177 1577.25 302.973 1576.25 307.27C1575.39 311.566 1574.81 315.935 1574.53 320.375C1574.38 324.672 1574.53 328.826 1574.96 332.836C1575.39 336.846 1576.1 340.212 1577.11 342.934L1578.39 346.371L1583.12 345.941C1588.28 344.652 1592.93 343.22 1597.09 341.645C1601.24 339.926 1605.11 337.921 1608.69 335.629C1612.27 333.337 1615.71 330.759 1619 327.895C1622.29 324.887 1625.73 321.378 1629.31 317.367C1632.75 313.357 1635.83 308.845 1638.55 303.832C1641.27 298.676 1643.49 293.376 1645.21 287.934C1647.07 282.491 1648.51 277.048 1649.51 271.605C1650.51 266.163 1651.15 261.078 1651.44 256.352C1654.16 255.062 1655.67 252.986 1655.95 250.121L1655.31 247.328C1654.88 246.612 1654.66 245.967 1654.66 245.395C1654.81 244.678 1655.02 244.034 1655.31 243.461C1656.45 240.167 1658.89 237.732 1662.61 236.156C1665.19 237.875 1667.55 239.737 1669.7 241.742C1671.99 243.747 1674.07 245.753 1675.93 247.758C1676.22 251.625 1676.79 254.991 1677.65 257.855C1678.51 260.577 1679.44 263.227 1680.45 265.805C1681.45 268.24 1682.31 270.603 1683.02 272.895C1683.88 275.186 1684.46 277.979 1684.74 281.273C1683.31 285.57 1682.24 289.652 1681.52 293.52C1680.95 297.243 1680.37 301.182 1679.8 305.336L1679.37 307.699C1676.79 312.139 1674.21 316.723 1671.64 321.449C1669.2 326.033 1667.2 330.043 1665.62 333.48C1664.76 334.34 1663.97 335.342 1663.26 336.488C1662.68 337.634 1662.11 338.78 1661.54 339.926C1661.25 340.355 1660.82 341.072 1660.25 342.074C1659.82 343.077 1659.39 343.793 1658.96 344.223L1653.8 342.289L1652.52 348.949L1649.08 349.809L1646.5 352.816C1643.21 358.546 1639.7 363.344 1635.97 367.211C1632.39 371.078 1628.31 374.516 1623.73 377.523C1619.29 380.531 1614.2 383.396 1608.47 386.117C1602.89 388.695 1596.44 391.488 1589.14 394.496C1586.27 394.066 1583.77 393.852 1581.62 393.852C1579.61 393.708 1577.61 393.565 1575.6 393.422C1573.6 393.422 1571.66 393.35 1569.8 393.207C1567.94 393.064 1565.79 392.849 1563.36 392.562C1562.78 391.273 1561.99 390.342 1560.99 389.77C1559.99 389.197 1559.06 388.91 1558.2 388.91C1555.33 387.478 1553.19 385.473 1551.75 382.895C1550.32 380.316 1548.82 377.452 1547.24 374.301C1546.53 372.582 1545.74 370.863 1544.88 369.145C1544.16 367.426 1543.23 365.779 1542.09 364.203L1546.38 362.914L1540.8 356.469C1540.37 356.039 1539.87 355.609 1539.29 355.18C1538.86 354.75 1538.43 354.249 1538 353.676V349.594C1537.43 337.849 1537.14 327.035 1537.14 317.152C1537.29 307.126 1538.65 298.318 1541.23 290.727L1541.66 289.652ZM1666.91 375.59L1669.7 373.441L1669.92 368.93C1673.5 360.193 1677.15 351.814 1680.88 343.793C1684.74 335.772 1688.75 327.536 1692.91 319.086C1694.2 316.365 1695.48 313.643 1696.77 310.922C1698.21 308.201 1699.57 305.408 1700.86 302.543C1700.71 301.97 1700.64 301.397 1700.64 300.824C1700.64 300.108 1700.78 299.32 1701.07 298.461C1703.08 295.596 1704.65 293.018 1705.8 290.727C1707.09 288.435 1708.3 286.072 1709.45 283.637C1710.74 280.772 1712.1 277.908 1713.53 275.043C1715.11 272.178 1717.04 269.385 1719.33 266.664L1720.84 264.516L1723.2 264.73C1723.77 264.444 1724.35 264.229 1724.92 264.086C1725.63 263.799 1726.49 263.656 1727.5 263.656L1731.36 264.301C1736.09 262.152 1740.24 259.073 1743.82 255.062C1747.55 250.909 1751.27 245.967 1755 240.238L1757.57 236.586L1761.01 238.734C1761.73 239.164 1762.87 239.594 1764.45 240.023C1766.02 240.453 1767.67 240.954 1769.39 241.527C1772.4 242.243 1775.33 243.103 1778.2 244.105C1781.06 244.965 1783.28 246.182 1784.86 247.758L1785.93 249.691C1786.22 251.267 1786.43 252.699 1786.58 253.988C1786.86 255.277 1787.15 256.566 1787.44 257.855C1788.01 260.863 1788.51 263.871 1788.94 266.879C1789.37 269.743 1789.66 272.966 1789.8 276.547C1790.52 279.411 1791.16 282.348 1791.73 285.355C1792.45 288.22 1793.1 291.085 1793.67 293.949C1794.38 298.103 1795.17 302.113 1796.03 305.98C1796.89 309.704 1798.04 313.285 1799.47 316.723C1800.9 316.723 1801.76 316.794 1802.05 316.938C1803.77 316.221 1805.77 315.792 1808.06 315.648L1810.86 315.434L1811.71 318.012C1812 318.441 1812.36 318.871 1812.79 319.301C1813.22 319.73 1813.72 320.16 1814.29 320.59C1816.58 320.733 1818.23 321.234 1819.23 322.094C1820.38 322.81 1821.31 323.526 1822.03 324.242C1822.31 324.529 1822.67 324.887 1823.1 325.316C1823.53 325.603 1823.89 325.818 1824.18 325.961L1828.04 327.465L1825.89 331.547C1824.32 334.555 1821.88 337.491 1818.59 340.355C1815.44 343.22 1811.86 345.583 1807.85 347.445C1808.13 348.448 1808.28 349.379 1808.28 350.238C1808.42 351.098 1808.64 352.1 1808.92 353.246C1809.49 356.111 1809.92 359.118 1810.21 362.27C1810.64 365.277 1810.64 368.428 1810.21 371.723C1808.78 375.447 1807.06 378.812 1805.05 381.82C1803.19 384.685 1800.9 387.335 1798.18 389.77C1795.6 392.061 1792.67 393.995 1789.37 395.57C1786.08 397.003 1782.64 397.79 1779.06 397.934C1777.05 397.504 1775.55 397.003 1774.55 396.43C1773.69 395.857 1772.9 395.284 1772.18 394.711C1771.04 393.852 1770.11 393.279 1769.39 392.992L1766.6 391.703L1767.46 388.48C1767.89 387.335 1767.82 386.332 1767.24 385.473C1766.81 384.613 1765.81 383.467 1764.23 382.035C1763.66 381.605 1763.16 381.176 1762.73 380.746C1762.3 380.173 1761.8 379.6 1761.23 379.027L1756.93 374.086L1764.02 372.152C1768.32 371.007 1771.18 369.574 1772.61 367.855C1774.05 365.993 1774.62 362.771 1774.33 358.188C1770.75 357.471 1767.82 357.4 1765.52 357.973C1763.23 358.402 1760.94 358.904 1758.65 359.477C1755.35 360.336 1752.13 361.124 1748.98 361.84C1745.83 362.413 1742.39 362.699 1738.67 362.699C1736.23 362.699 1733.65 362.484 1730.93 362.055L1728.57 361.84L1727.93 359.477C1727.93 359.19 1727.71 358.904 1727.28 358.617C1726.99 358.188 1726.71 357.829 1726.42 357.543C1725.71 356.684 1724.85 355.538 1723.84 354.105C1722.84 352.673 1722.63 350.883 1723.2 348.734C1722.2 347.159 1721.62 345.512 1721.48 343.793C1720.91 344.939 1720.41 346.085 1719.98 347.23C1719.69 348.233 1719.4 349.236 1719.12 350.238L1718.26 353.031L1715.46 353.461C1715.18 353.747 1714.89 354.177 1714.61 354.75C1714.46 355.323 1714.46 355.753 1714.61 356.039L1715.46 358.402L1713.32 360.336C1713.03 360.766 1712.67 361.124 1712.24 361.41C1711.81 361.697 1711.45 361.983 1711.17 362.27C1710.88 363.845 1710.45 365.349 1709.88 366.781C1709.45 368.214 1708.95 369.646 1708.38 371.078C1707.66 373.37 1706.94 375.59 1706.23 377.738C1705.65 379.887 1705.37 382.035 1705.37 384.184L1704.51 386.977C1703.79 388.122 1702.86 388.982 1701.71 389.555C1700.71 390.128 1699.71 390.629 1698.71 391.059C1697.27 391.632 1696.27 392.204 1695.7 392.777L1695.05 395.57L1691.83 396C1689.97 396.43 1688.61 396.716 1687.75 396.859C1687.03 397.003 1686.17 397.074 1685.17 397.074L1682.38 396.859C1680.66 395.141 1679.23 393.852 1678.08 392.992C1677.08 391.99 1675.86 391.13 1674.43 390.414L1673.14 388.695C1672.57 387.549 1672.21 386.547 1672.07 385.688C1671.92 384.685 1671.71 383.682 1671.42 382.68C1671.14 380.818 1670.71 379.529 1670.13 378.812L1666.91 375.59ZM1735.45 319.73C1733.44 322.595 1731.51 325.603 1729.64 328.754C1730.65 328.611 1731.58 328.539 1732.44 328.539C1733.44 328.539 1734.44 328.467 1735.45 328.324C1740.46 328.038 1745.11 327.68 1749.41 327.25C1753.71 326.82 1758.36 326.104 1763.38 325.102C1762.23 319.802 1760.94 314.431 1759.51 308.988C1758.22 303.402 1756.79 297.816 1755.21 292.23L1754.14 294.379C1750.56 298.246 1747.12 302.4 1743.82 306.84C1740.53 311.28 1737.81 315.505 1735.66 319.516L1735.45 319.73ZM1820.74 274.828C1820.6 273.682 1820.31 272.68 1819.88 271.82C1819.59 270.818 1819.23 269.743 1818.8 268.598C1818.09 266.879 1817.44 265.017 1816.87 263.012C1816.3 261.007 1816.01 258.643 1816.01 255.922C1816.3 254.49 1816.66 253.487 1817.09 252.914C1817.52 252.198 1817.95 251.625 1818.38 251.195L1819.23 247.328H1822.46C1823.6 247.471 1824.75 247.543 1825.89 247.543C1827.18 247.543 1828.4 247.543 1829.55 247.543C1834.99 247.543 1840.58 247.328 1846.3 246.898C1852.03 246.469 1857.91 245.967 1863.92 245.395C1870.51 244.535 1877.6 243.891 1885.19 243.461C1885.91 241.885 1886.34 240.883 1886.48 240.453C1886.77 240.023 1887.05 239.522 1887.34 238.949L1889.7 237.66C1893 237.517 1895.29 237.947 1896.58 238.949C1897.87 239.809 1898.87 240.668 1899.59 241.527C1903.31 241.241 1907.11 240.883 1910.97 240.453C1914.84 239.88 1918.85 239.307 1923 238.734C1928.73 238.018 1934.53 237.302 1940.41 236.586C1946.28 235.87 1952.01 235.512 1957.59 235.512C1960.03 235.512 1962.32 235.583 1964.47 235.727C1966.62 235.87 1968.69 236.085 1970.7 236.371L1973.28 238.305C1973.85 239.307 1974.57 240.238 1975.43 241.098C1976.29 241.957 1977.29 242.816 1978.43 243.676C1980.58 245.395 1982.66 247.543 1984.66 250.121C1986.81 252.699 1987.6 256.495 1987.03 261.508L1985.95 263.656C1985.38 264.229 1984.66 264.802 1983.8 265.375L1981.66 268.168H1979.29C1977.86 268.168 1976.79 268.311 1976.07 268.598C1975.35 268.741 1974.49 269.027 1973.49 269.457C1972.92 269.743 1972.27 270.03 1971.56 270.316C1970.84 270.46 1970.05 270.674 1969.2 270.961C1967.62 270.818 1966.4 270.746 1965.54 270.746C1964.68 270.746 1963.68 270.746 1962.54 270.746C1958.24 270.746 1953.58 271.033 1948.57 271.605C1943.56 272.178 1938.69 272.823 1933.96 273.539C1930.52 273.969 1927.23 274.398 1924.08 274.828C1920.93 275.115 1918.06 275.401 1915.48 275.688C1914.05 279.411 1912.76 282.706 1911.62 285.57C1910.47 288.435 1909.25 291.299 1907.96 294.164C1906.68 297.029 1905.46 299.965 1904.31 302.973C1903.17 305.837 1902.09 309.06 1901.09 312.641C1899.37 315.219 1897.94 317.725 1896.79 320.16C1895.65 322.452 1894.72 325.102 1894 328.109C1891.85 330.544 1890.28 333.194 1889.27 336.059C1888.41 338.923 1887.63 341.358 1886.91 343.363L1886.05 346.586C1885.05 347.589 1884.4 348.376 1884.12 348.949C1883.97 349.522 1883.62 350.167 1883.04 350.883C1882.61 352.745 1882.04 354.535 1881.32 356.254C1881.04 356.97 1880.75 357.758 1880.46 358.617C1880.18 359.333 1880.11 359.906 1880.25 360.336C1879.96 361.911 1879.53 363.129 1878.96 363.988C1878.96 364.848 1878.89 365.707 1878.75 366.566C1878.6 367.426 1878.46 368.285 1878.32 369.145C1878.03 370.147 1877.82 371.078 1877.67 371.938C1877.53 372.654 1877.6 373.37 1877.89 374.086C1878.32 374.659 1878.75 375.232 1879.18 375.805C1879.61 376.378 1879.96 377.094 1880.25 377.953C1880.54 378.24 1880.89 378.454 1881.32 378.598C1881.75 378.741 1882.11 378.956 1882.4 379.242C1883.54 380.245 1884.62 380.818 1885.62 380.961L1887.77 383.539C1888.63 388.695 1887.84 392.706 1885.41 395.57C1882.83 398.865 1878.53 400.512 1872.52 400.512L1869.51 400.297C1868.51 399.294 1867.93 398.65 1867.79 398.363C1866.5 397.79 1865.43 397.289 1864.57 396.859C1863.71 396.573 1862.92 395.928 1862.2 394.926C1861.92 394.639 1861.56 394.496 1861.13 394.496C1860.7 394.353 1860.34 394.138 1860.05 393.852C1858.62 393.422 1857.48 392.921 1856.62 392.348L1854.25 391.059C1854.4 389.626 1854.47 388.624 1854.47 388.051C1853.32 386.475 1852.39 384.757 1851.68 382.895C1851.1 381.033 1850.6 379.099 1850.17 377.094C1849.74 375.518 1849.31 374.086 1848.88 372.797C1848.6 371.508 1848.1 370.362 1847.38 369.359C1847.09 359.333 1848.02 350.954 1850.17 344.223C1852.32 337.348 1854.68 330.688 1857.26 324.242C1858.69 320.805 1860.05 317.296 1861.34 313.715C1862.63 310.134 1863.78 306.482 1864.78 302.758L1867.14 300.395C1868.15 299.535 1868.79 299.034 1869.08 298.891C1869.08 297.029 1869.44 295.238 1870.15 293.52C1870.87 291.658 1871.66 289.796 1872.52 287.934C1873.09 286.788 1873.59 285.642 1874.02 284.496C1874.59 283.35 1874.95 282.348 1875.09 281.488C1874.09 281.488 1873.16 281.56 1872.3 281.703C1871.58 281.703 1870.8 281.775 1869.94 281.918C1868.08 282.348 1866.29 282.562 1864.57 282.562C1863.28 282.562 1862.35 282.491 1861.77 282.348C1860.63 282.921 1859.55 283.279 1858.55 283.422C1857.55 283.422 1856.55 283.422 1855.54 283.422H1852.96H1850.39C1848.67 283.422 1847.31 283.637 1846.3 284.066C1844.3 284.066 1843.01 284.066 1842.44 284.066C1841.86 284.066 1841.22 284.066 1840.5 284.066H1837.93H1835.35C1834.2 284.066 1832.91 283.995 1831.48 283.852C1830.05 283.565 1828.54 282.992 1826.97 282.133L1825.46 280.414C1824.61 278.839 1823.82 277.979 1823.1 277.836L1820.74 277.191V274.828ZM1961.68 388.695C1960.53 387.549 1959.67 386.189 1959.1 384.613C1958.67 383.038 1957.52 381.749 1955.66 380.746C1955.37 378.598 1954.94 376.163 1954.37 373.441C1953.94 370.577 1953.44 367.712 1952.87 364.848C1952.44 361.84 1952.08 358.904 1951.79 356.039C1951.65 353.031 1951.79 350.31 1952.22 347.875C1952.51 346.586 1952.94 345.368 1953.51 344.223C1954.23 343.077 1954.87 342.003 1955.45 341C1956.16 339.854 1956.66 338.708 1956.95 337.562C1957.38 336.417 1957.45 335.271 1957.16 334.125C1958.02 333.982 1958.52 333.552 1958.67 332.836C1958.95 331.977 1959.67 331.69 1960.82 331.977C1961.82 328.826 1962.89 325.889 1964.04 323.168C1965.18 320.447 1966.4 317.797 1967.69 315.219C1968.98 312.641 1970.27 310.062 1971.56 307.484C1972.99 304.763 1974.28 301.755 1975.43 298.461C1972.99 296.169 1971.2 293.734 1970.05 291.156C1969.05 288.435 1968.26 285.714 1967.69 282.992C1967.12 280.271 1966.69 277.549 1966.4 274.828C1966.12 271.964 1965.54 269.099 1964.68 266.234C1966.4 263.656 1968.48 261.579 1970.91 260.004C1973.35 258.285 1976 256.924 1978.86 255.922C1981.87 254.776 1985.09 253.917 1988.53 253.344C1991.97 252.628 1995.62 251.84 1999.49 250.98C2006.36 248.832 2012.52 247.185 2017.96 246.039C2023.41 244.75 2028.71 243.747 2033.86 243.031C2039.02 242.172 2044.39 241.456 2049.98 240.883C2055.56 240.167 2062.01 239.164 2069.31 237.875C2069.46 238.305 2069.67 238.52 2069.96 238.52C2070.39 238.52 2070.89 238.52 2071.46 238.52C2071.89 239.522 2072.68 240.023 2073.82 240.023C2073.82 239.594 2073.75 239.236 2073.61 238.949C2073.61 238.52 2073.61 238.161 2073.61 237.875C2073.9 237.875 2074.25 237.947 2074.68 238.09C2075.26 238.233 2075.69 238.376 2075.97 238.52C2076.4 238.663 2076.76 238.663 2077.05 238.52C2077.33 238.233 2077.4 237.732 2077.26 237.016C2078.98 240.023 2081.2 242.53 2083.92 244.535C2086.64 246.397 2089.65 248.044 2092.95 249.477C2093.09 250.766 2093.09 251.697 2092.95 252.27C2092.95 252.842 2092.87 253.415 2092.73 253.988C2092.59 254.418 2092.52 254.991 2092.52 255.707C2092.52 256.28 2092.66 257.139 2092.95 258.285C2090.65 262.152 2088 265.16 2085 267.309C2082.13 269.457 2079.05 271.104 2075.76 272.25C2072.46 273.396 2068.95 274.255 2065.23 274.828C2061.65 275.401 2057.93 276.046 2054.06 276.762C2050.33 277.335 2046.54 278.194 2042.67 279.34C2038.8 280.486 2035.01 282.204 2031.29 284.496C2030.14 284.066 2029.07 283.923 2028.06 284.066C2027.2 284.066 2026.27 284.21 2025.27 284.496C2024.27 284.783 2023.12 285.069 2021.83 285.355C2020.69 285.642 2019.25 285.642 2017.54 285.355C2016.39 286.358 2015.03 287.074 2013.45 287.504C2012.02 287.934 2010.52 288.363 2008.94 288.793C2009.66 290.368 2009.94 291.944 2009.8 293.52C2009.8 295.095 2010.02 296.456 2010.45 297.602C2016.46 298.174 2023.12 298.174 2030.43 297.602C2037.73 296.885 2044.89 296.384 2051.91 296.098C2052.05 296.814 2051.98 297.315 2051.7 297.602C2051.41 297.888 2051.27 298.389 2051.27 299.105C2052.55 299.965 2053.77 301.039 2054.92 302.328C2056.06 303.617 2057.21 304.906 2058.36 306.195C2059.64 307.341 2060.93 308.344 2062.22 309.203C2063.51 309.919 2065.02 310.206 2066.73 310.062C2067.45 311.495 2067.95 312.999 2068.24 314.574C2068.52 316.15 2068.31 317.797 2067.59 319.516C2064.73 321.378 2061.94 323.311 2059.21 325.316C2056.49 327.178 2053.63 328.897 2050.62 330.473C2047.76 332.048 2044.61 333.337 2041.17 334.34C2037.73 335.342 2034.01 335.772 2030 335.629C2029.28 335.629 2028.64 335.629 2028.06 335.629C2027.63 335.629 2027.06 335.342 2026.34 334.77C2024.91 335.486 2022.98 335.772 2020.54 335.629C2018.25 335.342 2016.32 335.557 2014.74 336.273C2012.74 335.557 2010.37 335.199 2007.65 335.199C2005.07 335.199 2002.78 334.841 2000.78 334.125C1998.2 337.849 1995.76 341.788 1993.47 345.941C1991.18 349.952 1989.18 354.249 1987.46 358.832C1993.33 359.691 1998.2 360.049 2002.07 359.906C2005.93 359.763 2009.59 359.477 2013.02 359.047C2016.46 358.617 2019.97 358.188 2023.55 357.758C2027.27 357.328 2031.79 357.185 2037.09 357.328C2040.67 355.609 2044.75 354.464 2049.33 353.891C2054.06 353.174 2058.43 352.172 2062.44 350.883C2063.87 351.312 2065.09 352.172 2066.09 353.461C2067.09 354.607 2068.02 355.824 2068.88 357.113C2069.89 358.259 2070.89 359.262 2071.89 360.121C2072.89 360.98 2074.18 361.267 2075.76 360.98C2076.47 361.697 2076.9 362.556 2077.05 363.559C2077.33 364.561 2077.55 365.492 2077.69 366.352C2077.98 367.211 2078.34 367.927 2078.77 368.5C2079.2 368.93 2079.98 369.073 2081.13 368.93C2078.41 374.516 2075.33 378.812 2071.89 381.82C2068.6 384.828 2064.8 387.191 2060.5 388.91C2056.35 390.486 2051.62 391.703 2046.32 392.562C2041.17 393.279 2035.37 394.21 2028.92 395.355C2027.35 395.642 2025.99 395.642 2024.84 395.355C2023.84 394.926 2022.76 394.711 2021.62 394.711C2017.61 395.427 2012.81 396.143 2007.22 396.859C2001.78 397.576 1996.27 397.862 1990.68 397.719C1985.09 397.576 1979.72 396.859 1974.57 395.57C1969.41 394.281 1965.11 391.99 1961.68 388.695Z" fill="#006BA6"/>
<path d="M2206.08 266.144L2265.48 293.114L2321.4 267.728L2262 240.76L2206.08 266.146V266.144Z" fill="#666666"/>
<path d="M2251.91 328.14C2259.8 328.14 2267.68 328.14 2275.57 328.14L2277.49 348.088L2283.28 352.34L2317.74 363.265C2317.74 363.265 2322.26 365.751 2323.59 372.703C2324.17 375.752 2325.41 436.769 2326.7 462.827C2276.16 446.073 2234.52 409.805 2210.71 362.956L2244.43 352.19L2249.99 348.09L2251.91 328.143V328.14Z" fill="#F0B97D"/>
<path d="M2281.2 358.435C2275.49 365.106 2256.42 367.987 2245.91 356.587L2263.74 409.654L2281.2 358.435Z" fill="white"/>
<path d="M2234.19 297.843C2226.76 296.527 2233.09 318.695 2238.51 315.39L2241.42 323.933C2244.04 331.632 2250.65 338.639 2255.69 344.188C2257.65 346.352 2269.68 346.316 2271.62 344.271C2277.2 338.412 2283.82 331.83 2286.3 323.893L2288.97 315.391C2294.4 318.692 2300.71 296.528 2293.29 297.844C2293.81 280.59 2281.6 263.848 2263.74 263.77C2245.88 263.848 2233.67 280.59 2234.19 297.844H2234.19V297.843Z" fill="#FED198"/>
<path d="M2244.43 352.187L2210.71 362.953C2234.6 409.955 2276.43 446.295 2327.18 462.981C2325.73 445.946 2324.25 376.126 2323.59 372.7C2322.27 365.748 2317.75 363.262 2317.75 363.262L2283.28 352.336L2263.74 409.651L2244.43 352.186V352.187Z" fill="#709D89"/>
<path d="M2285.05 267.167C2287.14 266.922 2294.72 273.843 2295.63 281.855C2296.54 289.866 2294.79 297.944 2294.79 297.944C2289.46 297.684 2291.14 305.832 2289.98 307.121L2288.48 307.154L2287.92 301.687C2281.28 297.525 2290.54 281.088 2283.9 279.646C2272.53 289.008 2255.67 292.472 2240.96 290.069C2236.83 290.618 2242.84 295.835 2241.1 301.841C2239.81 304.082 2240.58 307.618 2240.58 307.618L2238.66 307.857C2238.66 307.857 2237.44 297.721 2233.74 297.76C2232.84 293.089 2232.47 290.303 2232.72 286.165C2233.99 264.986 2262.46 252.927 2285.05 267.166L2285.05 267.167Z" fill="#666666"/>
<path d="M2232.75 268.331C2246.22 258.071 2283.43 257.87 2295.45 268.238L2296.08 284.978C2275.11 278.752 2253.46 279.322 2232.01 285.617L2232.75 268.331Z" fill="#807D7D"/>
<path d="M2221.23 259.88L2221.32 289.556V290.474H2219.59V289.556V260.443C2219.65 258.742 2221.11 258.509 2221.23 259.88Z" fill="white"/>
<path d="M2217.26 294.911C2217.26 302.815 2215.6 309.617 2215.51 310.071C2215.41 310.525 2217.01 312.016 2217.32 310.525C2217.62 309.034 2217.29 310.556 2218.7 310.652C2220.09 310.749 2220.38 310.059 2220.39 310.04C2220.4 310.059 2220.69 310.751 2222.08 310.652C2223.49 310.556 2223.16 309.032 2223.46 310.525C2223.77 312.015 2225.37 310.525 2225.28 310.071C2225.19 309.619 2223.53 302.816 2223.53 294.911C2223.45 291.883 2222.27 290.457 2220.39 290.02C2218.52 290.457 2217.33 291.885 2217.26 294.911H2217.26Z" fill="#FF5B61"/>
<path d="M2220.43 290.018C2223.54 290.018 2223.63 291.99 2223.47 293.819C2222.79 293.225 2221.68 292.837 2220.43 292.837C2219.18 292.837 2218.07 293.223 2217.39 293.819C2217.28 291.698 2217.32 290.018 2220.43 290.018Z" fill="#807D7D"/>
<path d="M2470.71 263.792L2524.99 288.426L2576.07 265.236L2521.8 240.602L2470.71 263.792Z" fill="#666666"/>
<path d="M2485.85 349.475C2491.18 340.507 2499.59 330.099 2491.05 314.274C2478.48 259.321 2536.4 248.178 2545.16 270.857C2559.41 276.23 2559.03 305.812 2551.7 321.29C2551.38 327.662 2544.75 333.216 2556.72 349.653L2557.58 349.462H2557.58C2542.05 353.963 2502.26 351.889 2485.84 349.472L2485.85 349.475Z" fill="#666666"/>
<path d="M2512.47 337.892C2511.94 347.733 2508.45 351.45 2503.6 354.036C2501.14 356.21 2479.51 358.816 2476.59 366.715C2475.97 368.389 2474.1 420.671 2472.32 455.264C2513.73 436.649 2547.69 404.422 2568.52 364.282C2562.3 357.67 2544.18 356.089 2542.04 354.306C2537.3 351.656 2533.9 347.757 2533.37 337.888C2533.37 337.888 2526.29 343.379 2521.89 342.536C2517.49 341.691 2512.47 337.888 2512.47 337.888V337.892Z" fill="#F0B97D"/>
<path d="M2501.07 321.751C2505.43 331.104 2507.05 334.757 2512.47 338.96C2512.47 338.96 2517.49 342.832 2521.89 343.696C2526.29 344.558 2533.37 338.96 2533.37 338.96C2538.8 334.757 2540.41 331.103 2544.78 321.751C2545.85 322.32 2546.97 323.094 2547.84 322.098C2548.71 321.103 2552.85 308.161 2552.1 306.418C2551.35 304.674 2550.63 305.786 2549.52 306.576C2549.58 306.201 2548.64 311.25 2548.66 310.483C2548.76 304.375 2544.47 303.408 2543.12 287.244C2523.33 306.884 2504.84 297.873 2498.39 299.187C2496.52 299.568 2495.98 304.349 2496.32 306.575C2489.34 301.588 2497.82 321.896 2498 322.098C2498.87 323.094 2499.99 322.32 2501.06 321.751H2501.07Z" fill="#FED198"/>
<path d="M2503.6 354.035C2495.42 357.459 2482.7 357.611 2476.33 365.94C2475.12 367.517 2469.39 423.753 2465.13 458.325C2509.79 440.315 2546.49 406.726 2568.52 364.29C2561.79 356.718 2548.52 357.407 2542.19 354.006L2523.62 391.97L2503.6 354.032V354.035Z" fill="#FF6600"/>
<path d="M2493.3 266.309C2507.29 256.934 2541.34 257.336 2553.81 266.809L2555.1 282.492C2533.33 276.805 2514.13 277.096 2491.87 282.848L2493.3 266.311V266.309Z" fill="#807D7D"/>
<path d="M2512.36 370.617C2518.14 372.676 2527.97 372.686 2534.07 370.609L2523.62 391.973L2512.36 370.617Z" fill="white"/>
<path d="M2482.9 258.469L2482.99 285.189V286.017H2481.4V285.189V258.976C2481.46 257.442 2482.79 257.231 2482.9 258.467L2482.9 258.469Z" fill="white"/>
<path d="M2479.27 290.069C2479.27 297.289 2477.75 303.502 2477.67 303.918C2477.59 304.332 2479.05 305.693 2479.33 304.332C2479.61 302.971 2479.3 304.361 2480.59 304.45C2481.86 304.538 2482.13 303.906 2482.13 303.887C2482.14 303.906 2482.41 304.536 2483.68 304.45C2484.97 304.362 2484.66 302.971 2484.94 304.332C2485.22 305.693 2486.68 304.332 2486.6 303.918C2486.51 303.503 2485 297.291 2485 290.069C2484.93 287.306 2483.85 285.999 2482.13 285.6C2480.42 285.999 2479.34 287.306 2479.27 290.069Z" fill="#FF5B61"/>
<path d="M2482.13 285.599C2484.97 285.599 2485.05 287.401 2484.91 289.07C2484.29 288.527 2483.27 288.173 2482.13 288.173C2480.99 288.173 2479.98 288.527 2479.35 289.07C2479.25 287.133 2479.29 285.599 2482.13 285.599Z" fill="#807D7D"/>
<path d="M2282.96 169.335L2397.07 221.14L2504.49 172.377L2390.37 120.572L2282.96 169.335Z" fill="#666666"/>
<path d="M2314.77 349.511C2325.99 330.653 2343.67 308.765 2325.72 275.491C2299.29 159.937 2421.08 136.508 2439.5 184.197C2469.47 195.498 2468.67 257.7 2453.26 290.249C2452.57 303.643 2438.64 315.324 2463.81 349.883L2465.62 349.486L2465.62 349.488C2432.97 358.947 2349.29 354.591 2314.77 349.511H2314.77Z" fill="#080808"/>
<path d="M2370.76 325.157C2369.64 345.852 2362.29 353.664 2352.11 359.105C2346.93 363.683 2307.93 364.911 2296.53 383.317C2295.28 385.339 2286.33 417.978 2281.97 441.527C2313.17 461.449 2350.23 473 2390 473C2430.71 473 2468.59 460.882 2500.25 440.072C2496.01 415.512 2492.29 385.856 2490.72 383.317C2478.68 363.878 2437.71 363.653 2432.94 359.68C2422.98 354.105 2415.82 345.905 2414.71 325.157C2414.71 325.157 2399.82 336.704 2390.57 334.926C2381.31 333.149 2370.76 325.157 2370.76 325.157Z" fill="#682C1E"/>
<path d="M2346.77 291.217C2355.96 310.883 2359.35 318.564 2370.76 327.403C2370.76 327.403 2381.31 335.55 2390.57 337.362C2399.82 339.174 2414.71 327.403 2414.71 327.403C2426.12 318.564 2429.51 310.884 2438.7 291.217C2440.95 292.415 2443.3 294.04 2445.13 291.945C2446.96 289.851 2455.66 262.643 2454.09 258.973C2452.52 255.301 2451 257.641 2448.67 259.303C2448.79 258.512 2446.82 269.136 2446.85 267.521C2447.07 254.68 2438.05 252.638 2435.22 218.656C2393.59 259.952 2354.71 241.003 2341.16 243.766C2337.23 244.567 2336.08 254.618 2336.81 259.303C2322.11 248.817 2339.97 291.517 2340.34 291.945C2342.17 294.04 2344.52 292.415 2346.77 291.217Z" fill="url(#paint0_radial)"/>
<path d="M2352.1 359.094C2338.11 366.569 2311.39 357.848 2295.43 383.619C2294.46 385.19 2287.5 416.457 2280.63 440.656C2312.11 461.109 2349.66 472.998 2390 472.998C2433.05 472.998 2472.93 459.459 2505.63 436.414C2498.97 412.478 2492.14 385.609 2490.72 383.315C2474.72 357.469 2447.26 366.559 2433.25 359.039L2394.2 438.869L2352.11 359.093L2352.1 359.094Z" fill="#277BCF"/>
<path d="M2330.46 174.63C2359.86 154.919 2431.46 155.764 2457.7 175.687L2460.41 208.662C2414.63 196.705 2374.24 197.317 2327.44 209.407L2330.46 174.631L2330.46 174.63Z" fill="#807D7D"/>
<path d="M2370.53 393.965C2382.68 398.298 2403.35 398.324 2416.17 393.949L2394.2 438.874L2370.53 393.965H2370.53Z" fill="#FBAB18"/>
<path d="M2308.58 158.144L2308.76 214.331V216.071H2305.42V214.331V159.208C2305.53 155.989 2308.35 155.546 2308.58 158.142V158.144Z" fill="white"/>
<path d="M2300.94 224.59C2300.94 239.774 2297.76 252.841 2297.58 253.711C2297.4 254.584 2300.47 257.445 2301.06 254.584C2301.65 251.719 2301 254.644 2303.72 254.831C2306.39 255.015 2306.95 253.692 2306.97 253.648C2306.98 253.692 2307.54 255.015 2310.21 254.831C2312.93 254.646 2312.28 251.72 2312.87 254.584C2313.46 257.445 2316.52 254.584 2316.35 253.711C2316.17 252.841 2312.99 239.774 2312.99 224.59C2312.84 218.777 2310.57 216.035 2306.97 215.197C2303.36 216.035 2301.09 218.777 2300.94 224.59Z" fill="#FF5B61"/>
<path d="M2306.96 215.197C2312.93 215.197 2313.11 218.986 2312.8 222.496C2311.49 221.353 2309.36 220.612 2306.96 220.612C2304.56 220.612 2302.44 221.355 2301.13 222.496C2300.91 218.42 2301 215.197 2306.96 215.197Z" fill="#807D7D"/>
<path d="M2474.17 415.094L2458.76 413.651L2452.63 399.303C2452.21 398.298 2450.79 398.298 2450.37 399.303L2444.24 413.651L2428.83 415.094C2427.75 415.195 2427.32 416.55 2428.13 417.272L2439.76 427.582L2436.36 442.823C2436.12 443.89 2437.26 444.727 2438.19 444.169L2451.5 436.193L2464.81 444.169C2465.74 444.727 2466.88 443.89 2466.64 442.823L2463.24 427.582L2474.87 417.272C2475.68 416.55 2475.25 415.195 2474.17 415.094Z" fill="#FFDC64"/>
<path d="M2435.75 398.809C2436.53 399.91 2438.75 404.641 2440.02 407.397C2440.22 407.831 2439.68 408.222 2439.33 407.894C2437.14 405.806 2433.4 402.182 2432.62 401.081C2432 400.209 2432.19 398.994 2433.06 398.367C2433.92 397.739 2435.12 397.937 2435.75 398.809Z" fill="#FFF082"/>
<path d="M2467.26 398.809C2466.47 399.91 2464.25 404.641 2462.98 407.397C2462.78 407.831 2463.32 408.222 2463.67 407.894C2465.86 405.806 2469.6 402.182 2470.38 401.081C2471 400.209 2470.81 398.994 2469.94 398.367C2469.08 397.739 2467.88 397.937 2467.26 398.809Z" fill="#FFF082"/>
<path d="M2479.67 431.109C2478.39 430.689 2473.25 429.993 2470.27 429.612C2469.8 429.552 2469.59 430.189 2470 430.42C2472.64 431.89 2477.2 434.386 2478.48 434.807C2479.49 435.14 2480.57 434.582 2480.9 433.561C2481.23 432.54 2480.68 431.442 2479.67 431.109Z" fill="#FFF082"/>
<path d="M2423.33 431.109C2424.61 430.689 2429.75 429.993 2432.73 429.612C2433.2 429.552 2433.41 430.189 2433 430.42C2430.36 431.89 2425.8 434.386 2424.52 434.807C2423.51 435.14 2422.43 434.582 2422.1 433.561C2421.77 432.54 2422.32 431.442 2423.33 431.109Z" fill="#FFF082"/>
<path d="M2449.63 453.055C2449.63 451.698 2450.57 446.551 2451.14 443.566C2451.23 443.097 2451.89 443.097 2451.98 443.566C2452.55 446.551 2453.49 451.698 2453.49 453.055C2453.49 454.129 2452.62 455 2451.56 455C2450.5 455 2449.63 454.129 2449.63 453.055Z" fill="#FFF082"/>
<path d="M2454.86 404.52L2452.63 399.303C2452.21 398.298 2450.79 398.298 2450.37 399.303L2444.24 413.651L2428.83 415.094C2427.75 415.195 2427.32 416.55 2428.13 417.272L2439.76 427.582L2436.36 442.823C2436.12 443.89 2437.26 444.727 2438.19 444.169L2439.96 443.107C2442.87 424.134 2451.03 410.207 2454.86 404.52Z" fill="#FFC850"/>
<defs>
<radialGradient id="paint0_radial" cx="0" cy="0" r="1" gradientUnits="userSpaceOnUse" gradientTransform="translate(2392.65 278.104) rotate(-0.312652) scale(76.048 78.8415)">
<stop stop-color="#682C1E"/>
<stop offset="0.209945" stop-color="#672C1D"/>
<stop offset="0.359116" stop-color="#622A1C"/>
<stop offset="0.513812" stop-color="#5A271A"/>
<stop offset="0.635359" stop-color="#4F2217"/>
<stop offset="0.773481" stop-color="#411B12"/>
<stop offset="1" stop-color="#270C06"/>
</radialGradient>
</defs>
</svg>
