<svg width="2532" height="504" viewBox="0 0 2532 504" fill="none" xmlns="http://www.w3.org/2000/svg">
<rect width="2532" height="504" fill="white"/>
<path d="M95.0117 352.09C82.4076 350.371 74.7448 343.711 72.0234 332.109L72.2383 329.746C72.8112 328.027 73.4557 326.094 74.1719 323.945C74.888 321.51 75.6758 319.147 76.5352 316.855C77.3945 314.421 78.8268 312.272 80.832 310.41C81.2617 309.121 82.0495 307.188 83.1953 304.609C84.4844 301.888 86.5612 297.878 89.4258 292.578C91.7174 288.424 93.5078 285.13 94.7969 282.695C96.2292 280.26 97.375 278.398 98.2344 277.109C96.8021 274.531 94.7969 272.025 92.2188 269.59C89.9271 265.293 87.9219 261.211 86.2031 257.344C84.6276 253.333 83.4102 249.753 82.5508 246.602C82.4076 243.164 81.8346 239.655 80.832 236.074C80.4023 234.212 79.9727 232.35 79.543 230.488C79.1133 228.626 78.8984 226.693 78.8984 224.688C78.3255 223.685 77.8242 222.396 77.3945 220.82L77.8242 218.242C78.5404 217.096 78.6836 215.592 78.2539 213.73C77.9674 211.725 77.5378 209.72 76.9648 207.715C76.5352 205.853 76.1055 203.919 75.6758 201.914C75.3893 199.766 75.3177 197.689 75.4609 195.684C75.6042 193.678 76.1055 191.745 76.9648 189.883C77.9674 188.021 79.6146 186.445 81.9062 185.156L84.0547 183.652L86.2031 184.941C87.7786 185.944 89.2826 186.803 90.7148 187.52C92.1471 188.236 93.5794 188.952 95.0117 189.668C96.7305 190.527 98.4492 191.458 100.168 192.461C101.887 193.32 103.749 194.323 105.754 195.469L107.902 196.973L107.688 199.336C107.688 199.622 107.759 199.98 107.902 200.41C108.046 200.84 108.26 201.198 108.547 201.484L110.91 202.129L111.125 205.137V207.715C111.125 209.004 111.197 209.935 111.34 210.508C111.483 210.938 111.77 211.439 112.199 212.012L113.273 214.805C113.273 217.383 113.488 219.674 113.918 221.68C114.348 223.685 114.849 225.69 115.422 227.695C116.138 229.701 116.711 231.777 117.141 233.926C117.57 235.931 117.642 238.151 117.355 240.586C118.215 240.156 119.074 239.512 119.934 238.652C120.22 238.366 120.507 238.079 120.793 237.793C121.223 237.507 121.652 237.22 122.082 236.934L137.121 216.523L136.691 213.945L142.062 208.789C143.495 207.643 144.855 206.497 146.145 205.352C147.434 204.062 148.508 202.63 149.367 201.055L150.656 199.121C157.102 190.527 165.409 185.228 175.578 183.223L179.23 182.363L180.305 185.801C181.021 187.806 182.382 189.596 184.387 191.172C186.535 192.604 188.827 194.036 191.262 195.469L193.625 196.973C194.484 198.691 194.914 199.98 194.914 200.84C194.914 201.699 194.842 202.415 194.699 202.988L195.773 205.781C194.198 209.935 192.479 212.943 190.617 214.805C188.755 216.523 186.822 218.171 184.816 219.746C183.241 221.035 181.809 222.324 180.52 223.613C179.23 224.902 178.228 226.335 177.512 227.91L175.793 230.059C172.212 231.921 169.921 234.642 168.918 238.223L168.059 241.23H164.836C164.693 241.23 164.335 241.589 163.762 242.305C163.189 242.878 162.329 244.382 161.184 246.816C159.895 248.535 158.964 249.681 158.391 250.254C157.961 250.684 157.603 251.042 157.316 251.328C157.03 252.044 156.743 252.689 156.457 253.262C156.314 253.835 156.099 254.551 155.812 255.41L154.523 257.129C153.234 258.275 152.303 259.421 151.73 260.566C151.158 261.569 150.513 262.786 149.797 264.219C149.224 265.508 148.579 266.868 147.863 268.301C147.147 269.59 146.145 270.879 144.855 272.168L145.285 274.531L143.566 276.035C142.421 277.038 141.418 278.327 140.559 279.902C139.699 281.335 138.84 282.839 137.98 284.414C137.121 286.133 136.19 287.852 135.188 289.57C134.185 291.289 132.896 292.865 131.32 294.297C130.318 296.875 129.387 298.88 128.527 300.312C127.811 301.745 126.522 303.464 124.66 305.469C122.941 312.344 118.859 319.72 112.414 327.598C112.271 329.173 111.77 330.749 110.91 332.324C110.194 333.757 109.406 335.117 108.547 336.406C108.26 336.979 107.902 337.624 107.473 338.34C107.186 338.913 106.971 339.342 106.828 339.629L106.184 341.992C105.324 343.568 104.393 344.857 103.391 345.859C102.531 346.862 101.672 347.793 100.812 348.652C100.383 348.939 99.9531 349.297 99.5234 349.727C99.237 350.156 98.9505 350.514 98.6641 350.801L95.0117 352.09ZM216.613 345.859C210.311 346.719 204.582 346.432 199.426 345C194.27 343.568 189.615 341.348 185.461 338.34C181.451 335.332 177.941 331.751 174.934 327.598C172.069 323.444 169.706 319.004 167.844 314.277C166.555 304.538 166.913 295.729 168.918 287.852C170.923 279.831 173.859 272.454 177.727 265.723C181.594 258.991 185.962 252.689 190.832 246.816C195.845 240.944 200.643 235.286 205.227 229.844C206.229 230.273 207.017 230.273 207.59 229.844C208.306 229.414 208.879 228.841 209.309 228.125C209.882 227.409 210.454 226.693 211.027 225.977C211.743 225.26 212.531 224.759 213.391 224.473C213.964 223.184 214.68 222.109 215.539 221.25C216.542 220.391 217.544 219.603 218.547 218.887C219.693 218.027 220.695 217.168 221.555 216.309C222.557 215.449 223.417 214.375 224.133 213.086C225.565 212.799 226.783 212.298 227.785 211.582C228.931 210.866 229.934 210.078 230.793 209.219C231.796 208.359 232.798 207.572 233.801 206.855C234.803 206.139 236.021 205.566 237.453 205.137V202.344C240.604 200.911 242.896 199.336 244.328 197.617C245.76 195.898 247.479 193.678 249.484 190.957C251.06 190.814 252.277 190.742 253.137 190.742C254.139 190.742 255.643 190.599 257.648 190.312C258.938 187.878 260.155 186.087 261.301 184.941C262.447 183.796 264.094 182.507 266.242 181.074C268.391 182.22 270.682 182.936 273.117 183.223C275.552 183.366 277.772 184.44 279.777 186.445C279.921 188.164 280.422 189.525 281.281 190.527C282.141 191.387 283.072 192.246 284.074 193.105C285.077 193.822 286.079 194.609 287.082 195.469C288.085 196.328 288.729 197.546 289.016 199.121C289.732 199.121 290.161 198.978 290.305 198.691C290.591 198.405 291.092 198.333 291.809 198.477C292.095 199.622 292.382 200.553 292.668 201.27C292.954 201.986 293.241 202.63 293.527 203.203C293.957 203.776 294.315 204.421 294.602 205.137C295.031 205.853 295.389 206.712 295.676 207.715C294.96 209.434 294.315 211.296 293.742 213.301C293.169 215.163 292.023 216.452 290.305 217.168C290.305 218.314 290.734 218.958 291.594 219.102C292.453 219.102 292.954 219.603 293.098 220.605C293.241 221.895 293.026 222.969 292.453 223.828C296.464 230.56 300.116 237.65 303.41 245.098C306.704 252.402 310.428 259.421 314.582 266.152C314.296 268.158 314.367 270.163 314.797 272.168C315.37 274.03 316.014 275.892 316.73 277.754C317.59 279.616 318.378 281.478 319.094 283.34C319.81 285.202 320.311 287.064 320.598 288.926C320.884 291.361 320.884 294.01 320.598 296.875C320.311 299.596 319.738 302.246 318.879 304.824C318.02 307.402 316.874 309.837 315.441 312.129C314.009 314.277 312.362 315.924 310.5 317.07C308.208 319.935 305.344 322.298 301.906 324.16C298.469 325.879 295.318 327.956 292.453 330.391C290.448 331.536 288.299 332.396 286.008 332.969C283.716 333.398 281.353 333.9 278.918 334.473C277.056 335.618 274.836 336.764 272.258 337.91C269.68 338.913 267.03 339.844 264.309 340.703C261.587 341.562 258.866 342.279 256.145 342.852C253.423 343.281 250.988 343.353 248.84 343.066C243.684 344.928 238.671 346.217 233.801 346.934C228.931 347.65 223.202 347.292 216.613 345.859ZM219.406 267.656C217.974 270.951 216.255 273.958 214.25 276.68C212.388 279.258 210.526 281.908 208.664 284.629C206.802 287.35 205.155 290.286 203.723 293.438C202.434 296.445 201.717 300.026 201.574 304.18C204.439 306.615 207.805 308.118 211.672 308.691C215.682 309.121 219.764 309.193 223.918 308.906C228.072 308.477 232.225 307.904 236.379 307.188C240.533 306.471 244.257 306.113 247.551 306.113C247.551 304.824 248.124 304.18 249.27 304.18C255.285 303.607 260.871 301.96 266.027 299.238C271.184 296.374 276.555 293.509 282.141 290.645C282.857 288.926 283.788 287.422 284.934 286.133C286.079 284.844 286.724 282.982 286.867 280.547C286.151 279.258 285.65 278.184 285.363 277.324C285.22 276.465 285.148 275.176 285.148 273.457C281.424 268.301 278.202 262.715 275.48 256.699C272.759 250.54 269.608 244.74 266.027 239.297C265.741 240.013 265.168 240.729 264.309 241.445C263.449 242.161 262.518 242.018 261.516 241.016C261.086 242.448 260.441 243.451 259.582 244.023C258.723 244.453 257.72 244.668 256.574 244.668C255.572 244.668 254.497 244.453 253.352 244.023C252.349 243.594 251.418 243.021 250.559 242.305C245.546 246.315 240.533 250.182 235.52 253.906C230.65 257.63 226.21 261.999 222.199 267.012C221.483 267.441 221.053 267.585 220.91 267.441C220.767 267.298 220.266 267.37 219.406 267.656ZM339.719 238.652C339.432 236.79 339.074 235.645 338.645 235.215C339.647 232.637 340.363 230.13 340.793 227.695C341.366 225.117 341.796 222.682 342.082 220.391C342.368 218.385 342.655 216.523 342.941 214.805C343.371 213.086 343.872 211.439 344.445 209.863C346.88 209.29 348.671 208.288 349.816 206.855C351.105 205.28 352.108 203.919 352.824 202.773C355.402 202.63 357.049 202.988 357.766 203.848C358.625 204.707 359.556 206.139 360.559 208.145C361.275 209.72 362.277 211.439 363.566 213.301C364.855 215.02 366.789 216.38 369.367 217.383C369.797 218.958 370.298 220.462 370.871 221.895C371.444 223.327 372.089 224.831 372.805 226.406C374.094 229.414 375.311 232.565 376.457 235.859C377.603 239.01 378.247 242.018 378.391 244.883C376.672 248.177 375.311 251.973 374.309 256.27C373.449 260.566 372.876 264.935 372.59 269.375C372.447 273.672 372.59 277.826 373.02 281.836C373.449 285.846 374.165 289.212 375.168 291.934L376.457 295.371L381.184 294.941C386.34 293.652 390.995 292.22 395.148 290.645C399.302 288.926 403.169 286.921 406.75 284.629C410.331 282.337 413.768 279.759 417.062 276.895C420.357 273.887 423.794 270.378 427.375 266.367C430.812 262.357 433.892 257.845 436.613 252.832C439.335 247.676 441.555 242.376 443.273 236.934C445.135 231.491 446.568 226.048 447.57 220.605C448.573 215.163 449.217 210.078 449.504 205.352C452.225 204.062 453.729 201.986 454.016 199.121L453.371 196.328C452.941 195.612 452.727 194.967 452.727 194.395C452.87 193.678 453.085 193.034 453.371 192.461C454.517 189.167 456.952 186.732 460.676 185.156C463.254 186.875 465.617 188.737 467.766 190.742C470.057 192.747 472.134 194.753 473.996 196.758C474.283 200.625 474.855 203.991 475.715 206.855C476.574 209.577 477.505 212.227 478.508 214.805C479.51 217.24 480.37 219.603 481.086 221.895C481.945 224.186 482.518 226.979 482.805 230.273C481.372 234.57 480.298 238.652 479.582 242.52C479.009 246.243 478.436 250.182 477.863 254.336L477.434 256.699C474.855 261.139 472.277 265.723 469.699 270.449C467.264 275.033 465.259 279.043 463.684 282.48C462.824 283.34 462.036 284.342 461.32 285.488C460.747 286.634 460.174 287.78 459.602 288.926C459.315 289.355 458.885 290.072 458.312 291.074C457.883 292.077 457.453 292.793 457.023 293.223L451.867 291.289L450.578 297.949L447.141 298.809L444.562 301.816C441.268 307.546 437.759 312.344 434.035 316.211C430.454 320.078 426.372 323.516 421.789 326.523C417.349 329.531 412.264 332.396 406.535 335.117C400.949 337.695 394.504 340.488 387.199 343.496C384.335 343.066 381.828 342.852 379.68 342.852C377.674 342.708 375.669 342.565 373.664 342.422C371.659 342.422 369.725 342.35 367.863 342.207C366.001 342.064 363.853 341.849 361.418 341.562C360.845 340.273 360.057 339.342 359.055 338.77C358.052 338.197 357.121 337.91 356.262 337.91C353.397 336.478 351.249 334.473 349.816 331.895C348.384 329.316 346.88 326.452 345.305 323.301C344.589 321.582 343.801 319.863 342.941 318.145C342.225 316.426 341.294 314.779 340.148 313.203L344.445 311.914L338.859 305.469C338.43 305.039 337.928 304.609 337.355 304.18C336.926 303.75 336.496 303.249 336.066 302.676V298.594C335.493 286.849 335.207 276.035 335.207 266.152C335.35 256.126 336.711 247.318 339.289 239.727L339.719 238.652ZM516.105 324.805C514.673 325.951 513.814 327.454 513.527 329.316C513.241 331.035 512.883 332.754 512.453 334.473C512.023 336.191 511.236 337.695 510.09 338.984C509.087 340.13 507.225 340.632 504.504 340.488C503.931 341.204 503.788 341.634 504.074 341.777C504.504 341.921 504.862 342.565 505.148 343.711C503.143 343.424 501.711 343.568 500.852 344.141C499.992 344.714 498.918 345.143 497.629 345.43C494.335 344.427 491.542 342.637 489.25 340.059C487.102 337.337 485.168 334.401 483.449 331.25C481.874 328.099 480.441 324.876 479.152 321.582C478.007 318.288 476.789 315.423 475.5 312.988C475.5 312.415 475.786 312.201 476.359 312.344C476.789 312.344 477.219 312.344 477.648 312.344C476.932 310.911 476.431 309.336 476.145 307.617C475.715 305.755 474.999 304.251 473.996 303.105C478.15 294.225 482.59 284.987 487.316 275.391C492.043 265.651 496.77 255.84 501.496 245.957C506.366 235.931 511.164 225.905 515.891 215.879C520.76 205.71 525.415 195.755 529.855 186.016C533.866 187.448 537.733 189.167 541.457 191.172C545.324 193.034 548.833 195.254 551.984 197.832C555.135 200.41 557.785 203.418 559.934 206.855C562.225 210.15 563.729 213.945 564.445 218.242C564.159 219.102 563.801 219.388 563.371 219.102C562.941 218.815 562.583 218.958 562.297 219.531C563.013 220.391 563.371 221.035 563.371 221.465C563.514 221.751 563.514 222.109 563.371 222.539C563.228 222.826 563.156 223.255 563.156 223.828C563.156 224.401 563.514 225.189 564.23 226.191C563.514 226.048 563.013 226.191 562.727 226.621C562.44 226.908 561.939 226.908 561.223 226.621C561.939 228.626 562.154 230.202 561.867 231.348C561.581 232.493 561.151 233.568 560.578 234.57C560.005 235.43 559.504 236.432 559.074 237.578C558.788 238.581 558.931 240.013 559.504 241.875C558.931 241.875 558.501 242.018 558.215 242.305C558.072 242.448 557.928 242.663 557.785 242.949C557.642 243.236 557.427 243.522 557.141 243.809C556.997 243.952 556.639 243.952 556.066 243.809C556.496 247.533 556.639 251.328 556.496 255.195C556.353 258.919 556.21 262.786 556.066 266.797C555.923 270.664 555.923 274.674 556.066 278.828C556.21 282.982 556.783 287.279 557.785 291.719C563.944 288.138 568.885 283.483 572.609 277.754C576.477 272.025 579.484 265.651 581.633 258.633C583.924 251.615 585.643 244.095 586.789 236.074C588.078 228.053 589.367 219.889 590.656 211.582C592.232 210.007 593.449 208.073 594.309 205.781C595.311 203.49 596.099 201.126 596.672 198.691C597.388 196.257 598.033 193.822 598.605 191.387C599.322 188.809 600.253 186.517 601.398 184.512C603.977 184.798 606.125 185.586 607.844 186.875C609.706 188.021 611.424 189.382 613 190.957C614.576 192.389 616.223 193.75 617.941 195.039C619.66 196.328 621.809 197.188 624.387 197.617C626.392 200.482 628.254 203.275 629.973 205.996C631.691 208.574 632.837 211.51 633.41 214.805C632.551 216.237 631.906 217.812 631.477 219.531C631.047 221.25 630.546 222.969 629.973 224.688C629.543 226.406 628.898 227.982 628.039 229.414C627.18 230.846 625.962 232.064 624.387 233.066C623.957 237.363 623.312 241.374 622.453 245.098C621.594 248.822 620.806 252.474 620.09 256.055C619.374 259.635 618.729 263.359 618.156 267.227C617.583 271.094 617.368 275.319 617.512 279.902C616.223 284.056 614.79 288.353 613.215 292.793C611.639 297.09 610.493 301.1 609.777 304.824C607.056 306.973 604.908 309.622 603.332 312.773C601.757 315.924 600.109 319.076 598.391 322.227C597.674 322.799 597.245 322.943 597.102 322.656C596.958 322.227 596.314 321.94 595.168 321.797C595.311 323.086 595.025 323.945 594.309 324.375C593.736 324.661 593.807 325.664 594.523 327.383C592.089 328.529 589.94 330.033 588.078 331.895C586.216 333.757 584.139 335.475 581.848 337.051C579.699 338.626 577.121 339.701 574.113 340.273C571.249 340.703 567.453 340.059 562.727 338.34C555.708 333.184 549.406 327.24 543.82 320.508C538.234 313.776 533.794 305.827 530.5 296.66C529.068 297.09 527.993 298.021 527.277 299.453C526.561 300.885 525.917 302.389 525.344 303.965C524.771 305.54 524.198 306.973 523.625 308.262C523.052 309.551 522.193 310.195 521.047 310.195C520.76 311.484 520.188 312.702 519.328 313.848C518.612 314.85 517.896 315.924 517.18 317.07C516.464 318.073 515.891 319.219 515.461 320.508C515.174 321.797 515.389 323.229 516.105 324.805ZM627.824 294.082C627.824 292.507 628.039 291.074 628.469 289.785C628.898 288.496 628.97 286.849 628.684 284.844C633.124 275.391 638.137 266.654 643.723 258.633C649.452 250.469 656.255 243.307 664.133 237.148C665.422 236.146 666.424 235.143 667.141 234.141C668 232.995 668.788 231.921 669.504 230.918C670.363 229.915 671.294 229.056 672.297 228.34C673.299 227.48 674.589 226.908 676.164 226.621C679.745 222.467 684.042 218.672 689.055 215.234C694.068 211.797 699.296 208.503 704.738 205.352C710.181 202.201 715.624 198.978 721.066 195.684C726.652 192.389 731.665 188.809 736.105 184.941C737.681 185.944 738.898 186.302 739.758 186.016C740.76 185.586 741.763 185.514 742.766 185.801C744.055 188.522 745.702 190.456 747.707 191.602C749.855 192.604 752.004 193.678 754.152 194.824C756.444 195.827 758.521 197.116 760.383 198.691C762.388 200.124 763.892 202.129 764.895 204.707C763.892 204.707 763.391 205.065 763.391 205.781C763.534 206.497 763.749 207.285 764.035 208.145C764.322 209.004 764.465 209.792 764.465 210.508C764.465 211.224 763.82 211.582 762.531 211.582C762.531 212.585 763.033 213.086 764.035 213.086C765.038 213.086 765.539 213.587 765.539 214.59C765.539 215.449 765.324 216.165 764.895 216.738C764.608 217.168 764.608 217.956 764.895 219.102C761.457 221.393 757.59 223.613 753.293 225.762C749.139 227.767 744.699 229.915 739.973 232.207C735.389 234.499 730.663 237.005 725.793 239.727C721.066 242.305 716.34 245.312 711.613 248.75C706.887 252.188 702.089 255.983 697.219 260.137C692.492 264.29 687.909 268.73 683.469 273.457C679.029 278.04 674.875 282.839 671.008 287.852C667.141 292.721 663.846 297.52 661.125 302.246C661.411 302.962 661.77 303.607 662.199 304.18C662.772 304.753 663.202 305.397 663.488 306.113C668.931 306.4 674.016 306.4 678.742 306.113C683.469 305.684 688.195 305.97 692.922 306.973C693.495 306.543 693.853 305.97 693.996 305.254C694.139 304.538 694.569 304.036 695.285 303.75C705.025 302.747 714.12 301.172 722.57 299.023C731.021 296.732 739.615 294.44 748.352 292.148C745.773 291.146 743.482 290.358 741.477 289.785C740.617 288.926 740.617 288.21 741.477 287.637C742.479 286.921 743.267 286.204 743.84 285.488C741.548 284.199 739.615 282.48 738.039 280.332C736.607 278.184 735.747 275.391 735.461 271.953C736.464 271.094 736.965 270.091 736.965 268.945C736.965 267.799 736.464 266.868 735.461 266.152C734.745 265.866 734.315 265.866 734.172 266.152C734.029 266.439 733.885 266.725 733.742 267.012C733.742 267.298 733.599 267.585 733.312 267.871C733.169 268.158 732.811 268.158 732.238 267.871C732.382 266.296 732.74 265.007 733.312 264.004C733.885 263.001 734.315 261.784 734.602 260.352L752.434 248.535C754.296 249.967 756.587 251.471 759.309 253.047C762.03 254.622 764.895 256.198 767.902 257.773C770.91 259.349 773.99 260.996 777.141 262.715C780.292 264.29 783.228 265.866 785.949 267.441C788.527 268.587 790.747 270.02 792.609 271.738C794.471 273.314 796.262 275.033 797.98 276.895C799.699 278.613 801.418 280.332 803.137 282.051C804.855 283.77 806.932 285.202 809.367 286.348C809.081 288.639 809.224 290.501 809.797 291.934C810.37 293.366 810.513 295.085 810.227 297.09C807.505 301.96 804.211 306.113 800.344 309.551C796.477 312.845 792.108 315.71 787.238 318.145C782.512 320.579 777.427 322.656 771.984 324.375C766.542 325.951 760.956 327.526 755.227 329.102C749.497 330.534 743.697 332.109 737.824 333.828C732.095 335.404 726.438 337.266 720.852 339.414C718.417 339.414 716.34 339.486 714.621 339.629C712.902 339.772 711.255 339.987 709.68 340.273C708.104 340.56 706.529 340.846 704.953 341.133C703.378 341.419 701.659 341.634 699.797 341.777C699.081 341.634 698.579 341.777 698.293 342.207C698.15 342.637 697.863 342.995 697.434 343.281C694.569 343.711 691.991 343.926 689.699 343.926C687.408 343.926 685.474 343.926 683.898 343.926C681.893 343.926 679.816 344.212 677.668 344.785C675.52 345.358 673.514 345.573 671.652 345.43C658.762 344.857 648.664 340.273 641.359 331.68C634.055 323.086 630.044 311.27 629.328 296.23C629.471 295.514 629.328 295.085 628.898 294.941C628.469 294.655 628.111 294.368 627.824 294.082ZM882.844 294.082C882.844 292.507 883.059 291.074 883.488 289.785C883.918 288.496 883.99 286.849 883.703 284.844C888.143 275.391 893.156 266.654 898.742 258.633C904.471 250.469 911.275 243.307 919.152 237.148C920.441 236.146 921.444 235.143 922.16 234.141C923.02 232.995 923.807 231.921 924.523 230.918C925.383 229.915 926.314 229.056 927.316 228.34C928.319 227.48 929.608 226.908 931.184 226.621C934.764 222.467 939.061 218.672 944.074 215.234C949.087 211.797 954.315 208.503 959.758 205.352C965.201 202.201 970.643 198.978 976.086 195.684C981.672 192.389 986.685 188.809 991.125 184.941C992.701 185.944 993.918 186.302 994.777 186.016C995.78 185.586 996.783 185.514 997.785 185.801C999.074 188.522 1000.72 190.456 1002.73 191.602C1004.88 192.604 1007.02 193.678 1009.17 194.824C1011.46 195.827 1013.54 197.116 1015.4 198.691C1017.41 200.124 1018.91 202.129 1019.91 204.707C1018.91 204.707 1018.41 205.065 1018.41 205.781C1018.55 206.497 1018.77 207.285 1019.05 208.145C1019.34 209.004 1019.48 209.792 1019.48 210.508C1019.48 211.224 1018.84 211.582 1017.55 211.582C1017.55 212.585 1018.05 213.086 1019.05 213.086C1020.06 213.086 1020.56 213.587 1020.56 214.59C1020.56 215.449 1020.34 216.165 1019.91 216.738C1019.63 217.168 1019.63 217.956 1019.91 219.102C1016.48 221.393 1012.61 223.613 1008.31 225.762C1004.16 227.767 999.719 229.915 994.992 232.207C990.409 234.499 985.682 237.005 980.812 239.727C976.086 242.305 971.359 245.312 966.633 248.75C961.906 252.188 957.108 255.983 952.238 260.137C947.512 264.29 942.928 268.73 938.488 273.457C934.048 278.04 929.895 282.839 926.027 287.852C922.16 292.721 918.866 297.52 916.145 302.246C916.431 302.962 916.789 303.607 917.219 304.18C917.792 304.753 918.221 305.397 918.508 306.113C923.951 306.4 929.035 306.4 933.762 306.113C938.488 305.684 943.215 305.97 947.941 306.973C948.514 306.543 948.872 305.97 949.016 305.254C949.159 304.538 949.589 304.036 950.305 303.75C960.044 302.747 969.139 301.172 977.59 299.023C986.04 296.732 994.634 294.44 1003.37 292.148C1000.79 291.146 998.501 290.358 996.496 289.785C995.637 288.926 995.637 288.21 996.496 287.637C997.499 286.921 998.286 286.204 998.859 285.488C996.568 284.199 994.634 282.48 993.059 280.332C991.626 278.184 990.767 275.391 990.48 271.953C991.483 271.094 991.984 270.091 991.984 268.945C991.984 267.799 991.483 266.868 990.48 266.152C989.764 265.866 989.335 265.866 989.191 266.152C989.048 266.439 988.905 266.725 988.762 267.012C988.762 267.298 988.618 267.585 988.332 267.871C988.189 268.158 987.831 268.158 987.258 267.871C987.401 266.296 987.759 265.007 988.332 264.004C988.905 263.001 989.335 261.784 989.621 260.352L1007.45 248.535C1009.32 249.967 1011.61 251.471 1014.33 253.047C1017.05 254.622 1019.91 256.198 1022.92 257.773C1025.93 259.349 1029.01 260.996 1032.16 262.715C1035.31 264.29 1038.25 265.866 1040.97 267.441C1043.55 268.587 1045.77 270.02 1047.63 271.738C1049.49 273.314 1051.28 275.033 1053 276.895C1054.72 278.613 1056.44 280.332 1058.16 282.051C1059.88 283.77 1061.95 285.202 1064.39 286.348C1064.1 288.639 1064.24 290.501 1064.82 291.934C1065.39 293.366 1065.53 295.085 1065.25 297.09C1062.52 301.96 1059.23 306.113 1055.36 309.551C1051.5 312.845 1047.13 315.71 1042.26 318.145C1037.53 320.579 1032.45 322.656 1027 324.375C1021.56 325.951 1015.98 327.526 1010.25 329.102C1004.52 330.534 998.716 332.109 992.844 333.828C987.115 335.404 981.457 337.266 975.871 339.414C973.436 339.414 971.359 339.486 969.641 339.629C967.922 339.772 966.275 339.987 964.699 340.273C963.124 340.56 961.548 340.846 959.973 341.133C958.397 341.419 956.678 341.634 954.816 341.777C954.1 341.634 953.599 341.777 953.312 342.207C953.169 342.637 952.883 342.995 952.453 343.281C949.589 343.711 947.01 343.926 944.719 343.926C942.427 343.926 940.493 343.926 938.918 343.926C936.913 343.926 934.836 344.212 932.688 344.785C930.539 345.358 928.534 345.573 926.672 345.43C913.781 344.857 903.684 340.273 896.379 331.68C889.074 323.086 885.064 311.27 884.348 296.23C884.491 295.514 884.348 295.085 883.918 294.941C883.488 294.655 883.13 294.368 882.844 294.082ZM1062.45 326.523C1061.74 326.667 1061.09 326.165 1060.52 325.02C1059.95 323.73 1059.3 322.513 1058.59 321.367H1060.95C1059.95 318.216 1059.66 315.352 1060.09 312.773C1060.66 310.052 1061.31 307.474 1062.02 305.039C1062.74 302.461 1063.31 300.026 1063.74 297.734C1064.32 295.299 1064.1 292.793 1063.1 290.215C1063.81 290.645 1064.32 290.501 1064.6 289.785C1065.03 288.926 1065.32 287.923 1065.46 286.777C1065.75 285.488 1065.82 284.199 1065.68 282.91C1065.68 281.478 1065.6 280.332 1065.46 279.473C1067.32 275.033 1068.76 270.449 1069.76 265.723C1070.9 260.996 1071.91 256.341 1072.77 251.758C1073.62 247.031 1074.56 242.52 1075.56 238.223C1076.7 233.783 1078.14 229.629 1079.86 225.762C1081.86 225.475 1083.94 225.762 1086.09 226.621C1088.38 227.337 1089.88 228.268 1090.6 229.414C1095.04 225.977 1098.98 221.823 1102.41 216.953C1105.85 212.083 1109.29 207.357 1112.73 202.773C1116.31 198.047 1120.32 193.893 1124.76 190.312C1129.2 186.732 1134.71 184.583 1141.3 183.867C1144.74 186.302 1148.61 188.952 1152.9 191.816C1157.2 194.538 1160.71 197.975 1163.43 202.129C1164.58 202.845 1165.65 203.633 1166.65 204.492C1167.8 205.208 1168.94 205.924 1170.09 206.641V209.863C1172.1 211.725 1173.74 213.945 1175.03 216.523C1176.46 218.958 1177.68 221.608 1178.68 224.473C1179.83 227.194 1180.9 229.987 1181.91 232.852C1182.91 235.716 1184.05 238.366 1185.34 240.801C1185.06 241.66 1184.91 242.448 1184.91 243.164C1185.06 243.737 1185.2 244.382 1185.34 245.098C1185.63 245.671 1185.85 246.387 1185.99 247.246C1186.13 247.962 1186.2 248.893 1186.2 250.039C1185.63 257.63 1183.12 263.789 1178.68 268.516C1174.39 273.099 1169.09 276.895 1162.79 279.902C1156.63 282.767 1150.04 285.273 1143.02 287.422C1136 289.427 1129.63 291.647 1123.9 294.082C1123.9 294.655 1124.18 294.941 1124.76 294.941C1125.47 294.941 1125.69 295.371 1125.4 296.23C1129.7 298.809 1132.99 300.885 1135.29 302.461C1137.72 304.036 1139.94 305.397 1141.95 306.543C1144.09 307.546 1146.39 308.405 1148.82 309.121C1151.4 309.837 1154.91 310.697 1159.35 311.699C1163.79 312.702 1167.23 313.561 1169.66 314.277C1172.24 314.85 1174.53 315.352 1176.54 315.781C1178.54 316.068 1180.69 316.354 1182.98 316.641C1185.27 316.927 1188.35 317.285 1192.22 317.715C1193.79 319.29 1195.08 321.152 1196.09 323.301C1197.09 325.449 1197.8 327.598 1198.23 329.746C1198.66 331.895 1198.74 333.971 1198.45 335.977C1198.31 337.839 1197.73 339.342 1196.73 340.488C1196.87 341.061 1197.23 341.348 1197.8 341.348C1198.52 341.204 1199.24 341.204 1199.95 341.348C1198.95 342.064 1198.09 342.923 1197.38 343.926C1196.66 344.928 1195.94 345.931 1195.23 346.934C1194.51 347.936 1193.65 348.867 1192.65 349.727C1191.79 350.586 1190.64 351.087 1189.21 351.23C1184.05 353.236 1177.47 353.307 1169.45 351.445C1161.42 349.583 1151.18 346.289 1138.72 341.562C1132.56 339.271 1127.55 337.194 1123.68 335.332C1119.82 333.47 1116.45 331.68 1113.59 329.961C1110.72 328.099 1108.07 326.165 1105.64 324.16C1103.2 322.012 1100.41 319.505 1097.26 316.641C1096.83 316.784 1096.54 317.07 1096.4 317.5C1096.4 317.93 1096.18 318.216 1095.75 318.359C1095.04 324.089 1093.89 328.743 1092.32 332.324C1090.88 335.905 1088.74 339.557 1085.87 343.281C1083.58 342.852 1082 343.066 1081.14 343.926C1080.43 344.785 1079.5 345.573 1078.35 346.289C1076.92 346.576 1075.85 346.504 1075.13 346.074C1074.41 345.788 1073.77 345.43 1073.2 345C1072.62 344.57 1071.98 344.141 1071.26 343.711C1070.55 343.281 1069.4 343.138 1067.82 343.281C1067.39 341.992 1066.96 340.775 1066.54 339.629C1066.11 338.34 1064.96 337.767 1063.1 337.91C1063.53 336.621 1063.67 335.547 1063.53 334.688C1063.38 333.685 1063.17 332.826 1062.88 332.109C1062.6 331.25 1062.31 330.391 1062.02 329.531C1061.88 328.672 1062.02 327.669 1062.45 326.523ZM1134.21 228.34C1132.35 231.061 1130.27 233.568 1127.98 235.859C1125.69 238.008 1123.4 240.299 1121.11 242.734C1118.96 245.026 1117.02 247.604 1115.3 250.469C1113.59 253.19 1112.37 256.484 1111.65 260.352C1117.67 259.635 1123.97 257.988 1130.56 255.41C1137.15 252.689 1143.38 250.111 1149.25 247.676C1148.53 242.376 1146.67 238.151 1143.66 235C1140.66 231.706 1137.51 229.486 1134.21 228.34ZM1193.08 324.59L1195.87 322.441L1196.09 317.93C1199.67 309.193 1203.32 300.814 1207.04 292.793C1210.91 284.772 1214.92 276.536 1219.07 268.086C1220.36 265.365 1221.65 262.643 1222.94 259.922C1224.37 257.201 1225.73 254.408 1227.02 251.543C1226.88 250.97 1226.81 250.397 1226.81 249.824C1226.81 249.108 1226.95 248.32 1227.24 247.461C1229.24 244.596 1230.82 242.018 1231.96 239.727C1233.25 237.435 1234.47 235.072 1235.62 232.637C1236.91 229.772 1238.27 226.908 1239.7 224.043C1241.27 221.178 1243.21 218.385 1245.5 215.664L1247 213.516L1249.37 213.73C1249.94 213.444 1250.51 213.229 1251.09 213.086C1251.8 212.799 1252.66 212.656 1253.66 212.656L1257.53 213.301C1262.26 211.152 1266.41 208.073 1269.99 204.062C1273.72 199.909 1277.44 194.967 1281.16 189.238L1283.74 185.586L1287.18 187.734C1287.9 188.164 1289.04 188.594 1290.62 189.023C1292.19 189.453 1293.84 189.954 1295.56 190.527C1298.57 191.243 1301.5 192.103 1304.37 193.105C1307.23 193.965 1309.45 195.182 1311.03 196.758L1312.1 198.691C1312.39 200.267 1312.6 201.699 1312.75 202.988C1313.03 204.277 1313.32 205.566 1313.61 206.855C1314.18 209.863 1314.68 212.871 1315.11 215.879C1315.54 218.743 1315.83 221.966 1315.97 225.547C1316.68 228.411 1317.33 231.348 1317.9 234.355C1318.62 237.22 1319.26 240.085 1319.84 242.949C1320.55 247.103 1321.34 251.113 1322.2 254.98C1323.06 258.704 1324.2 262.285 1325.64 265.723C1327.07 265.723 1327.93 265.794 1328.21 265.938C1329.93 265.221 1331.94 264.792 1334.23 264.648L1337.02 264.434L1337.88 267.012C1338.17 267.441 1338.53 267.871 1338.96 268.301C1339.39 268.73 1339.89 269.16 1340.46 269.59C1342.75 269.733 1344.4 270.234 1345.4 271.094C1346.55 271.81 1347.48 272.526 1348.2 273.242C1348.48 273.529 1348.84 273.887 1349.27 274.316C1349.7 274.603 1350.06 274.818 1350.34 274.961L1354.21 276.465L1352.06 280.547C1350.49 283.555 1348.05 286.491 1344.76 289.355C1341.61 292.22 1338.03 294.583 1334.02 296.445C1334.3 297.448 1334.45 298.379 1334.45 299.238C1334.59 300.098 1334.8 301.1 1335.09 302.246C1335.66 305.111 1336.09 308.118 1336.38 311.27C1336.81 314.277 1336.81 317.428 1336.38 320.723C1334.95 324.447 1333.23 327.812 1331.22 330.82C1329.36 333.685 1327.07 336.335 1324.35 338.77C1321.77 341.061 1318.83 342.995 1315.54 344.57C1312.24 346.003 1308.81 346.79 1305.23 346.934C1303.22 346.504 1301.72 346.003 1300.71 345.43C1299.86 344.857 1299.07 344.284 1298.35 343.711C1297.21 342.852 1296.27 342.279 1295.56 341.992L1292.77 340.703L1293.62 337.48C1294.05 336.335 1293.98 335.332 1293.41 334.473C1292.98 333.613 1291.98 332.467 1290.4 331.035C1289.83 330.605 1289.33 330.176 1288.9 329.746C1288.47 329.173 1287.97 328.6 1287.39 328.027L1283.1 323.086L1290.19 321.152C1294.48 320.007 1297.35 318.574 1298.78 316.855C1300.21 314.993 1300.79 311.771 1300.5 307.188C1296.92 306.471 1293.98 306.4 1291.69 306.973C1289.4 307.402 1287.11 307.904 1284.82 308.477C1281.52 309.336 1278.3 310.124 1275.15 310.84C1272 311.413 1268.56 311.699 1264.84 311.699C1262.4 311.699 1259.82 311.484 1257.1 311.055L1254.74 310.84L1254.09 308.477C1254.09 308.19 1253.88 307.904 1253.45 307.617C1253.16 307.188 1252.88 306.829 1252.59 306.543C1251.87 305.684 1251.01 304.538 1250.01 303.105C1249.01 301.673 1248.79 299.883 1249.37 297.734C1248.36 296.159 1247.79 294.512 1247.65 292.793C1247.08 293.939 1246.57 295.085 1246.14 296.23C1245.86 297.233 1245.57 298.236 1245.29 299.238L1244.43 302.031L1241.63 302.461C1241.35 302.747 1241.06 303.177 1240.77 303.75C1240.63 304.323 1240.63 304.753 1240.77 305.039L1241.63 307.402L1239.48 309.336C1239.2 309.766 1238.84 310.124 1238.41 310.41C1237.98 310.697 1237.62 310.983 1237.34 311.27C1237.05 312.845 1236.62 314.349 1236.05 315.781C1235.62 317.214 1235.12 318.646 1234.54 320.078C1233.83 322.37 1233.11 324.59 1232.39 326.738C1231.82 328.887 1231.54 331.035 1231.54 333.184L1230.68 335.977C1229.96 337.122 1229.03 337.982 1227.88 338.555C1226.88 339.128 1225.88 339.629 1224.88 340.059C1223.44 340.632 1222.44 341.204 1221.87 341.777L1221.22 344.57L1218 345C1216.14 345.43 1214.78 345.716 1213.92 345.859C1213.2 346.003 1212.34 346.074 1211.34 346.074L1208.55 345.859C1206.83 344.141 1205.4 342.852 1204.25 341.992C1203.25 340.99 1202.03 340.13 1200.6 339.414L1199.31 337.695C1198.74 336.549 1198.38 335.547 1198.23 334.688C1198.09 333.685 1197.88 332.682 1197.59 331.68C1197.3 329.818 1196.87 328.529 1196.3 327.812L1193.08 324.59ZM1261.61 268.73C1259.61 271.595 1257.67 274.603 1255.81 277.754C1256.82 277.611 1257.75 277.539 1258.61 277.539C1259.61 277.539 1260.61 277.467 1261.61 277.324C1266.63 277.038 1271.28 276.68 1275.58 276.25C1279.88 275.82 1284.53 275.104 1289.54 274.102C1288.4 268.802 1287.11 263.431 1285.68 257.988C1284.39 252.402 1282.95 246.816 1281.38 241.23L1280.3 243.379C1276.72 247.246 1273.29 251.4 1269.99 255.84C1266.7 260.28 1263.98 264.505 1261.83 268.516L1261.61 268.73ZM1374.19 347.363C1370.04 346.361 1366.82 344.714 1364.52 342.422C1362.38 339.987 1360.73 337.194 1359.58 334.043C1358.58 330.749 1357.86 327.168 1357.43 323.301C1357.15 319.434 1356.79 315.423 1356.36 311.27C1356.93 309.408 1357.65 307.832 1358.51 306.543C1359.51 305.254 1359.94 303.464 1359.8 301.172C1361.37 296.589 1362.8 292.148 1364.09 287.852C1365.38 283.555 1366.24 279.115 1366.67 274.531C1367.53 273.242 1368.39 272.383 1369.25 271.953C1370.4 263.789 1370.54 255.41 1369.68 246.816C1368.82 238.223 1367.39 230.273 1365.38 222.969C1365.53 221.393 1365.74 220.247 1366.03 219.531C1366.31 218.672 1366.31 217.956 1366.03 217.383C1365.74 216.094 1366.17 215.449 1367.32 215.449C1368.46 215.449 1369.61 215.449 1370.75 215.449C1370.75 212.871 1370.25 210.365 1369.25 207.93C1368.39 205.352 1367.53 202.415 1366.67 199.121C1367.82 196.543 1368.61 194.036 1369.04 191.602C1369.46 189.167 1370.25 186.947 1371.4 184.941C1375.98 186.374 1380.49 188.021 1384.93 189.883C1389.37 191.745 1393.74 193.607 1398.04 195.469C1402.34 197.188 1406.56 198.906 1410.71 200.625C1414.87 202.201 1418.95 203.49 1422.96 204.492C1429.12 208.932 1435.42 213.372 1441.87 217.812C1448.46 222.109 1454.4 226.908 1459.7 232.207C1465.14 237.363 1469.65 243.307 1473.23 250.039C1476.82 256.771 1478.89 264.72 1479.46 273.887C1479.18 274.746 1478.96 275.462 1478.82 276.035C1478.68 276.608 1478.53 277.181 1478.39 277.754C1478.25 278.327 1478.18 278.971 1478.18 279.688C1478.18 280.404 1478.18 281.406 1478.18 282.695C1473.02 291.719 1466.5 299.31 1458.62 305.469C1450.75 311.628 1442.15 317.07 1432.84 321.797C1423.53 326.523 1413.79 330.892 1403.62 334.902C1393.6 338.77 1383.79 342.923 1374.19 347.363ZM1395.25 225.547C1393.96 225.547 1393.03 225.833 1392.45 226.406C1394.17 232.852 1395.46 238.939 1396.32 244.668C1397.18 250.397 1397.61 256.126 1397.61 261.855C1397.75 267.585 1397.47 273.457 1396.75 279.473C1396.03 285.488 1395.03 292.005 1393.74 299.023C1395.6 298.88 1397.25 298.522 1398.68 297.949C1400.12 297.376 1401.55 296.732 1402.98 296.016C1404.56 295.299 1406.13 294.655 1407.71 294.082C1409.43 293.509 1411.36 293.151 1413.51 293.008C1414.08 291.862 1414.8 291.003 1415.66 290.43C1416.66 289.714 1417.52 288.997 1418.23 288.281C1421.82 286.849 1425.4 285.345 1428.98 283.77C1432.56 282.194 1435.85 280.404 1438.86 278.398C1441.87 276.393 1444.59 274.102 1447.02 271.523C1449.46 268.945 1451.46 265.866 1453.04 262.285C1451.89 260.137 1450.46 258.346 1448.74 256.914C1447.17 255.339 1445.45 253.835 1443.59 252.402C1441.87 250.827 1440.15 249.251 1438.43 247.676C1436.85 245.957 1435.57 244.023 1434.56 241.875C1432.27 241.589 1430.27 241.016 1428.55 240.156C1426.83 239.154 1425.18 238.223 1423.61 237.363C1422.03 236.361 1420.31 235.43 1418.45 234.57C1416.73 233.711 1414.65 233.21 1412.22 233.066C1408.49 231.061 1405.13 229.701 1402.12 228.984C1399.11 228.125 1396.82 226.979 1395.25 225.547ZM1496.01 238.652C1495.72 236.79 1495.36 235.645 1494.93 235.215C1495.94 232.637 1496.65 230.13 1497.08 227.695C1497.65 225.117 1498.08 222.682 1498.37 220.391C1498.66 218.385 1498.94 216.523 1499.23 214.805C1499.66 213.086 1500.16 211.439 1500.73 209.863C1503.17 209.29 1504.96 208.288 1506.11 206.855C1507.39 205.28 1508.4 203.919 1509.11 202.773C1511.69 202.63 1513.34 202.988 1514.05 203.848C1514.91 204.707 1515.85 206.139 1516.85 208.145C1517.56 209.72 1518.57 211.439 1519.86 213.301C1521.14 215.02 1523.08 216.38 1525.66 217.383C1526.09 218.958 1526.59 220.462 1527.16 221.895C1527.73 223.327 1528.38 224.831 1529.09 226.406C1530.38 229.414 1531.6 232.565 1532.75 235.859C1533.89 239.01 1534.54 242.018 1534.68 244.883C1532.96 248.177 1531.6 251.973 1530.6 256.27C1529.74 260.566 1529.17 264.935 1528.88 269.375C1528.74 273.672 1528.88 277.826 1529.31 281.836C1529.74 285.846 1530.45 289.212 1531.46 291.934L1532.75 295.371L1537.47 294.941C1542.63 293.652 1547.28 292.22 1551.44 290.645C1555.59 288.926 1559.46 286.921 1563.04 284.629C1566.62 282.337 1570.06 279.759 1573.35 276.895C1576.65 273.887 1580.08 270.378 1583.66 266.367C1587.1 262.357 1590.18 257.845 1592.9 252.832C1595.62 247.676 1597.84 242.376 1599.56 236.934C1601.42 231.491 1602.86 226.048 1603.86 220.605C1604.86 215.163 1605.51 210.078 1605.79 205.352C1608.51 204.062 1610.02 201.986 1610.3 199.121L1609.66 196.328C1609.23 195.612 1609.02 194.967 1609.02 194.395C1609.16 193.678 1609.37 193.034 1609.66 192.461C1610.81 189.167 1613.24 186.732 1616.96 185.156C1619.54 186.875 1621.91 188.737 1624.05 190.742C1626.35 192.747 1628.42 194.753 1630.29 196.758C1630.57 200.625 1631.14 203.991 1632 206.855C1632.86 209.577 1633.79 212.227 1634.8 214.805C1635.8 217.24 1636.66 219.603 1637.38 221.895C1638.23 224.186 1638.81 226.979 1639.09 230.273C1637.66 234.57 1636.59 238.652 1635.87 242.52C1635.3 246.243 1634.73 250.182 1634.15 254.336L1633.72 256.699C1631.14 261.139 1628.57 265.723 1625.99 270.449C1623.55 275.033 1621.55 279.043 1619.97 282.48C1619.11 283.34 1618.33 284.342 1617.61 285.488C1617.04 286.634 1616.46 287.78 1615.89 288.926C1615.6 289.355 1615.17 290.072 1614.6 291.074C1614.17 292.077 1613.74 292.793 1613.31 293.223L1608.16 291.289L1606.87 297.949L1603.43 298.809L1600.85 301.816C1597.56 307.546 1594.05 312.344 1590.32 316.211C1586.74 320.078 1582.66 323.516 1578.08 326.523C1573.64 329.531 1568.55 332.396 1562.82 335.117C1557.24 337.695 1550.79 340.488 1543.49 343.496C1540.62 343.066 1538.12 342.852 1535.97 342.852C1533.96 342.708 1531.96 342.565 1529.95 342.422C1527.95 342.422 1526.01 342.35 1524.15 342.207C1522.29 342.064 1520.14 341.849 1517.71 341.562C1517.13 340.273 1516.35 339.342 1515.34 338.77C1514.34 338.197 1513.41 337.91 1512.55 337.91C1509.69 336.478 1507.54 334.473 1506.11 331.895C1504.67 329.316 1503.17 326.452 1501.59 323.301C1500.88 321.582 1500.09 319.863 1499.23 318.145C1498.51 316.426 1497.58 314.779 1496.44 313.203L1500.73 311.914L1495.15 305.469C1494.72 305.039 1494.22 304.609 1493.64 304.18C1493.21 303.75 1492.79 303.249 1492.36 302.676V298.594C1491.78 286.849 1491.5 276.035 1491.5 266.152C1491.64 256.126 1493 247.318 1495.58 239.727L1496.01 238.652ZM1621.26 324.59L1624.05 322.441L1624.27 317.93C1627.85 309.193 1631.5 300.814 1635.23 292.793C1639.09 284.772 1643.1 276.536 1647.26 268.086C1648.55 265.365 1649.84 262.643 1651.12 259.922C1652.56 257.201 1653.92 254.408 1655.21 251.543C1655.06 250.97 1654.99 250.397 1654.99 249.824C1654.99 249.108 1655.14 248.32 1655.42 247.461C1657.43 244.596 1659 242.018 1660.15 239.727C1661.44 237.435 1662.65 235.072 1663.8 232.637C1665.09 229.772 1666.45 226.908 1667.88 224.043C1669.46 221.178 1671.39 218.385 1673.68 215.664L1675.19 213.516L1677.55 213.73C1678.12 213.444 1678.7 213.229 1679.27 213.086C1679.99 212.799 1680.85 212.656 1681.85 212.656L1685.71 213.301C1690.44 211.152 1694.6 208.073 1698.18 204.062C1701.9 199.909 1705.62 194.967 1709.35 189.238L1711.93 185.586L1715.36 187.734C1716.08 188.164 1717.23 188.594 1718.8 189.023C1720.38 189.453 1722.02 189.954 1723.74 190.527C1726.75 191.243 1729.69 192.103 1732.55 193.105C1735.42 193.965 1737.64 195.182 1739.21 196.758L1740.29 198.691C1740.57 200.267 1740.79 201.699 1740.93 202.988C1741.22 204.277 1741.5 205.566 1741.79 206.855C1742.36 209.863 1742.86 212.871 1743.29 215.879C1743.72 218.743 1744.01 221.966 1744.15 225.547C1744.87 228.411 1745.51 231.348 1746.09 234.355C1746.8 237.22 1747.45 240.085 1748.02 242.949C1748.74 247.103 1749.52 251.113 1750.38 254.98C1751.24 258.704 1752.39 262.285 1753.82 265.723C1755.25 265.723 1756.11 265.794 1756.4 265.938C1758.12 265.221 1760.12 264.792 1762.41 264.648L1765.21 264.434L1766.07 267.012C1766.35 267.441 1766.71 267.871 1767.14 268.301C1767.57 268.73 1768.07 269.16 1768.64 269.59C1770.94 269.733 1772.58 270.234 1773.59 271.094C1774.73 271.81 1775.66 272.526 1776.38 273.242C1776.67 273.529 1777.02 273.887 1777.45 274.316C1777.88 274.603 1778.24 274.818 1778.53 274.961L1782.39 276.465L1780.25 280.547C1778.67 283.555 1776.24 286.491 1772.94 289.355C1769.79 292.22 1766.21 294.583 1762.2 296.445C1762.49 297.448 1762.63 298.379 1762.63 299.238C1762.77 300.098 1762.99 301.1 1763.27 302.246C1763.85 305.111 1764.28 308.118 1764.56 311.27C1764.99 314.277 1764.99 317.428 1764.56 320.723C1763.13 324.447 1761.41 327.812 1759.41 330.82C1757.54 333.685 1755.25 336.335 1752.53 338.77C1749.95 341.061 1747.02 342.995 1743.72 344.57C1740.43 346.003 1736.99 346.79 1733.41 346.934C1731.4 346.504 1729.9 346.003 1728.9 345.43C1728.04 344.857 1727.25 344.284 1726.54 343.711C1725.39 342.852 1724.46 342.279 1723.74 341.992L1720.95 340.703L1721.81 337.48C1722.24 336.335 1722.17 335.332 1721.59 334.473C1721.16 333.613 1720.16 332.467 1718.59 331.035C1718.01 330.605 1717.51 330.176 1717.08 329.746C1716.65 329.173 1716.15 328.6 1715.58 328.027L1711.28 323.086L1718.37 321.152C1722.67 320.007 1725.53 318.574 1726.96 316.855C1728.4 314.993 1728.97 311.771 1728.68 307.188C1725.1 306.471 1722.17 306.4 1719.88 306.973C1717.58 307.402 1715.29 307.904 1713 308.477C1709.71 309.336 1706.48 310.124 1703.33 310.84C1700.18 311.413 1696.74 311.699 1693.02 311.699C1690.58 311.699 1688.01 311.484 1685.29 311.055L1682.92 310.84L1682.28 308.477C1682.28 308.19 1682.06 307.904 1681.63 307.617C1681.35 307.188 1681.06 306.829 1680.77 306.543C1680.06 305.684 1679.2 304.538 1678.2 303.105C1677.19 301.673 1676.98 299.883 1677.55 297.734C1676.55 296.159 1675.98 294.512 1675.83 292.793C1675.26 293.939 1674.76 295.085 1674.33 296.23C1674.04 297.233 1673.76 298.236 1673.47 299.238L1672.61 302.031L1669.82 302.461C1669.53 302.747 1669.24 303.177 1668.96 303.75C1668.81 304.323 1668.81 304.753 1668.96 305.039L1669.82 307.402L1667.67 309.336C1667.38 309.766 1667.02 310.124 1666.59 310.41C1666.16 310.697 1665.81 310.983 1665.52 311.27C1665.23 312.845 1664.8 314.349 1664.23 315.781C1663.8 317.214 1663.3 318.646 1662.73 320.078C1662.01 322.37 1661.29 324.59 1660.58 326.738C1660.01 328.887 1659.72 331.035 1659.72 333.184L1658.86 335.977C1658.14 337.122 1657.21 337.982 1656.07 338.555C1655.06 339.128 1654.06 339.629 1653.06 340.059C1651.63 340.632 1650.62 341.204 1650.05 341.777L1649.41 344.57L1646.18 345C1644.32 345.43 1642.96 345.716 1642.1 345.859C1641.39 346.003 1640.53 346.074 1639.52 346.074L1636.73 345.859C1635.01 344.141 1633.58 342.852 1632.43 341.992C1631.43 340.99 1630.21 340.13 1628.78 339.414L1627.49 337.695C1626.92 336.549 1626.56 335.547 1626.42 334.688C1626.27 333.685 1626.06 332.682 1625.77 331.68C1625.49 329.818 1625.06 328.529 1624.48 327.812L1621.26 324.59ZM1689.8 268.73C1687.79 271.595 1685.86 274.603 1684 277.754C1685 277.611 1685.93 277.539 1686.79 277.539C1687.79 277.539 1688.79 277.467 1689.8 277.324C1694.81 277.038 1699.46 276.68 1703.76 276.25C1708.06 275.82 1712.71 275.104 1717.73 274.102C1716.58 268.802 1715.29 263.431 1713.86 257.988C1712.57 252.402 1711.14 246.816 1709.56 241.23L1708.49 243.379C1704.91 247.246 1701.47 251.4 1698.18 255.84C1694.88 260.28 1692.16 264.505 1690.01 268.516L1689.8 268.73ZM1775.09 223.828C1774.95 222.682 1774.66 221.68 1774.23 220.82C1773.94 219.818 1773.59 218.743 1773.16 217.598C1772.44 215.879 1771.8 214.017 1771.22 212.012C1770.65 210.007 1770.36 207.643 1770.36 204.922C1770.65 203.49 1771.01 202.487 1771.44 201.914C1771.87 201.198 1772.3 200.625 1772.73 200.195L1773.59 196.328H1776.81C1777.95 196.471 1779.1 196.543 1780.25 196.543C1781.54 196.543 1782.75 196.543 1783.9 196.543C1789.34 196.543 1794.93 196.328 1800.66 195.898C1806.39 195.469 1812.26 194.967 1818.27 194.395C1824.86 193.535 1831.95 192.891 1839.54 192.461C1840.26 190.885 1840.69 189.883 1840.83 189.453C1841.12 189.023 1841.4 188.522 1841.69 187.949L1844.05 186.66C1847.35 186.517 1849.64 186.947 1850.93 187.949C1852.22 188.809 1853.22 189.668 1853.94 190.527C1857.66 190.241 1861.46 189.883 1865.32 189.453C1869.19 188.88 1873.2 188.307 1877.36 187.734C1883.08 187.018 1888.89 186.302 1894.76 185.586C1900.63 184.87 1906.36 184.512 1911.95 184.512C1914.38 184.512 1916.67 184.583 1918.82 184.727C1920.97 184.87 1923.05 185.085 1925.05 185.371L1927.63 187.305C1928.2 188.307 1928.92 189.238 1929.78 190.098C1930.64 190.957 1931.64 191.816 1932.79 192.676C1934.93 194.395 1937.01 196.543 1939.02 199.121C1941.16 201.699 1941.95 205.495 1941.38 210.508L1940.3 212.656C1939.73 213.229 1939.02 213.802 1938.16 214.375L1936.01 217.168H1933.64C1932.21 217.168 1931.14 217.311 1930.42 217.598C1929.71 217.741 1928.85 218.027 1927.84 218.457C1927.27 218.743 1926.63 219.03 1925.91 219.316C1925.19 219.46 1924.41 219.674 1923.55 219.961C1921.97 219.818 1920.75 219.746 1919.89 219.746C1919.04 219.746 1918.03 219.746 1916.89 219.746C1912.59 219.746 1907.93 220.033 1902.92 220.605C1897.91 221.178 1893.04 221.823 1888.31 222.539C1884.88 222.969 1881.58 223.398 1878.43 223.828C1875.28 224.115 1872.41 224.401 1869.84 224.688C1868.4 228.411 1867.11 231.706 1865.97 234.57C1864.82 237.435 1863.61 240.299 1862.32 243.164C1861.03 246.029 1859.81 248.965 1858.66 251.973C1857.52 254.837 1856.44 258.06 1855.44 261.641C1853.72 264.219 1852.29 266.725 1851.14 269.16C1850 271.452 1849.07 274.102 1848.35 277.109C1846.2 279.544 1844.63 282.194 1843.62 285.059C1842.77 287.923 1841.98 290.358 1841.26 292.363L1840.4 295.586C1839.4 296.589 1838.76 297.376 1838.47 297.949C1838.33 298.522 1837.97 299.167 1837.39 299.883C1836.96 301.745 1836.39 303.535 1835.68 305.254C1835.39 305.97 1835.1 306.758 1834.82 307.617C1834.53 308.333 1834.46 308.906 1834.6 309.336C1834.32 310.911 1833.89 312.129 1833.31 312.988C1833.31 313.848 1833.24 314.707 1833.1 315.566C1832.95 316.426 1832.81 317.285 1832.67 318.145C1832.38 319.147 1832.17 320.078 1832.02 320.938C1831.88 321.654 1831.95 322.37 1832.24 323.086C1832.67 323.659 1833.1 324.232 1833.53 324.805C1833.96 325.378 1834.32 326.094 1834.6 326.953C1834.89 327.24 1835.25 327.454 1835.68 327.598C1836.11 327.741 1836.46 327.956 1836.75 328.242C1837.9 329.245 1838.97 329.818 1839.97 329.961L1842.12 332.539C1842.98 337.695 1842.19 341.706 1839.76 344.57C1837.18 347.865 1832.88 349.512 1826.87 349.512L1823.86 349.297C1822.86 348.294 1822.28 347.65 1822.14 347.363C1820.85 346.79 1819.78 346.289 1818.92 345.859C1818.06 345.573 1817.27 344.928 1816.55 343.926C1816.27 343.639 1815.91 343.496 1815.48 343.496C1815.05 343.353 1814.69 343.138 1814.41 342.852C1812.97 342.422 1811.83 341.921 1810.97 341.348L1808.61 340.059C1808.75 338.626 1808.82 337.624 1808.82 337.051C1807.67 335.475 1806.74 333.757 1806.03 331.895C1805.45 330.033 1804.95 328.099 1804.52 326.094C1804.09 324.518 1803.66 323.086 1803.23 321.797C1802.95 320.508 1802.45 319.362 1801.73 318.359C1801.44 308.333 1802.38 299.954 1804.52 293.223C1806.67 286.348 1809.04 279.688 1811.61 273.242C1813.05 269.805 1814.41 266.296 1815.7 262.715C1816.98 259.134 1818.13 255.482 1819.13 251.758L1821.5 249.395C1822.5 248.535 1823.14 248.034 1823.43 247.891C1823.43 246.029 1823.79 244.238 1824.5 242.52C1825.22 240.658 1826.01 238.796 1826.87 236.934C1827.44 235.788 1827.94 234.642 1828.37 233.496C1828.94 232.35 1829.3 231.348 1829.45 230.488C1828.44 230.488 1827.51 230.56 1826.65 230.703C1825.94 230.703 1825.15 230.775 1824.29 230.918C1822.43 231.348 1820.64 231.562 1818.92 231.562C1817.63 231.562 1816.7 231.491 1816.12 231.348C1814.98 231.921 1813.9 232.279 1812.9 232.422C1811.9 232.422 1810.9 232.422 1809.89 232.422H1807.32H1804.74C1803.02 232.422 1801.66 232.637 1800.66 233.066C1798.65 233.066 1797.36 233.066 1796.79 233.066C1796.22 233.066 1795.57 233.066 1794.86 233.066H1792.28H1789.7C1788.55 233.066 1787.26 232.995 1785.83 232.852C1784.4 232.565 1782.9 231.992 1781.32 231.133L1779.82 229.414C1778.96 227.839 1778.17 226.979 1777.45 226.836L1775.09 226.191V223.828ZM1916.03 337.695C1914.88 336.549 1914.02 335.189 1913.45 333.613C1913.02 332.038 1911.87 330.749 1910.01 329.746C1909.73 327.598 1909.3 325.163 1908.72 322.441C1908.29 319.577 1907.79 316.712 1907.22 313.848C1906.79 310.84 1906.43 307.904 1906.14 305.039C1906 302.031 1906.14 299.31 1906.57 296.875C1906.86 295.586 1907.29 294.368 1907.86 293.223C1908.58 292.077 1909.22 291.003 1909.8 290C1910.51 288.854 1911.01 287.708 1911.3 286.562C1911.73 285.417 1911.8 284.271 1911.52 283.125C1912.38 282.982 1912.88 282.552 1913.02 281.836C1913.31 280.977 1914.02 280.69 1915.17 280.977C1916.17 277.826 1917.24 274.889 1918.39 272.168C1919.54 269.447 1920.75 266.797 1922.04 264.219C1923.33 261.641 1924.62 259.062 1925.91 256.484C1927.34 253.763 1928.63 250.755 1929.78 247.461C1927.34 245.169 1925.55 242.734 1924.41 240.156C1923.4 237.435 1922.62 234.714 1922.04 231.992C1921.47 229.271 1921.04 226.549 1920.75 223.828C1920.47 220.964 1919.89 218.099 1919.04 215.234C1920.75 212.656 1922.83 210.579 1925.27 209.004C1927.7 207.285 1930.35 205.924 1933.21 204.922C1936.22 203.776 1939.45 202.917 1942.88 202.344C1946.32 201.628 1949.97 200.84 1953.84 199.98C1960.71 197.832 1966.87 196.185 1972.32 195.039C1977.76 193.75 1983.06 192.747 1988.21 192.031C1993.37 191.172 1998.74 190.456 2004.33 189.883C2009.91 189.167 2016.36 188.164 2023.66 186.875C2023.81 187.305 2024.02 187.52 2024.31 187.52C2024.74 187.52 2025.24 187.52 2025.81 187.52C2026.24 188.522 2027.03 189.023 2028.18 189.023C2028.18 188.594 2028.1 188.236 2027.96 187.949C2027.96 187.52 2027.96 187.161 2027.96 186.875C2028.25 186.875 2028.61 186.947 2029.04 187.09C2029.61 187.233 2030.04 187.376 2030.32 187.52C2030.75 187.663 2031.11 187.663 2031.4 187.52C2031.68 187.233 2031.76 186.732 2031.61 186.016C2033.33 189.023 2035.55 191.53 2038.27 193.535C2040.99 195.397 2044 197.044 2047.3 198.477C2047.44 199.766 2047.44 200.697 2047.3 201.27C2047.3 201.842 2047.23 202.415 2047.08 202.988C2046.94 203.418 2046.87 203.991 2046.87 204.707C2046.87 205.28 2047.01 206.139 2047.3 207.285C2045.01 211.152 2042.36 214.16 2039.35 216.309C2036.48 218.457 2033.4 220.104 2030.11 221.25C2026.82 222.396 2023.31 223.255 2019.58 223.828C2016 224.401 2012.28 225.046 2008.41 225.762C2004.69 226.335 2000.89 227.194 1997.02 228.34C1993.16 229.486 1989.36 231.204 1985.64 233.496C1984.49 233.066 1983.42 232.923 1982.41 233.066C1981.55 233.066 1980.62 233.21 1979.62 233.496C1978.62 233.783 1977.47 234.069 1976.18 234.355C1975.04 234.642 1973.61 234.642 1971.89 234.355C1970.74 235.358 1969.38 236.074 1967.8 236.504C1966.37 236.934 1964.87 237.363 1963.29 237.793C1964.01 239.368 1964.3 240.944 1964.15 242.52C1964.15 244.095 1964.37 245.456 1964.8 246.602C1970.81 247.174 1977.47 247.174 1984.78 246.602C1992.08 245.885 1999.24 245.384 2006.26 245.098C2006.4 245.814 2006.33 246.315 2006.05 246.602C2005.76 246.888 2005.62 247.389 2005.62 248.105C2006.91 248.965 2008.12 250.039 2009.27 251.328C2010.42 252.617 2011.56 253.906 2012.71 255.195C2014 256.341 2015.29 257.344 2016.57 258.203C2017.86 258.919 2019.37 259.206 2021.09 259.062C2021.8 260.495 2022.3 261.999 2022.59 263.574C2022.88 265.15 2022.66 266.797 2021.95 268.516C2019.08 270.378 2016.29 272.311 2013.57 274.316C2010.85 276.178 2007.98 277.897 2004.97 279.473C2002.11 281.048 1998.96 282.337 1995.52 283.34C1992.08 284.342 1988.36 284.772 1984.35 284.629C1983.63 284.629 1982.99 284.629 1982.41 284.629C1981.98 284.629 1981.41 284.342 1980.7 283.77C1979.26 284.486 1977.33 284.772 1974.89 284.629C1972.6 284.342 1970.67 284.557 1969.09 285.273C1967.09 284.557 1964.73 284.199 1962 284.199C1959.43 284.199 1957.13 283.841 1955.13 283.125C1952.55 286.849 1950.12 290.788 1947.82 294.941C1945.53 298.952 1943.53 303.249 1941.81 307.832C1947.68 308.691 1952.55 309.049 1956.42 308.906C1960.29 308.763 1963.94 308.477 1967.38 308.047C1970.81 307.617 1974.32 307.188 1977.9 306.758C1981.63 306.328 1986.14 306.185 1991.44 306.328C1995.02 304.609 1999.1 303.464 2003.68 302.891C2008.41 302.174 2012.78 301.172 2016.79 299.883C2018.22 300.312 2019.44 301.172 2020.44 302.461C2021.44 303.607 2022.38 304.824 2023.23 306.113C2024.24 307.259 2025.24 308.262 2026.24 309.121C2027.24 309.98 2028.53 310.267 2030.11 309.98C2030.83 310.697 2031.26 311.556 2031.4 312.559C2031.68 313.561 2031.9 314.492 2032.04 315.352C2032.33 316.211 2032.69 316.927 2033.12 317.5C2033.55 317.93 2034.33 318.073 2035.48 317.93C2032.76 323.516 2029.68 327.812 2026.24 330.82C2022.95 333.828 2019.15 336.191 2014.86 337.91C2010.7 339.486 2005.98 340.703 2000.68 341.562C1995.52 342.279 1989.72 343.21 1983.27 344.355C1981.7 344.642 1980.34 344.642 1979.19 344.355C1978.19 343.926 1977.11 343.711 1975.97 343.711C1971.96 344.427 1967.16 345.143 1961.57 345.859C1956.13 346.576 1950.62 346.862 1945.03 346.719C1939.45 346.576 1934.07 345.859 1928.92 344.57C1923.76 343.281 1919.46 340.99 1916.03 337.695Z" fill="url(#paint0_linear)"/>
<path d="M2450.35 178.055L2333.85 167.247L2287.57 59.7577C2284.33 52.2312 2273.67 52.2312 2270.43 59.7577L2224.15 167.246L2107.65 178.055C2099.49 178.812 2096.19 188.961 2102.35 194.369L2190.25 271.609L2164.52 385.778C2162.72 393.773 2171.35 400.044 2178.4 395.861L2279 336.109L2379.6 395.861C2386.65 400.045 2395.28 393.773 2393.48 385.778L2367.75 271.609L2455.65 194.369C2461.81 188.961 2458.51 178.812 2450.35 178.055Z" fill="#FFDC64"/>
<path d="M2159.9 56.0572C2165.84 64.3086 2182.6 99.7455 2192.19 120.398C2193.7 123.644 2189.62 126.577 2187.02 124.117C2170.48 108.475 2142.2 81.3318 2136.26 73.0794C2131.56 66.5506 2133.05 57.4469 2139.57 52.7461C2146.1 48.0453 2155.2 49.5283 2159.9 56.0572Z" fill="#FFF082"/>
<path d="M2398.1 56.0572C2392.16 64.3086 2375.4 99.7455 2365.81 120.398C2364.3 123.644 2368.38 126.577 2370.98 124.117C2387.52 108.475 2415.8 81.3309 2421.74 73.0794C2426.44 66.5506 2424.95 57.4469 2418.43 52.7461C2411.9 48.0453 2402.8 49.5283 2398.1 56.0572Z" fill="#FFF082"/>
<path d="M2491.95 298.03C2482.28 294.878 2443.44 289.67 2420.86 286.812C2417.31 286.362 2415.75 291.134 2418.88 292.865C2438.81 303.874 2473.25 322.576 2482.92 325.729C2490.56 328.223 2498.78 324.045 2501.28 316.396C2503.77 308.747 2499.6 300.525 2491.95 298.03Z" fill="#FFF082"/>
<path d="M2066.05 298.03C2075.72 294.878 2114.56 289.67 2137.14 286.812C2140.69 286.362 2142.25 291.134 2139.12 292.865C2119.19 303.874 2084.75 322.576 2075.08 325.729C2067.44 328.223 2059.22 324.045 2056.72 316.396C2054.23 308.747 2058.4 300.525 2066.05 298.03Z" fill="#FFF082"/>
<path d="M2264.88 462.433C2264.88 452.266 2271.98 413.709 2276.26 391.348C2276.94 387.834 2281.96 387.834 2282.63 391.348C2286.91 413.709 2294.01 452.266 2294.01 462.433C2294.01 470.478 2287.49 477 2279.45 477C2271.4 477.001 2264.88 470.478 2264.88 462.433Z" fill="#FFF082"/>
<path d="M2304.4 98.8455L2287.57 59.7577C2284.33 52.2312 2273.66 52.2312 2270.42 59.7577L2224.15 167.246L2107.65 178.055C2099.49 178.812 2096.19 188.961 2102.35 194.369L2190.25 271.609L2164.52 385.778C2162.72 393.773 2171.35 400.044 2178.4 395.861L2191.79 387.909C2213.74 245.777 2275.45 141.443 2304.4 98.8455Z" fill="#FFC850"/>
<path d="M2186.54 222.572L2216.24 236.057L2244.2 223.364L2214.5 209.88L2186.54 222.573V222.572V222.572Z" fill="#666666"/>
<path d="M2209.45 253.57C2213.4 253.57 2217.34 253.57 2221.29 253.57L2222.25 263.544L2225.14 265.67L2242.37 271.133C2242.37 271.133 2244.63 272.375 2245.3 275.852C2245.59 277.376 2246.2 307.884 2246.85 320.913C2221.58 312.537 2200.76 294.403 2188.85 270.978L2205.72 265.595L2208.49 263.545L2209.45 253.571V253.57V253.57Z" fill="#F0B97D"/>
<path d="M2224.1 268.717C2221.25 272.053 2211.71 273.493 2206.46 267.794L2215.37 294.327L2224.1 268.717Z" fill="white"/>
<path d="M2200.59 238.422C2196.88 237.764 2200.05 248.847 2202.76 247.195L2204.21 251.467C2205.52 255.316 2208.83 258.82 2211.34 261.594C2212.32 262.676 2218.34 262.658 2219.31 261.636C2222.1 258.706 2225.41 255.415 2226.65 251.446L2227.98 247.195C2230.7 248.846 2233.85 237.764 2230.15 238.422C2230.4 229.795 2224.3 221.424 2215.37 221.385C2206.44 221.424 2200.34 229.795 2200.59 238.422H2200.59V238.422Z" fill="#FED198"/>
<path d="M2205.72 265.594L2188.85 270.977C2200.8 294.478 2221.71 312.648 2247.09 320.99C2246.36 312.473 2245.62 277.563 2245.3 275.85C2244.63 272.374 2242.37 271.131 2242.37 271.131L2225.14 265.668L2215.37 294.326L2205.72 265.593V265.594Z" fill="#FF5B61"/>
<path d="M2226.02 223.084C2227.07 222.961 2230.86 226.421 2231.31 230.427C2231.77 234.433 2230.9 238.472 2230.9 238.472C2228.23 238.342 2229.07 242.416 2228.49 243.06L2227.74 243.077L2227.46 240.343C2224.14 238.263 2228.77 230.044 2225.45 229.323C2219.77 234.004 2211.34 235.736 2203.98 234.534C2201.92 234.809 2204.92 237.417 2204.05 240.42C2203.41 241.541 2203.79 243.309 2203.79 243.309L2202.83 243.428C2202.83 243.428 2202.22 238.36 2200.37 238.38C2199.92 236.045 2199.74 234.651 2199.86 232.582C2200.49 221.993 2214.73 215.963 2226.02 223.083L2226.02 223.084Z" fill="#666666"/>
<path d="M2199.87 223.665C2206.61 218.535 2225.21 218.435 2231.22 223.619L2231.54 231.989C2221.05 228.876 2210.23 229.161 2199.51 232.308L2199.87 223.665Z" fill="#807D7D"/>
<path d="M2194.12 219.44L2194.16 234.278V234.737H2193.29V234.278V219.722C2193.32 218.871 2194.06 218.754 2194.12 219.44Z" fill="white"/>
<path d="M2192.13 236.955C2192.13 240.908 2191.3 244.308 2191.25 244.535C2191.21 244.762 2192.01 245.508 2192.16 244.762C2192.31 244.017 2192.14 244.778 2192.85 244.826C2193.55 244.875 2193.69 244.529 2193.7 244.52C2193.7 244.529 2193.84 244.876 2194.54 244.826C2195.25 244.778 2195.08 244.016 2195.23 244.762C2195.39 245.507 2196.18 244.762 2196.14 244.535C2196.09 244.31 2195.26 240.908 2195.26 236.955C2195.23 235.442 2194.63 234.728 2193.7 234.51C2192.76 234.728 2192.17 235.442 2192.13 236.955H2192.13Z" fill="#FF5B61"/>
<path d="M2193.71 234.509C2195.27 234.509 2195.31 235.495 2195.23 236.409C2194.89 236.113 2194.34 235.919 2193.71 235.919C2193.09 235.919 2192.54 236.112 2192.19 236.409C2192.14 235.349 2192.16 234.509 2193.71 234.509Z" fill="#807D7D"/>
<path d="M2318.86 221.396L2345.99 233.713L2371.53 222.118L2344.4 209.801L2318.86 221.396Z" fill="#666666"/>
<path d="M2326.42 264.237C2329.09 259.754 2333.29 254.55 2329.02 246.637C2322.74 219.16 2351.7 213.589 2356.08 224.928C2363.21 227.615 2363.02 242.406 2359.35 250.145C2359.19 253.331 2355.88 256.108 2361.86 264.326L2362.29 264.231H2362.29C2354.53 266.482 2334.63 265.444 2326.42 264.236L2326.42 264.237Z" fill="#666666"/>
<path d="M2339.74 258.446C2339.47 263.367 2337.72 265.225 2335.3 266.518C2334.07 267.605 2323.26 268.908 2321.8 272.857C2321.48 273.694 2320.55 299.835 2319.66 317.132C2340.37 307.824 2357.35 291.711 2367.76 271.641C2364.65 268.335 2355.59 267.545 2354.52 266.653C2352.15 265.328 2350.45 263.379 2350.19 258.444C2350.19 258.444 2346.65 261.19 2344.45 260.768C2342.25 260.346 2339.74 258.444 2339.74 258.444V258.446V258.446Z" fill="#F0B97D"/>
<path d="M2334.03 250.375C2336.22 255.052 2337.02 256.878 2339.74 258.98C2339.74 258.98 2342.25 260.916 2344.45 261.348C2346.65 261.779 2350.19 258.98 2350.19 258.98C2352.9 256.878 2353.71 255.052 2355.89 250.375C2356.43 250.66 2356.98 251.047 2357.42 250.549C2357.85 250.051 2359.92 243.581 2359.55 242.709C2359.18 241.837 2358.81 242.393 2358.26 242.788C2358.29 242.6 2357.82 245.125 2357.83 244.741C2357.88 241.688 2355.73 241.204 2355.06 233.122C2345.16 242.942 2335.92 238.437 2332.7 239.093C2331.76 239.284 2331.49 241.675 2331.66 242.788C2328.17 240.294 2332.41 250.448 2332.5 250.549C2332.94 251.047 2333.49 250.66 2334.03 250.375H2334.03V250.375Z" fill="#FED198"/>
<path d="M2335.3 266.517C2331.21 268.229 2324.85 268.306 2321.66 272.47C2321.06 273.259 2318.2 301.377 2316.06 318.663C2338.4 309.657 2356.75 292.863 2367.76 271.645C2364.4 267.859 2357.76 268.203 2354.59 266.503L2345.31 285.485L2335.3 266.516V266.517Z" fill="#FF6600"/>
<path d="M2330.15 222.655C2337.14 217.967 2354.17 218.168 2360.41 222.905L2361.05 230.746C2350.17 227.903 2340.56 228.048 2329.43 230.924L2330.15 222.655V222.655V222.655Z" fill="#807D7D"/>
<path d="M2339.68 274.809C2342.57 275.838 2347.49 275.843 2350.53 274.804L2345.31 285.486L2339.68 274.809Z" fill="white"/>
<path d="M2324.95 218.734L2324.99 232.095V232.508H2324.2V232.095V218.988C2324.23 218.221 2324.9 218.116 2324.95 218.734L2324.95 218.734Z" fill="white"/>
<path d="M2323.14 234.534C2323.14 238.145 2322.38 241.251 2322.34 241.459C2322.29 241.666 2323.02 242.346 2323.16 241.666C2323.3 240.986 2323.15 241.681 2323.8 241.725C2324.43 241.769 2324.56 241.453 2324.57 241.443C2324.57 241.453 2324.7 241.768 2325.34 241.725C2325.98 241.681 2325.83 240.986 2325.97 241.666C2326.11 242.346 2326.84 241.666 2326.8 241.459C2326.76 241.251 2326 238.146 2326 234.534C2325.97 233.153 2325.42 232.499 2324.57 232.3C2323.71 232.499 2323.17 233.153 2323.14 234.534Z" fill="#FF5B61"/>
<path d="M2324.57 232.299C2325.98 232.299 2326.03 233.2 2325.95 234.035C2325.64 233.763 2325.14 233.587 2324.57 233.587C2324 233.587 2323.49 233.763 2323.18 234.035C2323.13 233.067 2323.15 232.299 2324.57 232.299Z" fill="#807D7D"/>
<path d="M2224.98 174.168L2282.04 200.07L2335.74 175.688L2278.69 149.786L2224.98 174.168Z" fill="#666666"/>
<path d="M2240.89 264.255C2246.5 254.827 2255.34 243.882 2246.36 227.245C2233.14 169.468 2294.04 157.754 2303.25 181.599C2318.23 187.249 2317.83 218.35 2310.13 234.624C2309.79 241.321 2302.82 247.162 2315.41 264.441L2316.31 264.243L2316.31 264.244C2299.99 268.973 2258.14 266.796 2240.89 264.255H2240.89V264.255Z" fill="#080808"/>
<path d="M2268.88 252.079C2268.32 262.426 2264.65 266.332 2259.55 269.053C2256.96 271.341 2237.46 271.956 2231.77 281.159C2231.14 282.169 2226.66 298.489 2224.48 310.263C2240.08 320.225 2258.62 326 2278.5 326C2298.86 326 2317.8 319.941 2333.63 309.536C2331.5 297.256 2329.65 282.428 2328.86 281.159C2322.84 271.439 2302.35 271.326 2299.97 269.34C2294.99 266.553 2291.41 262.453 2290.86 252.079C2290.86 252.079 2283.41 257.852 2278.78 256.963C2274.16 256.075 2268.88 252.079 2268.88 252.079Z" fill="#682C1E"/>
<path d="M2256.89 235.108C2261.48 244.941 2263.18 248.782 2268.88 253.202C2268.88 253.202 2274.16 257.275 2278.78 258.181C2283.41 259.087 2290.86 253.202 2290.86 253.202C2296.56 248.782 2298.26 244.942 2302.85 235.108C2303.97 235.707 2305.15 236.52 2306.06 235.473C2306.98 234.425 2311.33 220.821 2310.55 218.986C2309.76 217.151 2309 218.321 2307.83 219.152C2307.89 218.756 2306.91 224.068 2306.93 223.26C2307.04 216.84 2302.52 215.819 2301.11 198.828C2280.3 219.476 2260.85 210.001 2254.08 211.383C2252.12 211.784 2251.54 216.809 2251.9 219.151C2244.56 213.908 2253.48 235.259 2253.67 235.472C2254.59 236.52 2255.76 235.707 2256.89 235.108Z" fill="url(#paint1_radial)"/>
<path d="M2259.55 269.047C2252.56 272.784 2239.19 268.424 2231.22 281.31C2230.73 282.095 2227.25 297.729 2223.82 309.828C2239.55 320.054 2258.33 325.999 2278.5 325.999C2300.02 325.999 2319.96 319.23 2336.32 307.707C2332.98 295.739 2329.57 282.304 2328.86 281.157C2320.86 268.234 2307.13 272.779 2300.13 269.02L2280.6 308.934L2259.55 269.046L2259.55 269.047Z" fill="#277BCF"/>
<path d="M2248.73 176.815C2263.43 166.96 2299.23 167.382 2312.35 177.344L2313.7 193.831C2290.81 187.853 2270.62 188.158 2247.22 194.203L2248.73 176.816L2248.73 176.815Z" fill="#807D7D"/>
<path d="M2268.77 286.482C2274.84 288.649 2285.18 288.662 2291.59 286.474L2280.6 308.937L2268.77 286.482H2268.77V286.482Z" fill="#FBAB18"/>
<path d="M2237.79 168.572L2237.88 196.666V197.536H2236.21V196.666V169.104C2236.27 167.494 2237.68 167.273 2237.79 168.571V168.572Z" fill="white"/>
<path d="M2233.97 201.795C2233.97 209.387 2232.38 215.92 2232.29 216.356C2232.2 216.792 2233.74 218.223 2234.03 216.792C2234.33 215.359 2234 216.822 2235.36 216.915C2236.7 217.007 2236.97 216.346 2236.98 216.324C2236.99 216.346 2237.27 217.007 2238.61 216.915C2239.96 216.823 2239.64 215.36 2239.93 216.792C2240.23 218.223 2241.76 216.792 2241.67 216.356C2241.59 215.92 2239.99 209.387 2239.99 201.795C2239.92 198.888 2238.78 197.517 2236.98 197.099C2235.18 197.517 2234.04 198.888 2233.97 201.795Z" fill="#FF5B61"/>
<path d="M2236.98 197.099C2239.97 197.099 2240.05 198.993 2239.9 200.748C2239.24 200.177 2238.18 199.806 2236.98 199.806C2235.78 199.806 2234.72 200.177 2234.06 200.748C2233.96 198.71 2234 197.099 2236.98 197.099Z" fill="#807D7D"/>
<defs>
<linearGradient id="paint0_linear" x1="1052.5" y1="101" x2="1052.5" y2="422" gradientUnits="userSpaceOnUse">
<stop stop-color="#FFC850"/>
<stop offset="0.718232" stop-color="#FFDC64"/>
<stop offset="0.779006" stop-color="#FFF082"/>
<stop offset="1" stop-color="#FFDC64"/>
</linearGradient>
<radialGradient id="paint1_radial" cx="0" cy="0" r="1" gradientUnits="userSpaceOnUse" gradientTransform="translate(2279.82 228.552) rotate(-0.312652) scale(38.024 39.4207)">
<stop stop-color="#682C1E"/>
<stop offset="0.209945" stop-color="#672C1D"/>
<stop offset="0.359116" stop-color="#622A1C"/>
<stop offset="0.513812" stop-color="#5A271A"/>
<stop offset="0.635359" stop-color="#4F2217"/>
<stop offset="0.773481" stop-color="#411B12"/>
<stop offset="1" stop-color="#270C06"/>
</radialGradient>
</defs>
</svg>
