<svg width="2715" height="595" viewBox="0 0 2715 595" fill="none" xmlns="http://www.w3.org/2000/svg">
<rect width="2715" height="595" fill="white"/>
<path d="M166.012 403.09C153.408 401.371 145.745 394.711 143.023 383.109L143.238 380.746C143.811 379.027 144.456 377.094 145.172 374.945C145.888 372.51 146.676 370.147 147.535 367.855C148.395 365.421 149.827 363.272 151.832 361.41C152.262 360.121 153.049 358.188 154.195 355.609C155.484 352.888 157.561 348.878 160.426 343.578C162.717 339.424 164.508 336.13 165.797 333.695C167.229 331.26 168.375 329.398 169.234 328.109C167.802 325.531 165.797 323.025 163.219 320.59C160.927 316.293 158.922 312.211 157.203 308.344C155.628 304.333 154.41 300.753 153.551 297.602C153.408 294.164 152.835 290.655 151.832 287.074C151.402 285.212 150.973 283.35 150.543 281.488C150.113 279.626 149.898 277.693 149.898 275.688C149.326 274.685 148.824 273.396 148.395 271.82L148.824 269.242C149.54 268.096 149.684 266.592 149.254 264.73C148.967 262.725 148.538 260.72 147.965 258.715C147.535 256.853 147.105 254.919 146.676 252.914C146.389 250.766 146.318 248.689 146.461 246.684C146.604 244.678 147.105 242.745 147.965 240.883C148.967 239.021 150.615 237.445 152.906 236.156L155.055 234.652L157.203 235.941C158.779 236.944 160.283 237.803 161.715 238.52C163.147 239.236 164.579 239.952 166.012 240.668C167.73 241.527 169.449 242.458 171.168 243.461C172.887 244.32 174.749 245.323 176.754 246.469L178.902 247.973L178.688 250.336C178.688 250.622 178.759 250.98 178.902 251.41C179.046 251.84 179.26 252.198 179.547 252.484L181.91 253.129L182.125 256.137V258.715C182.125 260.004 182.197 260.935 182.34 261.508C182.483 261.938 182.77 262.439 183.199 263.012L184.273 265.805C184.273 268.383 184.488 270.674 184.918 272.68C185.348 274.685 185.849 276.69 186.422 278.695C187.138 280.701 187.711 282.777 188.141 284.926C188.57 286.931 188.642 289.151 188.355 291.586C189.215 291.156 190.074 290.512 190.934 289.652C191.22 289.366 191.507 289.079 191.793 288.793C192.223 288.507 192.652 288.22 193.082 287.934L208.121 267.523L207.691 264.945L213.062 259.789C214.495 258.643 215.855 257.497 217.145 256.352C218.434 255.062 219.508 253.63 220.367 252.055L221.656 250.121C228.102 241.527 236.409 236.228 246.578 234.223L250.23 233.363L251.305 236.801C252.021 238.806 253.382 240.596 255.387 242.172C257.535 243.604 259.827 245.036 262.262 246.469L264.625 247.973C265.484 249.691 265.914 250.98 265.914 251.84C265.914 252.699 265.842 253.415 265.699 253.988L266.773 256.781C265.198 260.935 263.479 263.943 261.617 265.805C259.755 267.523 257.822 269.171 255.816 270.746C254.241 272.035 252.809 273.324 251.52 274.613C250.23 275.902 249.228 277.335 248.512 278.91L246.793 281.059C243.212 282.921 240.921 285.642 239.918 289.223L239.059 292.23H235.836C235.693 292.23 235.335 292.589 234.762 293.305C234.189 293.878 233.329 295.382 232.184 297.816C230.895 299.535 229.964 300.681 229.391 301.254C228.961 301.684 228.603 302.042 228.316 302.328C228.03 303.044 227.743 303.689 227.457 304.262C227.314 304.835 227.099 305.551 226.812 306.41L225.523 308.129C224.234 309.275 223.303 310.421 222.73 311.566C222.158 312.569 221.513 313.786 220.797 315.219C220.224 316.508 219.579 317.868 218.863 319.301C218.147 320.59 217.145 321.879 215.855 323.168L216.285 325.531L214.566 327.035C213.421 328.038 212.418 329.327 211.559 330.902C210.699 332.335 209.84 333.839 208.98 335.414C208.121 337.133 207.19 338.852 206.188 340.57C205.185 342.289 203.896 343.865 202.32 345.297C201.318 347.875 200.387 349.88 199.527 351.312C198.811 352.745 197.522 354.464 195.66 356.469C193.941 363.344 189.859 370.72 183.414 378.598C183.271 380.173 182.77 381.749 181.91 383.324C181.194 384.757 180.406 386.117 179.547 387.406C179.26 387.979 178.902 388.624 178.473 389.34C178.186 389.913 177.971 390.342 177.828 390.629L177.184 392.992C176.324 394.568 175.393 395.857 174.391 396.859C173.531 397.862 172.672 398.793 171.812 399.652C171.383 399.939 170.953 400.297 170.523 400.727C170.237 401.156 169.951 401.514 169.664 401.801L166.012 403.09ZM420.816 289.652C420.53 287.79 420.172 286.645 419.742 286.215C420.745 283.637 421.461 281.13 421.891 278.695C422.464 276.117 422.893 273.682 423.18 271.391C423.466 269.385 423.753 267.523 424.039 265.805C424.469 264.086 424.97 262.439 425.543 260.863C427.978 260.29 429.768 259.288 430.914 257.855C432.203 256.28 433.206 254.919 433.922 253.773C436.5 253.63 438.147 253.988 438.863 254.848C439.723 255.707 440.654 257.139 441.656 259.145C442.372 260.72 443.375 262.439 444.664 264.301C445.953 266.02 447.887 267.38 450.465 268.383C450.895 269.958 451.396 271.462 451.969 272.895C452.542 274.327 453.186 275.831 453.902 277.406C455.191 280.414 456.409 283.565 457.555 286.859C458.701 290.01 459.345 293.018 459.488 295.883C457.77 299.177 456.409 302.973 455.406 307.27C454.547 311.566 453.974 315.935 453.688 320.375C453.544 324.672 453.688 328.826 454.117 332.836C454.547 336.846 455.263 340.212 456.266 342.934L457.555 346.371L462.281 345.941C467.438 344.652 472.092 343.22 476.246 341.645C480.4 339.926 484.267 337.921 487.848 335.629C491.428 333.337 494.866 330.759 498.16 327.895C501.454 324.887 504.892 321.378 508.473 317.367C511.91 313.357 514.99 308.845 517.711 303.832C520.432 298.676 522.652 293.376 524.371 287.934C526.233 282.491 527.665 277.048 528.668 271.605C529.671 266.163 530.315 261.078 530.602 256.352C533.323 255.062 534.827 252.986 535.113 250.121L534.469 247.328C534.039 246.612 533.824 245.967 533.824 245.395C533.967 244.678 534.182 244.034 534.469 243.461C535.615 240.167 538.049 237.732 541.773 236.156C544.352 237.875 546.715 239.737 548.863 241.742C551.155 243.747 553.232 245.753 555.094 247.758C555.38 251.625 555.953 254.991 556.812 257.855C557.672 260.577 558.603 263.227 559.605 265.805C560.608 268.24 561.467 270.603 562.184 272.895C563.043 275.186 563.616 277.979 563.902 281.273C562.47 285.57 561.396 289.652 560.68 293.52C560.107 297.243 559.534 301.182 558.961 305.336L558.531 307.699C555.953 312.139 553.375 316.723 550.797 321.449C548.362 326.033 546.357 330.043 544.781 333.48C543.922 334.34 543.134 335.342 542.418 336.488C541.845 337.634 541.272 338.78 540.699 339.926C540.413 340.355 539.983 341.072 539.41 342.074C538.98 343.077 538.551 343.793 538.121 344.223L532.965 342.289L531.676 348.949L528.238 349.809L525.66 352.816C522.366 358.546 518.857 363.344 515.133 367.211C511.552 371.078 507.47 374.516 502.887 377.523C498.447 380.531 493.362 383.396 487.633 386.117C482.047 388.695 475.602 391.488 468.297 394.496C465.432 394.066 462.926 393.852 460.777 393.852C458.772 393.708 456.767 393.565 454.762 393.422C452.757 393.422 450.823 393.35 448.961 393.207C447.099 393.064 444.951 392.849 442.516 392.562C441.943 391.273 441.155 390.342 440.152 389.77C439.15 389.197 438.219 388.91 437.359 388.91C434.495 387.478 432.346 385.473 430.914 382.895C429.482 380.316 427.978 377.452 426.402 374.301C425.686 372.582 424.898 370.863 424.039 369.145C423.323 367.426 422.392 365.779 421.246 364.203L425.543 362.914L419.957 356.469C419.527 356.039 419.026 355.609 418.453 355.18C418.023 354.75 417.594 354.249 417.164 353.676V349.594C416.591 337.849 416.305 327.035 416.305 317.152C416.448 307.126 417.809 298.318 420.387 290.727L420.816 289.652ZM597.203 375.805C595.771 376.951 594.911 378.454 594.625 380.316C594.339 382.035 593.98 383.754 593.551 385.473C593.121 387.191 592.333 388.695 591.188 389.984C590.185 391.13 588.323 391.632 585.602 391.488C585.029 392.204 584.885 392.634 585.172 392.777C585.602 392.921 585.96 393.565 586.246 394.711C584.241 394.424 582.809 394.568 581.949 395.141C581.09 395.714 580.016 396.143 578.727 396.43C575.432 395.427 572.639 393.637 570.348 391.059C568.199 388.337 566.266 385.401 564.547 382.25C562.971 379.099 561.539 375.876 560.25 372.582C559.104 369.288 557.887 366.423 556.598 363.988C556.598 363.415 556.884 363.201 557.457 363.344C557.887 363.344 558.316 363.344 558.746 363.344C558.03 361.911 557.529 360.336 557.242 358.617C556.812 356.755 556.096 355.251 555.094 354.105C559.247 345.225 563.688 335.987 568.414 326.391C573.141 316.651 577.867 306.84 582.594 296.957C587.464 286.931 592.262 276.905 596.988 266.879C601.858 256.71 606.513 246.755 610.953 237.016C614.964 238.448 618.831 240.167 622.555 242.172C626.422 244.034 629.931 246.254 633.082 248.832C636.233 251.41 638.883 254.418 641.031 257.855C643.323 261.15 644.827 264.945 645.543 269.242C645.257 270.102 644.898 270.388 644.469 270.102C644.039 269.815 643.681 269.958 643.395 270.531C644.111 271.391 644.469 272.035 644.469 272.465C644.612 272.751 644.612 273.109 644.469 273.539C644.326 273.826 644.254 274.255 644.254 274.828C644.254 275.401 644.612 276.189 645.328 277.191C644.612 277.048 644.111 277.191 643.824 277.621C643.538 277.908 643.036 277.908 642.32 277.621C643.036 279.626 643.251 281.202 642.965 282.348C642.678 283.493 642.249 284.568 641.676 285.57C641.103 286.43 640.602 287.432 640.172 288.578C639.885 289.581 640.029 291.013 640.602 292.875C640.029 292.875 639.599 293.018 639.312 293.305C639.169 293.448 639.026 293.663 638.883 293.949C638.74 294.236 638.525 294.522 638.238 294.809C638.095 294.952 637.737 294.952 637.164 294.809C637.594 298.533 637.737 302.328 637.594 306.195C637.451 309.919 637.307 313.786 637.164 317.797C637.021 321.664 637.021 325.674 637.164 329.828C637.307 333.982 637.88 338.279 638.883 342.719C645.042 339.138 649.983 334.483 653.707 328.754C657.574 323.025 660.582 316.651 662.73 309.633C665.022 302.615 666.741 295.095 667.887 287.074C669.176 279.053 670.465 270.889 671.754 262.582C673.329 261.007 674.547 259.073 675.406 256.781C676.409 254.49 677.197 252.126 677.77 249.691C678.486 247.257 679.13 244.822 679.703 242.387C680.419 239.809 681.35 237.517 682.496 235.512C685.074 235.798 687.223 236.586 688.941 237.875C690.803 239.021 692.522 240.382 694.098 241.957C695.673 243.389 697.32 244.75 699.039 246.039C700.758 247.328 702.906 248.188 705.484 248.617C707.49 251.482 709.352 254.275 711.07 256.996C712.789 259.574 713.935 262.51 714.508 265.805C713.648 267.237 713.004 268.812 712.574 270.531C712.145 272.25 711.643 273.969 711.07 275.688C710.641 277.406 709.996 278.982 709.137 280.414C708.277 281.846 707.06 283.064 705.484 284.066C705.055 288.363 704.41 292.374 703.551 296.098C702.691 299.822 701.904 303.474 701.188 307.055C700.471 310.635 699.827 314.359 699.254 318.227C698.681 322.094 698.466 326.319 698.609 330.902C697.32 335.056 695.888 339.353 694.312 343.793C692.737 348.09 691.591 352.1 690.875 355.824C688.154 357.973 686.005 360.622 684.43 363.773C682.854 366.924 681.207 370.076 679.488 373.227C678.772 373.799 678.342 373.943 678.199 373.656C678.056 373.227 677.411 372.94 676.266 372.797C676.409 374.086 676.122 374.945 675.406 375.375C674.833 375.661 674.905 376.664 675.621 378.383C673.186 379.529 671.038 381.033 669.176 382.895C667.314 384.757 665.237 386.475 662.945 388.051C660.797 389.626 658.219 390.701 655.211 391.273C652.346 391.703 648.551 391.059 643.824 389.34C636.806 384.184 630.504 378.24 624.918 371.508C619.332 364.776 614.892 356.827 611.598 347.66C610.165 348.09 609.091 349.021 608.375 350.453C607.659 351.885 607.014 353.389 606.441 354.965C605.868 356.54 605.296 357.973 604.723 359.262C604.15 360.551 603.29 361.195 602.145 361.195C601.858 362.484 601.285 363.702 600.426 364.848C599.71 365.85 598.993 366.924 598.277 368.07C597.561 369.073 596.988 370.219 596.559 371.508C596.272 372.797 596.487 374.229 597.203 375.805ZM708.922 345.082C708.922 343.507 709.137 342.074 709.566 340.785C709.996 339.496 710.068 337.849 709.781 335.844C714.221 326.391 719.234 317.654 724.82 309.633C730.549 301.469 737.353 294.307 745.23 288.148C746.52 287.146 747.522 286.143 748.238 285.141C749.098 283.995 749.885 282.921 750.602 281.918C751.461 280.915 752.392 280.056 753.395 279.34C754.397 278.48 755.686 277.908 757.262 277.621C760.842 273.467 765.139 269.672 770.152 266.234C775.165 262.797 780.393 259.503 785.836 256.352C791.279 253.201 796.721 249.978 802.164 246.684C807.75 243.389 812.763 239.809 817.203 235.941C818.779 236.944 819.996 237.302 820.855 237.016C821.858 236.586 822.861 236.514 823.863 236.801C825.152 239.522 826.799 241.456 828.805 242.602C830.953 243.604 833.102 244.678 835.25 245.824C837.542 246.827 839.618 248.116 841.48 249.691C843.486 251.124 844.99 253.129 845.992 255.707C844.99 255.707 844.488 256.065 844.488 256.781C844.632 257.497 844.846 258.285 845.133 259.145C845.419 260.004 845.562 260.792 845.562 261.508C845.562 262.224 844.918 262.582 843.629 262.582C843.629 263.585 844.13 264.086 845.133 264.086C846.135 264.086 846.637 264.587 846.637 265.59C846.637 266.449 846.422 267.165 845.992 267.738C845.706 268.168 845.706 268.956 845.992 270.102C842.555 272.393 838.688 274.613 834.391 276.762C830.237 278.767 825.797 280.915 821.07 283.207C816.487 285.499 811.76 288.005 806.891 290.727C802.164 293.305 797.438 296.312 792.711 299.75C787.984 303.188 783.186 306.983 778.316 311.137C773.59 315.29 769.007 319.73 764.566 324.457C760.126 329.04 755.973 333.839 752.105 338.852C748.238 343.721 744.944 348.52 742.223 353.246C742.509 353.962 742.867 354.607 743.297 355.18C743.87 355.753 744.299 356.397 744.586 357.113C750.029 357.4 755.113 357.4 759.84 357.113C764.566 356.684 769.293 356.97 774.02 357.973C774.592 357.543 774.951 356.97 775.094 356.254C775.237 355.538 775.667 355.036 776.383 354.75C786.122 353.747 795.217 352.172 803.668 350.023C812.118 347.732 820.712 345.44 829.449 343.148C826.871 342.146 824.579 341.358 822.574 340.785C821.715 339.926 821.715 339.21 822.574 338.637C823.577 337.921 824.365 337.204 824.938 336.488C822.646 335.199 820.712 333.48 819.137 331.332C817.704 329.184 816.845 326.391 816.559 322.953C817.561 322.094 818.062 321.091 818.062 319.945C818.062 318.799 817.561 317.868 816.559 317.152C815.842 316.866 815.413 316.866 815.27 317.152C815.126 317.439 814.983 317.725 814.84 318.012C814.84 318.298 814.697 318.585 814.41 318.871C814.267 319.158 813.909 319.158 813.336 318.871C813.479 317.296 813.837 316.007 814.41 315.004C814.983 314.001 815.413 312.784 815.699 311.352L833.531 299.535C835.393 300.967 837.685 302.471 840.406 304.047C843.128 305.622 845.992 307.198 849 308.773C852.008 310.349 855.087 311.996 858.238 313.715C861.389 315.29 864.326 316.866 867.047 318.441C869.625 319.587 871.845 321.02 873.707 322.738C875.569 324.314 877.359 326.033 879.078 327.895C880.797 329.613 882.516 331.332 884.234 333.051C885.953 334.77 888.03 336.202 890.465 337.348C890.178 339.639 890.322 341.501 890.895 342.934C891.467 344.366 891.611 346.085 891.324 348.09C888.603 352.96 885.309 357.113 881.441 360.551C877.574 363.845 873.206 366.71 868.336 369.145C863.609 371.579 858.525 373.656 853.082 375.375C847.639 376.951 842.053 378.526 836.324 380.102C830.595 381.534 824.794 383.109 818.922 384.828C813.193 386.404 807.535 388.266 801.949 390.414C799.514 390.414 797.438 390.486 795.719 390.629C794 390.772 792.353 390.987 790.777 391.273C789.202 391.56 787.626 391.846 786.051 392.133C784.475 392.419 782.757 392.634 780.895 392.777C780.178 392.634 779.677 392.777 779.391 393.207C779.247 393.637 778.961 393.995 778.531 394.281C775.667 394.711 773.089 394.926 770.797 394.926C768.505 394.926 766.572 394.926 764.996 394.926C762.991 394.926 760.914 395.212 758.766 395.785C756.617 396.358 754.612 396.573 752.75 396.43C739.859 395.857 729.762 391.273 722.457 382.68C715.152 374.086 711.142 362.27 710.426 347.23C710.569 346.514 710.426 346.085 709.996 345.941C709.566 345.655 709.208 345.368 708.922 345.082ZM963.941 345.082C963.941 343.507 964.156 342.074 964.586 340.785C965.016 339.496 965.087 337.849 964.801 335.844C969.241 326.391 974.254 317.654 979.84 309.633C985.569 301.469 992.372 294.307 1000.25 288.148C1001.54 287.146 1002.54 286.143 1003.26 285.141C1004.12 283.995 1004.9 282.921 1005.62 281.918C1006.48 280.915 1007.41 280.056 1008.41 279.34C1009.42 278.48 1010.71 277.908 1012.28 277.621C1015.86 273.467 1020.16 269.672 1025.17 266.234C1030.18 262.797 1035.41 259.503 1040.86 256.352C1046.3 253.201 1051.74 249.978 1057.18 246.684C1062.77 243.389 1067.78 239.809 1072.22 235.941C1073.8 236.944 1075.02 237.302 1075.88 237.016C1076.88 236.586 1077.88 236.514 1078.88 236.801C1080.17 239.522 1081.82 241.456 1083.82 242.602C1085.97 243.604 1088.12 244.678 1090.27 245.824C1092.56 246.827 1094.64 248.116 1096.5 249.691C1098.51 251.124 1100.01 253.129 1101.01 255.707C1100.01 255.707 1099.51 256.065 1099.51 256.781C1099.65 257.497 1099.87 258.285 1100.15 259.145C1100.44 260.004 1100.58 260.792 1100.58 261.508C1100.58 262.224 1099.94 262.582 1098.65 262.582C1098.65 263.585 1099.15 264.086 1100.15 264.086C1101.15 264.086 1101.66 264.587 1101.66 265.59C1101.66 266.449 1101.44 267.165 1101.01 267.738C1100.73 268.168 1100.73 268.956 1101.01 270.102C1097.57 272.393 1093.71 274.613 1089.41 276.762C1085.26 278.767 1080.82 280.915 1076.09 283.207C1071.51 285.499 1066.78 288.005 1061.91 290.727C1057.18 293.305 1052.46 296.312 1047.73 299.75C1043 303.188 1038.21 306.983 1033.34 311.137C1028.61 315.29 1024.03 319.73 1019.59 324.457C1015.15 329.04 1010.99 333.839 1007.12 338.852C1003.26 343.721 999.964 348.52 997.242 353.246C997.529 353.962 997.887 354.607 998.316 355.18C998.889 355.753 999.319 356.397 999.605 357.113C1005.05 357.4 1010.13 357.4 1014.86 357.113C1019.59 356.684 1024.31 356.97 1029.04 357.973C1029.61 357.543 1029.97 356.97 1030.11 356.254C1030.26 355.538 1030.69 355.036 1031.4 354.75C1041.14 353.747 1050.24 352.172 1058.69 350.023C1067.14 347.732 1075.73 345.44 1084.47 343.148C1081.89 342.146 1079.6 341.358 1077.59 340.785C1076.73 339.926 1076.73 339.21 1077.59 338.637C1078.6 337.921 1079.38 337.204 1079.96 336.488C1077.67 335.199 1075.73 333.48 1074.16 331.332C1072.72 329.184 1071.86 326.391 1071.58 322.953C1072.58 322.094 1073.08 321.091 1073.08 319.945C1073.08 318.799 1072.58 317.868 1071.58 317.152C1070.86 316.866 1070.43 316.866 1070.29 317.152C1070.15 317.439 1070 317.725 1069.86 318.012C1069.86 318.298 1069.72 318.585 1069.43 318.871C1069.29 319.158 1068.93 319.158 1068.36 318.871C1068.5 317.296 1068.86 316.007 1069.43 315.004C1070 314.001 1070.43 312.784 1070.72 311.352L1088.55 299.535C1090.41 300.967 1092.7 302.471 1095.43 304.047C1098.15 305.622 1101.01 307.198 1104.02 308.773C1107.03 310.349 1110.11 311.996 1113.26 313.715C1116.41 315.29 1119.35 316.866 1122.07 318.441C1124.64 319.587 1126.86 321.02 1128.73 322.738C1130.59 324.314 1132.38 326.033 1134.1 327.895C1135.82 329.613 1137.54 331.332 1139.25 333.051C1140.97 334.77 1143.05 336.202 1145.48 337.348C1145.2 339.639 1145.34 341.501 1145.91 342.934C1146.49 344.366 1146.63 346.085 1146.34 348.09C1143.62 352.96 1140.33 357.113 1136.46 360.551C1132.59 363.845 1128.23 366.71 1123.36 369.145C1118.63 371.579 1113.54 373.656 1108.1 375.375C1102.66 376.951 1097.07 378.526 1091.34 380.102C1085.61 381.534 1079.81 383.109 1073.94 384.828C1068.21 386.404 1062.55 388.266 1056.97 390.414C1054.53 390.414 1052.46 390.486 1050.74 390.629C1049.02 390.772 1047.37 390.987 1045.8 391.273C1044.22 391.56 1042.65 391.846 1041.07 392.133C1039.49 392.419 1037.78 392.634 1035.91 392.777C1035.2 392.634 1034.7 392.777 1034.41 393.207C1034.27 393.637 1033.98 393.995 1033.55 394.281C1030.69 394.711 1028.11 394.926 1025.82 394.926C1023.52 394.926 1021.59 394.926 1020.02 394.926C1018.01 394.926 1015.93 395.212 1013.79 395.785C1011.64 396.358 1009.63 396.573 1007.77 396.43C994.879 395.857 984.781 391.273 977.477 382.68C970.172 374.086 966.161 362.27 965.445 347.23C965.589 346.514 965.445 346.085 965.016 345.941C964.586 345.655 964.228 345.368 963.941 345.082ZM1143.55 377.523C1142.83 377.667 1142.19 377.165 1141.62 376.02C1141.04 374.73 1140.4 373.513 1139.68 372.367H1142.05C1141.04 369.216 1140.76 366.352 1141.19 363.773C1141.76 361.052 1142.4 358.474 1143.12 356.039C1143.84 353.461 1144.41 351.026 1144.84 348.734C1145.41 346.299 1145.2 343.793 1144.2 341.215C1144.91 341.645 1145.41 341.501 1145.7 340.785C1146.13 339.926 1146.42 338.923 1146.56 337.777C1146.85 336.488 1146.92 335.199 1146.77 333.91C1146.77 332.478 1146.7 331.332 1146.56 330.473C1148.42 326.033 1149.85 321.449 1150.86 316.723C1152 311.996 1153 307.341 1153.86 302.758C1154.72 298.031 1155.65 293.52 1156.66 289.223C1157.8 284.783 1159.23 280.629 1160.95 276.762C1162.96 276.475 1165.04 276.762 1167.18 277.621C1169.48 278.337 1170.98 279.268 1171.7 280.414C1176.14 276.977 1180.07 272.823 1183.51 267.953C1186.95 263.083 1190.39 258.357 1193.82 253.773C1197.4 249.047 1201.42 244.893 1205.86 241.312C1210.3 237.732 1215.81 235.583 1222.4 234.867C1225.84 237.302 1229.7 239.952 1234 242.816C1238.3 245.538 1241.81 248.975 1244.53 253.129C1245.67 253.845 1246.75 254.633 1247.75 255.492C1248.9 256.208 1250.04 256.924 1251.19 257.641V260.863C1253.19 262.725 1254.84 264.945 1256.13 267.523C1257.56 269.958 1258.78 272.608 1259.78 275.473C1260.93 278.194 1262 280.987 1263 283.852C1264.01 286.716 1265.15 289.366 1266.44 291.801C1266.15 292.66 1266.01 293.448 1266.01 294.164C1266.15 294.737 1266.3 295.382 1266.44 296.098C1266.73 296.671 1266.94 297.387 1267.09 298.246C1267.23 298.962 1267.3 299.893 1267.3 301.039C1266.73 308.63 1264.22 314.789 1259.78 319.516C1255.48 324.099 1250.18 327.895 1243.88 330.902C1237.72 333.767 1231.14 336.273 1224.12 338.422C1217.1 340.427 1210.73 342.647 1205 345.082C1205 345.655 1205.28 345.941 1205.86 345.941C1206.57 345.941 1206.79 346.371 1206.5 347.23C1210.8 349.809 1214.09 351.885 1216.38 353.461C1218.82 355.036 1221.04 356.397 1223.04 357.543C1225.19 358.546 1227.48 359.405 1229.92 360.121C1232.5 360.837 1236.01 361.697 1240.45 362.699C1244.89 363.702 1248.32 364.561 1250.76 365.277C1253.34 365.85 1255.63 366.352 1257.63 366.781C1259.64 367.068 1261.79 367.354 1264.08 367.641C1266.37 367.927 1269.45 368.285 1273.32 368.715C1274.89 370.29 1276.18 372.152 1277.18 374.301C1278.19 376.449 1278.9 378.598 1279.33 380.746C1279.76 382.895 1279.83 384.971 1279.55 386.977C1279.4 388.839 1278.83 390.342 1277.83 391.488C1277.97 392.061 1278.33 392.348 1278.9 392.348C1279.62 392.204 1280.33 392.204 1281.05 392.348C1280.05 393.064 1279.19 393.923 1278.47 394.926C1277.76 395.928 1277.04 396.931 1276.32 397.934C1275.61 398.936 1274.75 399.867 1273.75 400.727C1272.89 401.586 1271.74 402.087 1270.31 402.23C1265.15 404.236 1258.56 404.307 1250.54 402.445C1242.52 400.583 1232.28 397.289 1219.82 392.562C1213.66 390.271 1208.65 388.194 1204.78 386.332C1200.91 384.47 1197.55 382.68 1194.68 380.961C1191.82 379.099 1189.17 377.165 1186.73 375.16C1184.3 373.012 1181.51 370.505 1178.36 367.641C1177.93 367.784 1177.64 368.07 1177.5 368.5C1177.5 368.93 1177.28 369.216 1176.85 369.359C1176.14 375.089 1174.99 379.743 1173.41 383.324C1171.98 386.905 1169.83 390.557 1166.97 394.281C1164.68 393.852 1163.1 394.066 1162.24 394.926C1161.53 395.785 1160.6 396.573 1159.45 397.289C1158.02 397.576 1156.94 397.504 1156.23 397.074C1155.51 396.788 1154.87 396.43 1154.29 396C1153.72 395.57 1153.08 395.141 1152.36 394.711C1151.64 394.281 1150.5 394.138 1148.92 394.281C1148.49 392.992 1148.06 391.775 1147.63 390.629C1147.2 389.34 1146.06 388.767 1144.2 388.91C1144.62 387.621 1144.77 386.547 1144.62 385.688C1144.48 384.685 1144.27 383.826 1143.98 383.109C1143.69 382.25 1143.41 381.391 1143.12 380.531C1142.98 379.672 1143.12 378.669 1143.55 377.523ZM1215.31 279.34C1213.45 282.061 1211.37 284.568 1209.08 286.859C1206.79 289.008 1204.49 291.299 1202.2 293.734C1200.05 296.026 1198.12 298.604 1196.4 301.469C1194.68 304.19 1193.47 307.484 1192.75 311.352C1198.77 310.635 1205.07 308.988 1211.66 306.41C1218.24 303.689 1224.48 301.111 1230.35 298.676C1229.63 293.376 1227.77 289.151 1224.76 286C1221.75 282.706 1218.6 280.486 1215.31 279.34ZM1274.18 375.59L1276.97 373.441L1277.18 368.93C1280.76 360.193 1284.42 351.814 1288.14 343.793C1292.01 335.772 1296.02 327.536 1300.17 319.086C1301.46 316.365 1302.75 313.643 1304.04 310.922C1305.47 308.201 1306.83 305.408 1308.12 302.543C1307.98 301.97 1307.91 301.397 1307.91 300.824C1307.91 300.108 1308.05 299.32 1308.34 298.461C1310.34 295.596 1311.92 293.018 1313.06 290.727C1314.35 288.435 1315.57 286.072 1316.71 283.637C1318 280.772 1319.36 277.908 1320.8 275.043C1322.37 272.178 1324.31 269.385 1326.6 266.664L1328.1 264.516L1330.46 264.73C1331.04 264.444 1331.61 264.229 1332.18 264.086C1332.9 263.799 1333.76 263.656 1334.76 263.656L1338.63 264.301C1343.36 262.152 1347.51 259.073 1351.09 255.062C1354.81 250.909 1358.54 245.967 1362.26 240.238L1364.84 236.586L1368.28 238.734C1368.99 239.164 1370.14 239.594 1371.71 240.023C1373.29 240.453 1374.94 240.954 1376.66 241.527C1379.66 242.243 1382.6 243.103 1385.46 244.105C1388.33 244.965 1390.55 246.182 1392.12 247.758L1393.2 249.691C1393.49 251.267 1393.7 252.699 1393.84 253.988C1394.13 255.277 1394.42 256.566 1394.7 257.855C1395.28 260.863 1395.78 263.871 1396.21 266.879C1396.64 269.743 1396.92 272.966 1397.07 276.547C1397.78 279.411 1398.43 282.348 1399 285.355C1399.72 288.22 1400.36 291.085 1400.93 293.949C1401.65 298.103 1402.44 302.113 1403.3 305.98C1404.16 309.704 1405.3 313.285 1406.73 316.723C1408.17 316.723 1409.03 316.794 1409.31 316.938C1411.03 316.221 1413.04 315.792 1415.33 315.648L1418.12 315.434L1418.98 318.012C1419.27 318.441 1419.62 318.871 1420.05 319.301C1420.48 319.73 1420.99 320.16 1421.56 320.59C1423.85 320.733 1425.5 321.234 1426.5 322.094C1427.65 322.81 1428.58 323.526 1429.29 324.242C1429.58 324.529 1429.94 324.887 1430.37 325.316C1430.8 325.603 1431.15 325.818 1431.44 325.961L1435.31 327.465L1433.16 331.547C1431.58 334.555 1429.15 337.491 1425.86 340.355C1422.7 343.22 1419.12 345.583 1415.11 347.445C1415.4 348.448 1415.54 349.379 1415.54 350.238C1415.69 351.098 1415.9 352.1 1416.19 353.246C1416.76 356.111 1417.19 359.118 1417.48 362.27C1417.91 365.277 1417.91 368.428 1417.48 371.723C1416.04 375.447 1414.33 378.812 1412.32 381.82C1410.46 384.685 1408.17 387.335 1405.45 389.77C1402.87 392.061 1399.93 393.995 1396.64 395.57C1393.34 397.003 1389.9 397.79 1386.32 397.934C1384.32 397.504 1382.82 397.003 1381.81 396.43C1380.95 395.857 1380.17 395.284 1379.45 394.711C1378.3 393.852 1377.37 393.279 1376.66 392.992L1373.86 391.703L1374.72 388.48C1375.15 387.335 1375.08 386.332 1374.51 385.473C1374.08 384.613 1373.08 383.467 1371.5 382.035C1370.93 381.605 1370.43 381.176 1370 380.746C1369.57 380.173 1369.07 379.6 1368.49 379.027L1364.2 374.086L1371.29 372.152C1375.58 371.007 1378.45 369.574 1379.88 367.855C1381.31 365.993 1381.88 362.771 1381.6 358.188C1378.02 357.471 1375.08 357.4 1372.79 357.973C1370.5 358.402 1368.21 358.904 1365.91 359.477C1362.62 360.336 1359.4 361.124 1356.25 361.84C1353.1 362.413 1349.66 362.699 1345.93 362.699C1343.5 362.699 1340.92 362.484 1338.2 362.055L1335.84 361.84L1335.19 359.477C1335.19 359.19 1334.98 358.904 1334.55 358.617C1334.26 358.188 1333.97 357.829 1333.69 357.543C1332.97 356.684 1332.11 355.538 1331.11 354.105C1330.11 352.673 1329.89 350.883 1330.46 348.734C1329.46 347.159 1328.89 345.512 1328.75 343.793C1328.17 344.939 1327.67 346.085 1327.24 347.23C1326.96 348.233 1326.67 349.236 1326.38 350.238L1325.52 353.031L1322.73 353.461C1322.44 353.747 1322.16 354.177 1321.87 354.75C1321.73 355.323 1321.73 355.753 1321.87 356.039L1322.73 358.402L1320.58 360.336C1320.3 360.766 1319.94 361.124 1319.51 361.41C1319.08 361.697 1318.72 361.983 1318.43 362.27C1318.15 363.845 1317.72 365.349 1317.14 366.781C1316.71 368.214 1316.21 369.646 1315.64 371.078C1314.92 373.37 1314.21 375.59 1313.49 377.738C1312.92 379.887 1312.63 382.035 1312.63 384.184L1311.77 386.977C1311.06 388.122 1310.13 388.982 1308.98 389.555C1307.98 390.128 1306.98 390.629 1305.97 391.059C1304.54 391.632 1303.54 392.204 1302.96 392.777L1302.32 395.57L1299.1 396C1297.24 396.43 1295.88 396.716 1295.02 396.859C1294.3 397.003 1293.44 397.074 1292.44 397.074L1289.64 396.859C1287.93 395.141 1286.49 393.852 1285.35 392.992C1284.35 391.99 1283.13 391.13 1281.7 390.414L1280.41 388.695C1279.83 387.549 1279.48 386.547 1279.33 385.688C1279.19 384.685 1278.97 383.682 1278.69 382.68C1278.4 380.818 1277.97 379.529 1277.4 378.812L1274.18 375.59ZM1342.71 319.73C1340.71 322.595 1338.77 325.603 1336.91 328.754C1337.91 328.611 1338.84 328.539 1339.7 328.539C1340.71 328.539 1341.71 328.467 1342.71 328.324C1347.72 328.038 1352.38 327.68 1356.68 327.25C1360.97 326.82 1365.63 326.104 1370.64 325.102C1369.49 319.802 1368.21 314.431 1366.77 308.988C1365.48 303.402 1364.05 297.816 1362.48 292.23L1361.4 294.379C1357.82 298.246 1354.38 302.4 1351.09 306.84C1347.8 311.28 1345.07 315.505 1342.93 319.516L1342.71 319.73ZM1455.29 398.363C1451.14 397.361 1447.91 395.714 1445.62 393.422C1443.47 390.987 1441.83 388.194 1440.68 385.043C1439.68 381.749 1438.96 378.168 1438.53 374.301C1438.24 370.434 1437.89 366.423 1437.46 362.27C1438.03 360.408 1438.75 358.832 1439.61 357.543C1440.61 356.254 1441.04 354.464 1440.89 352.172C1442.47 347.589 1443.9 343.148 1445.19 338.852C1446.48 334.555 1447.34 330.115 1447.77 325.531C1448.63 324.242 1449.49 323.383 1450.35 322.953C1451.49 314.789 1451.64 306.41 1450.78 297.816C1449.92 289.223 1448.49 281.273 1446.48 273.969C1446.62 272.393 1446.84 271.247 1447.12 270.531C1447.41 269.672 1447.41 268.956 1447.12 268.383C1446.84 267.094 1447.27 266.449 1448.41 266.449C1449.56 266.449 1450.71 266.449 1451.85 266.449C1451.85 263.871 1451.35 261.365 1450.35 258.93C1449.49 256.352 1448.63 253.415 1447.77 250.121C1448.92 247.543 1449.7 245.036 1450.13 242.602C1450.56 240.167 1451.35 237.947 1452.5 235.941C1457.08 237.374 1461.59 239.021 1466.03 240.883C1470.47 242.745 1474.84 244.607 1479.14 246.469C1483.43 248.188 1487.66 249.906 1491.81 251.625C1495.97 253.201 1500.05 254.49 1504.06 255.492C1510.22 259.932 1516.52 264.372 1522.96 268.812C1529.55 273.109 1535.5 277.908 1540.8 283.207C1546.24 288.363 1550.75 294.307 1554.33 301.039C1557.91 307.771 1559.99 315.72 1560.56 324.887C1560.28 325.746 1560.06 326.462 1559.92 327.035C1559.77 327.608 1559.63 328.181 1559.49 328.754C1559.35 329.327 1559.27 329.971 1559.27 330.688C1559.27 331.404 1559.27 332.406 1559.27 333.695C1554.12 342.719 1547.6 350.31 1539.72 356.469C1531.85 362.628 1523.25 368.07 1513.94 372.797C1504.63 377.523 1494.89 381.892 1484.72 385.902C1474.7 389.77 1464.89 393.923 1455.29 398.363ZM1476.34 276.547C1475.05 276.547 1474.12 276.833 1473.55 277.406C1475.27 283.852 1476.56 289.939 1477.42 295.668C1478.28 301.397 1478.71 307.126 1478.71 312.855C1478.85 318.585 1478.56 324.457 1477.85 330.473C1477.13 336.488 1476.13 343.005 1474.84 350.023C1476.7 349.88 1478.35 349.522 1479.78 348.949C1481.21 348.376 1482.65 347.732 1484.08 347.016C1485.65 346.299 1487.23 345.655 1488.8 345.082C1490.52 344.509 1492.46 344.151 1494.61 344.008C1495.18 342.862 1495.89 342.003 1496.75 341.43C1497.76 340.714 1498.62 339.997 1499.33 339.281C1502.91 337.849 1506.49 336.345 1510.07 334.77C1513.65 333.194 1516.95 331.404 1519.96 329.398C1522.96 327.393 1525.69 325.102 1528.12 322.523C1530.56 319.945 1532.56 316.866 1534.14 313.285C1532.99 311.137 1531.56 309.346 1529.84 307.914C1528.26 306.339 1526.55 304.835 1524.68 303.402C1522.96 301.827 1521.25 300.251 1519.53 298.676C1517.95 296.957 1516.66 295.023 1515.66 292.875C1513.37 292.589 1511.36 292.016 1509.64 291.156C1507.93 290.154 1506.28 289.223 1504.7 288.363C1503.13 287.361 1501.41 286.43 1499.55 285.57C1497.83 284.711 1495.75 284.21 1493.32 284.066C1489.59 282.061 1486.23 280.701 1483.22 279.984C1480.21 279.125 1477.92 277.979 1476.34 276.547ZM1577.11 289.652C1576.82 287.79 1576.46 286.645 1576.03 286.215C1577.03 283.637 1577.75 281.13 1578.18 278.695C1578.75 276.117 1579.18 273.682 1579.47 271.391C1579.76 269.385 1580.04 267.523 1580.33 265.805C1580.76 264.086 1581.26 262.439 1581.83 260.863C1584.27 260.29 1586.06 259.288 1587.2 257.855C1588.49 256.28 1589.49 254.919 1590.21 253.773C1592.79 253.63 1594.44 253.988 1595.15 254.848C1596.01 255.707 1596.94 257.139 1597.95 259.145C1598.66 260.72 1599.66 262.439 1600.95 264.301C1602.24 266.02 1604.18 267.38 1606.75 268.383C1607.18 269.958 1607.68 271.462 1608.26 272.895C1608.83 274.327 1609.48 275.831 1610.19 277.406C1611.48 280.414 1612.7 283.565 1613.84 286.859C1614.99 290.01 1615.63 293.018 1615.78 295.883C1614.06 299.177 1612.7 302.973 1611.7 307.27C1610.84 311.566 1610.26 315.935 1609.98 320.375C1609.83 324.672 1609.98 328.826 1610.41 332.836C1610.84 336.846 1611.55 340.212 1612.55 342.934L1613.84 346.371L1618.57 345.941C1623.73 344.652 1628.38 343.22 1632.54 341.645C1636.69 339.926 1640.56 337.921 1644.14 335.629C1647.72 333.337 1651.15 330.759 1654.45 327.895C1657.74 324.887 1661.18 321.378 1664.76 317.367C1668.2 313.357 1671.28 308.845 1674 303.832C1676.72 298.676 1678.94 293.376 1680.66 287.934C1682.52 282.491 1683.95 277.048 1684.96 271.605C1685.96 266.163 1686.6 261.078 1686.89 256.352C1689.61 255.062 1691.12 252.986 1691.4 250.121L1690.76 247.328C1690.33 246.612 1690.11 245.967 1690.11 245.395C1690.26 244.678 1690.47 244.034 1690.76 243.461C1691.9 240.167 1694.34 237.732 1698.06 236.156C1700.64 237.875 1703 239.737 1705.15 241.742C1707.44 243.747 1709.52 245.753 1711.38 247.758C1711.67 251.625 1712.24 254.991 1713.1 257.855C1713.96 260.577 1714.89 263.227 1715.89 265.805C1716.9 268.24 1717.76 270.603 1718.47 272.895C1719.33 275.186 1719.9 277.979 1720.19 281.273C1718.76 285.57 1717.68 289.652 1716.97 293.52C1716.4 297.243 1715.82 301.182 1715.25 305.336L1714.82 307.699C1712.24 312.139 1709.66 316.723 1707.09 321.449C1704.65 326.033 1702.65 330.043 1701.07 333.48C1700.21 334.34 1699.42 335.342 1698.71 336.488C1698.13 337.634 1697.56 338.78 1696.99 339.926C1696.7 340.355 1696.27 341.072 1695.7 342.074C1695.27 343.077 1694.84 343.793 1694.41 344.223L1689.25 342.289L1687.96 348.949L1684.53 349.809L1681.95 352.816C1678.65 358.546 1675.15 363.344 1671.42 367.211C1667.84 371.078 1663.76 374.516 1659.18 377.523C1654.74 380.531 1649.65 383.396 1643.92 386.117C1638.34 388.695 1631.89 391.488 1624.59 394.496C1621.72 394.066 1619.21 393.852 1617.07 393.852C1615.06 393.708 1613.06 393.565 1611.05 393.422C1609.05 393.422 1607.11 393.35 1605.25 393.207C1603.39 393.064 1601.24 392.849 1598.8 392.562C1598.23 391.273 1597.44 390.342 1596.44 389.77C1595.44 389.197 1594.51 388.91 1593.65 388.91C1590.78 387.478 1588.64 385.473 1587.2 382.895C1585.77 380.316 1584.27 377.452 1582.69 374.301C1581.98 372.582 1581.19 370.863 1580.33 369.145C1579.61 367.426 1578.68 365.779 1577.54 364.203L1581.83 362.914L1576.25 356.469C1575.82 356.039 1575.32 355.609 1574.74 355.18C1574.31 354.75 1573.88 354.249 1573.45 353.676V349.594C1572.88 337.849 1572.59 327.035 1572.59 317.152C1572.74 307.126 1574.1 298.318 1576.68 290.727L1577.11 289.652ZM1702.36 375.59L1705.15 373.441L1705.37 368.93C1708.95 360.193 1712.6 351.814 1716.32 343.793C1720.19 335.772 1724.2 327.536 1728.36 319.086C1729.64 316.365 1730.93 313.643 1732.22 310.922C1733.65 308.201 1735.02 305.408 1736.3 302.543C1736.16 301.97 1736.09 301.397 1736.09 300.824C1736.09 300.108 1736.23 299.32 1736.52 298.461C1738.52 295.596 1740.1 293.018 1741.25 290.727C1742.54 288.435 1743.75 286.072 1744.9 283.637C1746.19 280.772 1747.55 277.908 1748.98 275.043C1750.56 272.178 1752.49 269.385 1754.78 266.664L1756.29 264.516L1758.65 264.73C1759.22 264.444 1759.79 264.229 1760.37 264.086C1761.08 263.799 1761.94 263.656 1762.95 263.656L1766.81 264.301C1771.54 262.152 1775.69 259.073 1779.27 255.062C1783 250.909 1786.72 245.967 1790.45 240.238L1793.02 236.586L1796.46 238.734C1797.18 239.164 1798.32 239.594 1799.9 240.023C1801.47 240.453 1803.12 240.954 1804.84 241.527C1807.85 242.243 1810.78 243.103 1813.65 244.105C1816.51 244.965 1818.73 246.182 1820.31 247.758L1821.38 249.691C1821.67 251.267 1821.88 252.699 1822.03 253.988C1822.31 255.277 1822.6 256.566 1822.89 257.855C1823.46 260.863 1823.96 263.871 1824.39 266.879C1824.82 269.743 1825.11 272.966 1825.25 276.547C1825.97 279.411 1826.61 282.348 1827.18 285.355C1827.9 288.22 1828.54 291.085 1829.12 293.949C1829.83 298.103 1830.62 302.113 1831.48 305.98C1832.34 309.704 1833.49 313.285 1834.92 316.723C1836.35 316.723 1837.21 316.794 1837.5 316.938C1839.21 316.221 1841.22 315.792 1843.51 315.648L1846.3 315.434L1847.16 318.012C1847.45 318.441 1847.81 318.871 1848.24 319.301C1848.67 319.73 1849.17 320.16 1849.74 320.59C1852.03 320.733 1853.68 321.234 1854.68 322.094C1855.83 322.81 1856.76 323.526 1857.48 324.242C1857.76 324.529 1858.12 324.887 1858.55 325.316C1858.98 325.603 1859.34 325.818 1859.62 325.961L1863.49 327.465L1861.34 331.547C1859.77 334.555 1857.33 337.491 1854.04 340.355C1850.89 343.22 1847.31 345.583 1843.3 347.445C1843.58 348.448 1843.73 349.379 1843.73 350.238C1843.87 351.098 1844.08 352.1 1844.37 353.246C1844.94 356.111 1845.37 359.118 1845.66 362.27C1846.09 365.277 1846.09 368.428 1845.66 371.723C1844.23 375.447 1842.51 378.812 1840.5 381.82C1838.64 384.685 1836.35 387.335 1833.63 389.77C1831.05 392.061 1828.11 393.995 1824.82 395.57C1821.53 397.003 1818.09 397.79 1814.51 397.934C1812.5 397.504 1811 397.003 1810 396.43C1809.14 395.857 1808.35 395.284 1807.63 394.711C1806.49 393.852 1805.56 393.279 1804.84 392.992L1802.05 391.703L1802.91 388.48C1803.34 387.335 1803.26 386.332 1802.69 385.473C1802.26 384.613 1801.26 383.467 1799.68 382.035C1799.11 381.605 1798.61 381.176 1798.18 380.746C1797.75 380.173 1797.25 379.6 1796.68 379.027L1792.38 374.086L1799.47 372.152C1803.77 371.007 1806.63 369.574 1808.06 367.855C1809.49 365.993 1810.07 362.771 1809.78 358.188C1806.2 357.471 1803.26 357.4 1800.97 357.973C1798.68 358.402 1796.39 358.904 1794.1 359.477C1790.8 360.336 1787.58 361.124 1784.43 361.84C1781.28 362.413 1777.84 362.699 1774.12 362.699C1771.68 362.699 1769.1 362.484 1766.38 362.055L1764.02 361.84L1763.38 359.477C1763.38 359.19 1763.16 358.904 1762.73 358.617C1762.44 358.188 1762.16 357.829 1761.87 357.543C1761.15 356.684 1760.3 355.538 1759.29 354.105C1758.29 352.673 1758.08 350.883 1758.65 348.734C1757.65 347.159 1757.07 345.512 1756.93 343.793C1756.36 344.939 1755.86 346.085 1755.43 347.23C1755.14 348.233 1754.85 349.236 1754.57 350.238L1753.71 353.031L1750.91 353.461C1750.63 353.747 1750.34 354.177 1750.05 354.75C1749.91 355.323 1749.91 355.753 1750.05 356.039L1750.91 358.402L1748.77 360.336C1748.48 360.766 1748.12 361.124 1747.69 361.41C1747.26 361.697 1746.9 361.983 1746.62 362.27C1746.33 363.845 1745.9 365.349 1745.33 366.781C1744.9 368.214 1744.4 369.646 1743.82 371.078C1743.11 373.37 1742.39 375.59 1741.68 377.738C1741.1 379.887 1740.82 382.035 1740.82 384.184L1739.96 386.977C1739.24 388.122 1738.31 388.982 1737.16 389.555C1736.16 390.128 1735.16 390.629 1734.16 391.059C1732.72 391.632 1731.72 392.204 1731.15 392.777L1730.5 395.57L1727.28 396C1725.42 396.43 1724.06 396.716 1723.2 396.859C1722.48 397.003 1721.62 397.074 1720.62 397.074L1717.83 396.859C1716.11 395.141 1714.68 393.852 1713.53 392.992C1712.53 391.99 1711.31 391.13 1709.88 390.414L1708.59 388.695C1708.02 387.549 1707.66 386.547 1707.52 385.688C1707.37 384.685 1707.16 383.682 1706.87 382.68C1706.58 380.818 1706.15 379.529 1705.58 378.812L1702.36 375.59ZM1770.89 319.73C1768.89 322.595 1766.96 325.603 1765.09 328.754C1766.1 328.611 1767.03 328.539 1767.89 328.539C1768.89 328.539 1769.89 328.467 1770.89 328.324C1775.91 328.038 1780.56 327.68 1784.86 327.25C1789.16 326.82 1793.81 326.104 1798.82 325.102C1797.68 319.802 1796.39 314.431 1794.96 308.988C1793.67 303.402 1792.24 297.816 1790.66 292.23L1789.59 294.379C1786.01 298.246 1782.57 302.4 1779.27 306.84C1775.98 311.28 1773.26 315.505 1771.11 319.516L1770.89 319.73ZM1856.19 274.828C1856.04 273.682 1855.76 272.68 1855.33 271.82C1855.04 270.818 1854.68 269.743 1854.25 268.598C1853.54 266.879 1852.89 265.017 1852.32 263.012C1851.75 261.007 1851.46 258.643 1851.46 255.922C1851.75 254.49 1852.11 253.487 1852.54 252.914C1852.96 252.198 1853.39 251.625 1853.82 251.195L1854.68 247.328H1857.91C1859.05 247.471 1860.2 247.543 1861.34 247.543C1862.63 247.543 1863.85 247.543 1865 247.543C1870.44 247.543 1876.02 247.328 1881.75 246.898C1887.48 246.469 1893.36 245.967 1899.37 245.395C1905.96 244.535 1913.05 243.891 1920.64 243.461C1921.36 241.885 1921.79 240.883 1921.93 240.453C1922.22 240.023 1922.5 239.522 1922.79 238.949L1925.15 237.66C1928.45 237.517 1930.74 237.947 1932.03 238.949C1933.32 239.809 1934.32 240.668 1935.04 241.527C1938.76 241.241 1942.55 240.883 1946.42 240.453C1950.29 239.88 1954.3 239.307 1958.45 238.734C1964.18 238.018 1969.98 237.302 1975.86 236.586C1981.73 235.87 1987.46 235.512 1993.04 235.512C1995.48 235.512 1997.77 235.583 1999.92 235.727C2002.07 235.87 2004.14 236.085 2006.15 236.371L2008.73 238.305C2009.3 239.307 2010.02 240.238 2010.88 241.098C2011.73 241.957 2012.74 242.816 2013.88 243.676C2016.03 245.395 2018.11 247.543 2020.11 250.121C2022.26 252.699 2023.05 256.495 2022.48 261.508L2021.4 263.656C2020.83 264.229 2020.11 264.802 2019.25 265.375L2017.11 268.168H2014.74C2013.31 268.168 2012.24 268.311 2011.52 268.598C2010.8 268.741 2009.94 269.027 2008.94 269.457C2008.37 269.743 2007.72 270.03 2007.01 270.316C2006.29 270.46 2005.5 270.674 2004.64 270.961C2003.07 270.818 2001.85 270.746 2000.99 270.746C2000.13 270.746 1999.13 270.746 1997.98 270.746C1993.69 270.746 1989.03 271.033 1984.02 271.605C1979.01 272.178 1974.14 272.823 1969.41 273.539C1965.97 273.969 1962.68 274.398 1959.53 274.828C1956.38 275.115 1953.51 275.401 1950.93 275.688C1949.5 279.411 1948.21 282.706 1947.07 285.57C1945.92 288.435 1944.7 291.299 1943.41 294.164C1942.12 297.029 1940.91 299.965 1939.76 302.973C1938.62 305.837 1937.54 309.06 1936.54 312.641C1934.82 315.219 1933.39 317.725 1932.24 320.16C1931.1 322.452 1930.17 325.102 1929.45 328.109C1927.3 330.544 1925.73 333.194 1924.72 336.059C1923.86 338.923 1923.08 341.358 1922.36 343.363L1921.5 346.586C1920.5 347.589 1919.85 348.376 1919.57 348.949C1919.42 349.522 1919.07 350.167 1918.49 350.883C1918.06 352.745 1917.49 354.535 1916.77 356.254C1916.49 356.97 1916.2 357.758 1915.91 358.617C1915.63 359.333 1915.56 359.906 1915.7 360.336C1915.41 361.911 1914.98 363.129 1914.41 363.988C1914.41 364.848 1914.34 365.707 1914.2 366.566C1914.05 367.426 1913.91 368.285 1913.77 369.145C1913.48 370.147 1913.26 371.078 1913.12 371.938C1912.98 372.654 1913.05 373.37 1913.34 374.086C1913.77 374.659 1914.2 375.232 1914.62 375.805C1915.05 376.378 1915.41 377.094 1915.7 377.953C1915.99 378.24 1916.34 378.454 1916.77 378.598C1917.2 378.741 1917.56 378.956 1917.85 379.242C1918.99 380.245 1920.07 380.818 1921.07 380.961L1923.22 383.539C1924.08 388.695 1923.29 392.706 1920.86 395.57C1918.28 398.865 1913.98 400.512 1907.96 400.512L1904.96 400.297C1903.95 399.294 1903.38 398.65 1903.24 398.363C1901.95 397.79 1900.88 397.289 1900.02 396.859C1899.16 396.573 1898.37 395.928 1897.65 394.926C1897.37 394.639 1897.01 394.496 1896.58 394.496C1896.15 394.353 1895.79 394.138 1895.5 393.852C1894.07 393.422 1892.93 392.921 1892.07 392.348L1889.7 391.059C1889.85 389.626 1889.92 388.624 1889.92 388.051C1888.77 386.475 1887.84 384.757 1887.12 382.895C1886.55 381.033 1886.05 379.099 1885.62 377.094C1885.19 375.518 1884.76 374.086 1884.33 372.797C1884.05 371.508 1883.54 370.362 1882.83 369.359C1882.54 359.333 1883.47 350.954 1885.62 344.223C1887.77 337.348 1890.13 330.688 1892.71 324.242C1894.14 320.805 1895.5 317.296 1896.79 313.715C1898.08 310.134 1899.23 306.482 1900.23 302.758L1902.59 300.395C1903.6 299.535 1904.24 299.034 1904.53 298.891C1904.53 297.029 1904.89 295.238 1905.6 293.52C1906.32 291.658 1907.11 289.796 1907.96 287.934C1908.54 286.788 1909.04 285.642 1909.47 284.496C1910.04 283.35 1910.4 282.348 1910.54 281.488C1909.54 281.488 1908.61 281.56 1907.75 281.703C1907.03 281.703 1906.25 281.775 1905.39 281.918C1903.52 282.348 1901.73 282.562 1900.02 282.562C1898.73 282.562 1897.8 282.491 1897.22 282.348C1896.08 282.921 1895 283.279 1894 283.422C1893 283.422 1891.99 283.422 1890.99 283.422H1888.41H1885.84C1884.12 283.422 1882.76 283.637 1881.75 284.066C1879.75 284.066 1878.46 284.066 1877.89 284.066C1877.31 284.066 1876.67 284.066 1875.95 284.066H1873.38H1870.8C1869.65 284.066 1868.36 283.995 1866.93 283.852C1865.5 283.565 1863.99 282.992 1862.42 282.133L1860.91 280.414C1860.05 278.839 1859.27 277.979 1858.55 277.836L1856.19 277.191V274.828ZM1997.12 388.695C1995.98 387.549 1995.12 386.189 1994.55 384.613C1994.12 383.038 1992.97 381.749 1991.11 380.746C1990.82 378.598 1990.39 376.163 1989.82 373.441C1989.39 370.577 1988.89 367.712 1988.32 364.848C1987.89 361.84 1987.53 358.904 1987.24 356.039C1987.1 353.031 1987.24 350.31 1987.67 347.875C1987.96 346.586 1988.39 345.368 1988.96 344.223C1989.68 343.077 1990.32 342.003 1990.89 341C1991.61 339.854 1992.11 338.708 1992.4 337.562C1992.83 336.417 1992.9 335.271 1992.61 334.125C1993.47 333.982 1993.97 333.552 1994.12 332.836C1994.4 331.977 1995.12 331.69 1996.27 331.977C1997.27 328.826 1998.34 325.889 1999.49 323.168C2000.63 320.447 2001.85 317.797 2003.14 315.219C2004.43 312.641 2005.72 310.062 2007.01 307.484C2008.44 304.763 2009.73 301.755 2010.88 298.461C2008.44 296.169 2006.65 293.734 2005.5 291.156C2004.5 288.435 2003.71 285.714 2003.14 282.992C2002.57 280.271 2002.14 277.549 2001.85 274.828C2001.57 271.964 2000.99 269.099 2000.13 266.234C2001.85 263.656 2003.93 261.579 2006.36 260.004C2008.8 258.285 2011.45 256.924 2014.31 255.922C2017.32 254.776 2020.54 253.917 2023.98 253.344C2027.42 252.628 2031.07 251.84 2034.94 250.98C2041.81 248.832 2047.97 247.185 2053.41 246.039C2058.86 244.75 2064.16 243.747 2069.31 243.031C2074.47 242.172 2079.84 241.456 2085.43 240.883C2091.01 240.167 2097.46 239.164 2104.76 237.875C2104.9 238.305 2105.12 238.52 2105.41 238.52C2105.84 238.52 2106.34 238.52 2106.91 238.52C2107.34 239.522 2108.13 240.023 2109.27 240.023C2109.27 239.594 2109.2 239.236 2109.06 238.949C2109.06 238.52 2109.06 238.161 2109.06 237.875C2109.35 237.875 2109.7 237.947 2110.13 238.09C2110.71 238.233 2111.14 238.376 2111.42 238.52C2111.85 238.663 2112.21 238.663 2112.5 238.52C2112.78 238.233 2112.85 237.732 2112.71 237.016C2114.43 240.023 2116.65 242.53 2119.37 244.535C2122.09 246.397 2125.1 248.044 2128.39 249.477C2128.54 250.766 2128.54 251.697 2128.39 252.27C2128.39 252.842 2128.32 253.415 2128.18 253.988C2128.04 254.418 2127.96 254.991 2127.96 255.707C2127.96 256.28 2128.11 257.139 2128.39 258.285C2126.1 262.152 2123.45 265.16 2120.45 267.309C2117.58 269.457 2114.5 271.104 2111.21 272.25C2107.91 273.396 2104.4 274.255 2100.68 274.828C2097.1 275.401 2093.38 276.046 2089.51 276.762C2085.78 277.335 2081.99 278.194 2078.12 279.34C2074.25 280.486 2070.46 282.204 2066.73 284.496C2065.59 284.066 2064.51 283.923 2063.51 284.066C2062.65 284.066 2061.72 284.21 2060.72 284.496C2059.72 284.783 2058.57 285.069 2057.28 285.355C2056.14 285.642 2054.7 285.642 2052.98 285.355C2051.84 286.358 2050.48 287.074 2048.9 287.504C2047.47 287.934 2045.97 288.363 2044.39 288.793C2045.11 290.368 2045.39 291.944 2045.25 293.52C2045.25 295.095 2045.46 296.456 2045.89 297.602C2051.91 298.174 2058.57 298.174 2065.88 297.602C2073.18 296.885 2080.34 296.384 2087.36 296.098C2087.5 296.814 2087.43 297.315 2087.14 297.602C2086.86 297.888 2086.71 298.389 2086.71 299.105C2088 299.965 2089.22 301.039 2090.37 302.328C2091.51 303.617 2092.66 304.906 2093.8 306.195C2095.09 307.341 2096.38 308.344 2097.67 309.203C2098.96 309.919 2100.46 310.206 2102.18 310.062C2102.9 311.495 2103.4 312.999 2103.69 314.574C2103.97 316.15 2103.76 317.797 2103.04 319.516C2100.18 321.378 2097.39 323.311 2094.66 325.316C2091.94 327.178 2089.08 328.897 2086.07 330.473C2083.21 332.048 2080.05 333.337 2076.62 334.34C2073.18 335.342 2069.46 335.772 2065.45 335.629C2064.73 335.629 2064.08 335.629 2063.51 335.629C2063.08 335.629 2062.51 335.342 2061.79 334.77C2060.36 335.486 2058.43 335.772 2055.99 335.629C2053.7 335.342 2051.77 335.557 2050.19 336.273C2048.19 335.557 2045.82 335.199 2043.1 335.199C2040.52 335.199 2038.23 334.841 2036.23 334.125C2033.65 337.849 2031.21 341.788 2028.92 345.941C2026.63 349.952 2024.62 354.249 2022.91 358.832C2028.78 359.691 2033.65 360.049 2037.52 359.906C2041.38 359.763 2045.04 359.477 2048.47 359.047C2051.91 358.617 2055.42 358.188 2059 357.758C2062.72 357.328 2067.24 357.185 2072.54 357.328C2076.12 355.609 2080.2 354.464 2084.78 353.891C2089.51 353.174 2093.88 352.172 2097.89 350.883C2099.32 351.312 2100.54 352.172 2101.54 353.461C2102.54 354.607 2103.47 355.824 2104.33 357.113C2105.33 358.259 2106.34 359.262 2107.34 360.121C2108.34 360.98 2109.63 361.267 2111.21 360.98C2111.92 361.697 2112.35 362.556 2112.5 363.559C2112.78 364.561 2113 365.492 2113.14 366.352C2113.43 367.211 2113.79 367.927 2114.21 368.5C2114.64 368.93 2115.43 369.073 2116.58 368.93C2113.86 374.516 2110.78 378.812 2107.34 381.82C2104.05 384.828 2100.25 387.191 2095.95 388.91C2091.8 390.486 2087.07 391.703 2081.77 392.562C2076.62 393.279 2070.82 394.21 2064.37 395.355C2062.8 395.642 2061.43 395.642 2060.29 395.355C2059.29 394.926 2058.21 394.711 2057.07 394.711C2053.06 395.427 2048.26 396.143 2042.67 396.859C2037.23 397.576 2031.71 397.862 2026.13 397.719C2020.54 397.576 2015.17 396.859 2010.02 395.57C2004.86 394.281 2000.56 391.99 1997.12 388.695Z" fill="#006BA6"/>
<path d="M411.029 282.679L356.958 277.642L335.479 227.547C333.976 224.04 329.024 224.04 327.52 227.547L306.042 277.642L251.971 282.679C248.184 283.032 246.655 287.762 249.511 290.282L290.308 326.279L278.368 379.487C277.532 383.212 281.539 386.135 284.808 384.186L331.5 356.339L378.192 384.186C381.462 386.136 385.467 383.212 384.632 379.487L372.692 326.279L413.489 290.282C416.345 287.762 414.815 283.032 411.029 282.679Z" fill="#FFDC64"/>
<path d="M276.224 225.823C278.98 229.668 286.76 246.184 291.208 255.808C291.908 257.321 290.018 258.688 288.811 257.542C281.135 250.252 268.009 237.602 265.253 233.756C263.071 230.713 263.759 226.471 266.789 224.28C269.818 222.089 274.042 222.78 276.224 225.823Z" fill="#FFF082"/>
<path d="M386.776 225.823C384.02 229.668 376.24 246.184 371.791 255.808C371.092 257.321 372.982 258.688 374.189 257.542C381.865 250.252 394.99 237.602 397.747 233.756C399.929 230.713 399.241 226.471 396.211 224.28C393.182 222.089 388.958 222.78 386.776 225.823Z" fill="#FFF082"/>
<path d="M430.335 338.592C425.85 337.123 407.82 334.696 397.339 333.364C395.692 333.155 394.97 335.379 396.423 336.185C405.671 341.316 421.658 350.032 426.143 351.501C429.692 352.664 433.507 350.717 434.665 347.152C435.822 343.587 433.884 339.755 430.335 338.592Z" fill="#FFF082"/>
<path d="M232.665 338.592C237.15 337.123 255.18 334.696 265.661 333.364C267.308 333.155 268.03 335.379 266.577 336.185C257.329 341.316 241.342 350.032 236.857 351.501C233.308 352.664 229.492 350.717 228.335 347.152C227.177 343.587 229.116 339.755 232.665 338.592Z" fill="#FFF082"/>
<path d="M324.948 415.211C324.948 410.473 328.241 392.504 330.23 382.083C330.543 380.445 332.872 380.445 333.184 382.083C335.173 392.504 338.466 410.473 338.466 415.211C338.466 418.96 335.44 422 331.707 422C327.974 422 324.948 418.96 324.948 415.211Z" fill="#FFF082"/>
<path d="M343.29 245.764L335.479 227.547C333.975 224.04 329.024 224.04 327.52 227.547L306.041 277.642L251.971 282.679C248.184 283.032 246.655 287.762 249.511 290.282L290.308 326.279L278.368 379.487C277.532 383.212 281.539 386.135 284.808 384.186L291.022 380.48C301.21 314.241 329.851 265.616 343.29 245.764Z" fill="#FFC850"/>
<path d="M2206.08 266.144L2265.48 293.114L2321.4 267.728L2262 240.76L2206.08 266.146V266.144V266.144Z" fill="#666666"/>
<path d="M2251.91 328.14C2259.8 328.14 2267.68 328.14 2275.57 328.14L2277.49 348.088L2283.28 352.34L2317.74 363.265C2317.74 363.265 2322.26 365.751 2323.59 372.703C2324.17 375.752 2325.41 436.769 2326.7 462.827C2276.16 446.073 2234.52 409.805 2210.71 362.956L2244.43 352.19L2249.99 348.09L2251.91 328.143V328.14V328.14Z" fill="#F0B97D"/>
<path d="M2281.2 358.435C2275.49 365.106 2256.42 367.987 2245.91 356.587L2263.74 409.654L2281.2 358.435Z" fill="white"/>
<path d="M2234.19 297.843C2226.76 296.527 2233.09 318.695 2238.51 315.39L2241.42 323.933C2244.04 331.632 2250.65 338.639 2255.69 344.188C2257.65 346.352 2269.68 346.316 2271.62 344.271C2277.2 338.412 2283.82 331.83 2286.3 323.893L2288.96 315.391C2294.4 318.692 2300.71 296.528 2293.29 297.844C2293.81 280.59 2281.6 263.848 2263.74 263.77C2245.88 263.848 2233.67 280.59 2234.19 297.844H2234.19V297.843Z" fill="#FED198"/>
<path d="M2244.43 352.187L2210.71 362.953C2234.6 409.955 2276.43 446.295 2327.18 462.981C2325.73 445.946 2324.25 376.126 2323.59 372.7C2322.27 365.748 2317.75 363.262 2317.75 363.262L2283.28 352.336L2263.74 409.651L2244.43 352.186V352.187Z" fill="#709D89"/>
<path d="M2285.04 267.167C2287.14 266.922 2294.72 273.843 2295.63 281.855C2296.54 289.866 2294.79 297.944 2294.79 297.944C2289.46 297.684 2291.14 305.832 2289.98 307.121L2288.48 307.154L2287.92 301.687C2281.28 297.525 2290.54 281.088 2283.9 279.646C2272.53 289.008 2255.67 292.472 2240.96 290.069C2236.83 290.618 2242.84 295.835 2241.1 301.841C2239.81 304.082 2240.58 307.618 2240.58 307.618L2238.66 307.857C2238.66 307.857 2237.44 297.721 2233.74 297.76C2232.84 293.089 2232.47 290.303 2232.72 286.165C2233.99 264.986 2262.46 252.927 2285.05 267.166L2285.04 267.167Z" fill="#666666"/>
<path d="M2232.75 268.331C2246.22 258.071 2283.43 257.87 2295.45 268.238L2296.08 284.978C2275.11 278.752 2253.46 279.322 2232.02 285.617L2232.75 268.331Z" fill="#807D7D"/>
<path d="M2221.23 259.88L2221.32 289.556V290.474H2219.59V289.556V260.443C2219.65 258.742 2221.11 258.509 2221.23 259.88Z" fill="white"/>
<path d="M2217.26 294.911C2217.26 302.815 2215.6 309.617 2215.51 310.071C2215.41 310.525 2217.01 312.016 2217.32 310.525C2217.62 309.034 2217.29 310.556 2218.7 310.652C2220.09 310.749 2220.38 310.059 2220.39 310.04C2220.4 310.059 2220.69 310.751 2222.08 310.652C2223.49 310.556 2223.16 309.032 2223.46 310.525C2223.77 312.015 2225.37 310.525 2225.28 310.071C2225.19 309.619 2223.53 302.816 2223.53 294.911C2223.45 291.883 2222.27 290.457 2220.39 290.02C2218.52 290.457 2217.33 291.885 2217.26 294.911H2217.26Z" fill="#FF5B61"/>
<path d="M2220.43 290.018C2223.54 290.018 2223.63 291.99 2223.47 293.819C2222.79 293.225 2221.68 292.837 2220.43 292.837C2219.18 292.837 2218.07 293.223 2217.39 293.819C2217.28 291.698 2217.32 290.018 2220.43 290.018Z" fill="#807D7D"/>
<path d="M2470.71 263.792L2524.99 288.426L2576.07 265.236L2521.8 240.602L2470.71 263.792Z" fill="#666666"/>
<path d="M2485.85 349.475C2491.18 340.507 2499.59 330.099 2491.05 314.274C2478.48 259.321 2536.4 248.178 2545.16 270.857C2559.41 276.23 2559.03 305.812 2551.7 321.29C2551.38 327.662 2544.75 333.216 2556.72 349.653L2557.58 349.462H2557.58C2542.06 353.963 2502.26 351.889 2485.84 349.472L2485.85 349.475Z" fill="#666666"/>
<path d="M2512.47 337.892C2511.94 347.733 2508.45 351.45 2503.6 354.036C2501.14 356.21 2479.51 358.816 2476.59 366.715C2475.97 368.389 2474.1 420.671 2472.32 455.264C2513.73 436.649 2547.69 404.422 2568.52 364.282C2562.3 357.67 2544.18 356.089 2542.04 354.306C2537.3 351.656 2533.9 347.757 2533.37 337.888C2533.37 337.888 2526.29 343.379 2521.89 342.536C2517.49 341.691 2512.47 337.888 2512.47 337.888V337.892V337.892Z" fill="#F0B97D"/>
<path d="M2501.07 321.751C2505.43 331.104 2507.05 334.757 2512.47 338.96C2512.47 338.96 2517.49 342.832 2521.89 343.696C2526.29 344.558 2533.37 338.96 2533.37 338.96C2538.8 334.757 2540.41 331.103 2544.78 321.751C2545.85 322.32 2546.97 323.094 2547.84 322.098C2548.71 321.103 2552.85 308.161 2552.1 306.418C2551.35 304.674 2550.63 305.786 2549.52 306.576C2549.58 306.201 2548.64 311.25 2548.66 310.483C2548.76 304.375 2544.47 303.408 2543.12 287.244C2523.33 306.884 2504.84 297.873 2498.39 299.187C2496.52 299.568 2495.98 304.349 2496.32 306.575C2489.34 301.588 2497.82 321.896 2498 322.098C2498.87 323.094 2499.99 322.32 2501.06 321.751H2501.07V321.751Z" fill="#FED198"/>
<path d="M2503.6 354.035C2495.42 357.459 2482.7 357.611 2476.33 365.94C2475.12 367.517 2469.39 423.753 2465.13 458.325C2509.79 440.315 2546.49 406.726 2568.52 364.29C2561.79 356.718 2548.52 357.407 2542.19 354.006L2523.62 391.97L2503.6 354.032V354.035Z" fill="#FF6600"/>
<path d="M2493.3 266.309C2507.29 256.934 2541.34 257.336 2553.81 266.809L2555.1 282.492C2533.33 276.805 2514.13 277.096 2491.87 282.848L2493.3 266.311V266.309V266.309Z" fill="#807D7D"/>
<path d="M2512.36 370.617C2518.14 372.676 2527.97 372.686 2534.07 370.609L2523.62 391.973L2512.36 370.617Z" fill="white"/>
<path d="M2482.9 258.469L2482.99 285.189V286.017H2481.4V285.189V258.976C2481.46 257.442 2482.79 257.231 2482.9 258.467L2482.9 258.469Z" fill="white"/>
<path d="M2479.27 290.069C2479.27 297.289 2477.75 303.502 2477.67 303.918C2477.59 304.332 2479.05 305.693 2479.33 304.332C2479.61 302.971 2479.3 304.361 2480.59 304.45C2481.86 304.538 2482.13 303.906 2482.13 303.887C2482.14 303.906 2482.41 304.536 2483.68 304.45C2484.97 304.362 2484.66 302.971 2484.94 304.332C2485.22 305.693 2486.68 304.332 2486.6 303.918C2486.51 303.503 2485 297.291 2485 290.069C2484.93 287.306 2483.85 285.999 2482.13 285.6C2480.42 285.999 2479.34 287.306 2479.27 290.069Z" fill="#FF5B61"/>
<path d="M2482.13 285.599C2484.97 285.599 2485.05 287.401 2484.91 289.07C2484.29 288.527 2483.27 288.173 2482.13 288.173C2480.99 288.173 2479.98 288.527 2479.35 289.07C2479.25 287.133 2479.29 285.599 2482.13 285.599Z" fill="#807D7D"/>
<path d="M2282.96 169.335L2397.07 221.14L2504.49 172.377L2390.37 120.572L2282.96 169.335Z" fill="#666666"/>
<path d="M2314.77 349.511C2325.99 330.653 2343.67 308.765 2325.72 275.491C2299.29 159.937 2421.08 136.508 2439.5 184.197C2469.47 195.498 2468.67 257.7 2453.26 290.249C2452.57 303.643 2438.64 315.324 2463.81 349.883L2465.62 349.486L2465.62 349.488C2432.97 358.947 2349.29 354.591 2314.77 349.511H2314.77V349.511Z" fill="#080808"/>
<path d="M2370.76 325.157C2369.64 345.852 2362.29 353.664 2352.11 359.105C2346.93 363.683 2307.93 364.911 2296.53 383.317C2295.28 385.339 2286.33 417.978 2281.97 441.527C2313.17 461.449 2350.23 473 2390 473C2430.71 473 2468.59 460.882 2500.25 440.072C2496.01 415.512 2492.29 385.856 2490.72 383.317C2478.68 363.878 2437.71 363.653 2432.94 359.68C2422.98 354.105 2415.82 345.905 2414.71 325.157C2414.71 325.157 2399.82 336.704 2390.57 334.926C2381.31 333.149 2370.76 325.157 2370.76 325.157Z" fill="#682C1E"/>
<path d="M2346.77 291.217C2355.96 310.883 2359.35 318.564 2370.76 327.403C2370.76 327.403 2381.31 335.55 2390.57 337.362C2399.82 339.174 2414.71 327.403 2414.71 327.403C2426.12 318.564 2429.51 310.884 2438.7 291.217C2440.95 292.415 2443.3 294.04 2445.13 291.945C2446.96 289.851 2455.66 262.643 2454.09 258.973C2452.52 255.301 2451 257.641 2448.67 259.303C2448.79 258.512 2446.82 269.136 2446.85 267.521C2447.07 254.68 2438.05 252.638 2435.22 218.656C2393.59 259.952 2354.71 241.003 2341.16 243.766C2337.23 244.567 2336.08 254.618 2336.81 259.303C2322.11 248.817 2339.97 291.517 2340.34 291.945C2342.17 294.04 2344.52 292.415 2346.77 291.217Z" fill="url(#paint0_radial)"/>
<path d="M2352.1 359.094C2338.11 366.569 2311.39 357.848 2295.43 383.619C2294.46 385.19 2287.5 416.457 2280.63 440.656C2312.11 461.109 2349.66 472.998 2390 472.998C2433.05 472.998 2472.93 459.459 2505.63 436.414C2498.97 412.478 2492.14 385.609 2490.72 383.315C2474.72 357.469 2447.26 366.559 2433.25 359.039L2394.2 438.869L2352.11 359.093L2352.1 359.094Z" fill="#277BCF"/>
<path d="M2330.46 174.63C2359.86 154.919 2431.46 155.764 2457.7 175.687L2460.41 208.662C2414.63 196.705 2374.24 197.317 2327.44 209.407L2330.46 174.631L2330.46 174.63Z" fill="#807D7D"/>
<path d="M2370.53 393.965C2382.68 398.298 2403.35 398.324 2416.17 393.949L2394.2 438.874L2370.53 393.965H2370.53V393.965Z" fill="#FBAB18"/>
<path d="M2308.58 158.144L2308.76 214.331V216.071H2305.42V214.331V159.208C2305.53 155.989 2308.35 155.546 2308.58 158.142V158.144Z" fill="white"/>
<path d="M2300.94 224.59C2300.94 239.774 2297.76 252.841 2297.58 253.711C2297.4 254.584 2300.47 257.445 2301.06 254.584C2301.65 251.719 2301 254.644 2303.72 254.831C2306.39 255.015 2306.95 253.692 2306.96 253.648C2306.98 253.692 2307.54 255.015 2310.21 254.831C2312.93 254.646 2312.28 251.72 2312.87 254.584C2313.46 257.445 2316.52 254.584 2316.35 253.711C2316.17 252.841 2312.99 239.774 2312.99 224.59C2312.84 218.777 2310.57 216.035 2306.96 215.197C2303.36 216.035 2301.09 218.777 2300.94 224.59Z" fill="#FF5B61"/>
<path d="M2306.96 215.197C2312.93 215.197 2313.11 218.986 2312.8 222.496C2311.49 221.353 2309.36 220.612 2306.96 220.612C2304.56 220.612 2302.44 221.355 2301.13 222.496C2300.91 218.42 2301 215.197 2306.96 215.197Z" fill="#807D7D"/>
<defs>
<radialGradient id="paint0_radial" cx="0" cy="0" r="1" gradientUnits="userSpaceOnUse" gradientTransform="translate(2392.65 278.104) rotate(-0.312652) scale(76.048 78.8415)">
<stop stop-color="#682C1E"/>
<stop offset="0.209945" stop-color="#672C1D"/>
<stop offset="0.359116" stop-color="#622A1C"/>
<stop offset="0.513812" stop-color="#5A271A"/>
<stop offset="0.635359" stop-color="#4F2217"/>
<stop offset="0.773481" stop-color="#411B12"/>
<stop offset="1" stop-color="#270C06"/>
</radialGradient>
</defs>
</svg>
