<svg width="2480" height="453" viewBox="0 0 2480 453" fill="none" xmlns="http://www.w3.org/2000/svg">
<rect width="2480" height="453" fill="white"/>
<path d="M113.012 332.09C100.408 330.371 92.7448 323.711 90.0234 312.109L90.2383 309.746C90.8112 308.027 91.4557 306.094 92.1719 303.945C92.888 301.51 93.6758 299.147 94.5352 296.855C95.3945 294.421 96.8268 292.272 98.832 290.41C99.2617 289.121 100.049 287.188 101.195 284.609C102.484 281.888 104.561 277.878 107.426 272.578C109.717 268.424 111.508 265.13 112.797 262.695C114.229 260.26 115.375 258.398 116.234 257.109C114.802 254.531 112.797 252.025 110.219 249.59C107.927 245.293 105.922 241.211 104.203 237.344C102.628 233.333 101.41 229.753 100.551 226.602C100.408 223.164 99.8346 219.655 98.832 216.074C98.4023 214.212 97.9727 212.35 97.543 210.488C97.1133 208.626 96.8984 206.693 96.8984 204.688C96.3255 203.685 95.8242 202.396 95.3945 200.82L95.8242 198.242C96.5404 197.096 96.6836 195.592 96.2539 193.73C95.9674 191.725 95.5378 189.72 94.9648 187.715C94.5352 185.853 94.1055 183.919 93.6758 181.914C93.3893 179.766 93.3177 177.689 93.4609 175.684C93.6042 173.678 94.1055 171.745 94.9648 169.883C95.9674 168.021 97.6146 166.445 99.9062 165.156L102.055 163.652L104.203 164.941C105.779 165.944 107.283 166.803 108.715 167.52C110.147 168.236 111.579 168.952 113.012 169.668C114.73 170.527 116.449 171.458 118.168 172.461C119.887 173.32 121.749 174.323 123.754 175.469L125.902 176.973L125.688 179.336C125.688 179.622 125.759 179.98 125.902 180.41C126.046 180.84 126.26 181.198 126.547 181.484L128.91 182.129L129.125 185.137V187.715C129.125 189.004 129.197 189.935 129.34 190.508C129.483 190.938 129.77 191.439 130.199 192.012L131.273 194.805C131.273 197.383 131.488 199.674 131.918 201.68C132.348 203.685 132.849 205.69 133.422 207.695C134.138 209.701 134.711 211.777 135.141 213.926C135.57 215.931 135.642 218.151 135.355 220.586C136.215 220.156 137.074 219.512 137.934 218.652C138.22 218.366 138.507 218.079 138.793 217.793C139.223 217.507 139.652 217.22 140.082 216.934L155.121 196.523L154.691 193.945L160.062 188.789C161.495 187.643 162.855 186.497 164.145 185.352C165.434 184.062 166.508 182.63 167.367 181.055L168.656 179.121C175.102 170.527 183.409 165.228 193.578 163.223L197.23 162.363L198.305 165.801C199.021 167.806 200.382 169.596 202.387 171.172C204.535 172.604 206.827 174.036 209.262 175.469L211.625 176.973C212.484 178.691 212.914 179.98 212.914 180.84C212.914 181.699 212.842 182.415 212.699 182.988L213.773 185.781C212.198 189.935 210.479 192.943 208.617 194.805C206.755 196.523 204.822 198.171 202.816 199.746C201.241 201.035 199.809 202.324 198.52 203.613C197.23 204.902 196.228 206.335 195.512 207.91L193.793 210.059C190.212 211.921 187.921 214.642 186.918 218.223L186.059 221.23H182.836C182.693 221.23 182.335 221.589 181.762 222.305C181.189 222.878 180.329 224.382 179.184 226.816C177.895 228.535 176.964 229.681 176.391 230.254C175.961 230.684 175.603 231.042 175.316 231.328C175.03 232.044 174.743 232.689 174.457 233.262C174.314 233.835 174.099 234.551 173.812 235.41L172.523 237.129C171.234 238.275 170.303 239.421 169.73 240.566C169.158 241.569 168.513 242.786 167.797 244.219C167.224 245.508 166.579 246.868 165.863 248.301C165.147 249.59 164.145 250.879 162.855 252.168L163.285 254.531L161.566 256.035C160.421 257.038 159.418 258.327 158.559 259.902C157.699 261.335 156.84 262.839 155.98 264.414C155.121 266.133 154.19 267.852 153.188 269.57C152.185 271.289 150.896 272.865 149.32 274.297C148.318 276.875 147.387 278.88 146.527 280.312C145.811 281.745 144.522 283.464 142.66 285.469C140.941 292.344 136.859 299.72 130.414 307.598C130.271 309.173 129.77 310.749 128.91 312.324C128.194 313.757 127.406 315.117 126.547 316.406C126.26 316.979 125.902 317.624 125.473 318.34C125.186 318.913 124.971 319.342 124.828 319.629L124.184 321.992C123.324 323.568 122.393 324.857 121.391 325.859C120.531 326.862 119.672 327.793 118.812 328.652C118.383 328.939 117.953 329.297 117.523 329.727C117.237 330.156 116.951 330.514 116.664 330.801L113.012 332.09ZM234.613 325.859C228.311 326.719 222.582 326.432 217.426 325C212.27 323.568 207.615 321.348 203.461 318.34C199.451 315.332 195.941 311.751 192.934 307.598C190.069 303.444 187.706 299.004 185.844 294.277C184.555 284.538 184.913 275.729 186.918 267.852C188.923 259.831 191.859 252.454 195.727 245.723C199.594 238.991 203.962 232.689 208.832 226.816C213.845 220.944 218.643 215.286 223.227 209.844C224.229 210.273 225.017 210.273 225.59 209.844C226.306 209.414 226.879 208.841 227.309 208.125C227.882 207.409 228.454 206.693 229.027 205.977C229.743 205.26 230.531 204.759 231.391 204.473C231.964 203.184 232.68 202.109 233.539 201.25C234.542 200.391 235.544 199.603 236.547 198.887C237.693 198.027 238.695 197.168 239.555 196.309C240.557 195.449 241.417 194.375 242.133 193.086C243.565 192.799 244.783 192.298 245.785 191.582C246.931 190.866 247.934 190.078 248.793 189.219C249.796 188.359 250.798 187.572 251.801 186.855C252.803 186.139 254.021 185.566 255.453 185.137V182.344C258.604 180.911 260.896 179.336 262.328 177.617C263.76 175.898 265.479 173.678 267.484 170.957C269.06 170.814 270.277 170.742 271.137 170.742C272.139 170.742 273.643 170.599 275.648 170.312C276.938 167.878 278.155 166.087 279.301 164.941C280.447 163.796 282.094 162.507 284.242 161.074C286.391 162.22 288.682 162.936 291.117 163.223C293.552 163.366 295.772 164.44 297.777 166.445C297.921 168.164 298.422 169.525 299.281 170.527C300.141 171.387 301.072 172.246 302.074 173.105C303.077 173.822 304.079 174.609 305.082 175.469C306.085 176.328 306.729 177.546 307.016 179.121C307.732 179.121 308.161 178.978 308.305 178.691C308.591 178.405 309.092 178.333 309.809 178.477C310.095 179.622 310.382 180.553 310.668 181.27C310.954 181.986 311.241 182.63 311.527 183.203C311.957 183.776 312.315 184.421 312.602 185.137C313.031 185.853 313.389 186.712 313.676 187.715C312.96 189.434 312.315 191.296 311.742 193.301C311.169 195.163 310.023 196.452 308.305 197.168C308.305 198.314 308.734 198.958 309.594 199.102C310.453 199.102 310.954 199.603 311.098 200.605C311.241 201.895 311.026 202.969 310.453 203.828C314.464 210.56 318.116 217.65 321.41 225.098C324.704 232.402 328.428 239.421 332.582 246.152C332.296 248.158 332.367 250.163 332.797 252.168C333.37 254.03 334.014 255.892 334.73 257.754C335.59 259.616 336.378 261.478 337.094 263.34C337.81 265.202 338.311 267.064 338.598 268.926C338.884 271.361 338.884 274.01 338.598 276.875C338.311 279.596 337.738 282.246 336.879 284.824C336.02 287.402 334.874 289.837 333.441 292.129C332.009 294.277 330.362 295.924 328.5 297.07C326.208 299.935 323.344 302.298 319.906 304.16C316.469 305.879 313.318 307.956 310.453 310.391C308.448 311.536 306.299 312.396 304.008 312.969C301.716 313.398 299.353 313.9 296.918 314.473C295.056 315.618 292.836 316.764 290.258 317.91C287.68 318.913 285.03 319.844 282.309 320.703C279.587 321.562 276.866 322.279 274.145 322.852C271.423 323.281 268.988 323.353 266.84 323.066C261.684 324.928 256.671 326.217 251.801 326.934C246.931 327.65 241.202 327.292 234.613 325.859ZM237.406 247.656C235.974 250.951 234.255 253.958 232.25 256.68C230.388 259.258 228.526 261.908 226.664 264.629C224.802 267.35 223.155 270.286 221.723 273.438C220.434 276.445 219.717 280.026 219.574 284.18C222.439 286.615 225.805 288.118 229.672 288.691C233.682 289.121 237.764 289.193 241.918 288.906C246.072 288.477 250.225 287.904 254.379 287.188C258.533 286.471 262.257 286.113 265.551 286.113C265.551 284.824 266.124 284.18 267.27 284.18C273.285 283.607 278.871 281.96 284.027 279.238C289.184 276.374 294.555 273.509 300.141 270.645C300.857 268.926 301.788 267.422 302.934 266.133C304.079 264.844 304.724 262.982 304.867 260.547C304.151 259.258 303.65 258.184 303.363 257.324C303.22 256.465 303.148 255.176 303.148 253.457C299.424 248.301 296.202 242.715 293.48 236.699C290.759 230.54 287.608 224.74 284.027 219.297C283.741 220.013 283.168 220.729 282.309 221.445C281.449 222.161 280.518 222.018 279.516 221.016C279.086 222.448 278.441 223.451 277.582 224.023C276.723 224.453 275.72 224.668 274.574 224.668C273.572 224.668 272.497 224.453 271.352 224.023C270.349 223.594 269.418 223.021 268.559 222.305C263.546 226.315 258.533 230.182 253.52 233.906C248.65 237.63 244.21 241.999 240.199 247.012C239.483 247.441 239.053 247.585 238.91 247.441C238.767 247.298 238.266 247.37 237.406 247.656ZM357.719 218.652C357.432 216.79 357.074 215.645 356.645 215.215C357.647 212.637 358.363 210.13 358.793 207.695C359.366 205.117 359.796 202.682 360.082 200.391C360.368 198.385 360.655 196.523 360.941 194.805C361.371 193.086 361.872 191.439 362.445 189.863C364.88 189.29 366.671 188.288 367.816 186.855C369.105 185.28 370.108 183.919 370.824 182.773C373.402 182.63 375.049 182.988 375.766 183.848C376.625 184.707 377.556 186.139 378.559 188.145C379.275 189.72 380.277 191.439 381.566 193.301C382.855 195.02 384.789 196.38 387.367 197.383C387.797 198.958 388.298 200.462 388.871 201.895C389.444 203.327 390.089 204.831 390.805 206.406C392.094 209.414 393.311 212.565 394.457 215.859C395.603 219.01 396.247 222.018 396.391 224.883C394.672 228.177 393.311 231.973 392.309 236.27C391.449 240.566 390.876 244.935 390.59 249.375C390.447 253.672 390.59 257.826 391.02 261.836C391.449 265.846 392.165 269.212 393.168 271.934L394.457 275.371L399.184 274.941C404.34 273.652 408.995 272.22 413.148 270.645C417.302 268.926 421.169 266.921 424.75 264.629C428.331 262.337 431.768 259.759 435.062 256.895C438.357 253.887 441.794 250.378 445.375 246.367C448.812 242.357 451.892 237.845 454.613 232.832C457.335 227.676 459.555 222.376 461.273 216.934C463.135 211.491 464.568 206.048 465.57 200.605C466.573 195.163 467.217 190.078 467.504 185.352C470.225 184.062 471.729 181.986 472.016 179.121L471.371 176.328C470.941 175.612 470.727 174.967 470.727 174.395C470.87 173.678 471.085 173.034 471.371 172.461C472.517 169.167 474.952 166.732 478.676 165.156C481.254 166.875 483.617 168.737 485.766 170.742C488.057 172.747 490.134 174.753 491.996 176.758C492.283 180.625 492.855 183.991 493.715 186.855C494.574 189.577 495.505 192.227 496.508 194.805C497.51 197.24 498.37 199.603 499.086 201.895C499.945 204.186 500.518 206.979 500.805 210.273C499.372 214.57 498.298 218.652 497.582 222.52C497.009 226.243 496.436 230.182 495.863 234.336L495.434 236.699C492.855 241.139 490.277 245.723 487.699 250.449C485.264 255.033 483.259 259.043 481.684 262.48C480.824 263.34 480.036 264.342 479.32 265.488C478.747 266.634 478.174 267.78 477.602 268.926C477.315 269.355 476.885 270.072 476.312 271.074C475.883 272.077 475.453 272.793 475.023 273.223L469.867 271.289L468.578 277.949L465.141 278.809L462.562 281.816C459.268 287.546 455.759 292.344 452.035 296.211C448.454 300.078 444.372 303.516 439.789 306.523C435.349 309.531 430.264 312.396 424.535 315.117C418.949 317.695 412.504 320.488 405.199 323.496C402.335 323.066 399.828 322.852 397.68 322.852C395.674 322.708 393.669 322.565 391.664 322.422C389.659 322.422 387.725 322.35 385.863 322.207C384.001 322.064 381.853 321.849 379.418 321.562C378.845 320.273 378.057 319.342 377.055 318.77C376.052 318.197 375.121 317.91 374.262 317.91C371.397 316.478 369.249 314.473 367.816 311.895C366.384 309.316 364.88 306.452 363.305 303.301C362.589 301.582 361.801 299.863 360.941 298.145C360.225 296.426 359.294 294.779 358.148 293.203L362.445 291.914L356.859 285.469C356.43 285.039 355.928 284.609 355.355 284.18C354.926 283.75 354.496 283.249 354.066 282.676V278.594C353.493 266.849 353.207 256.035 353.207 246.152C353.35 236.126 354.711 227.318 357.289 219.727L357.719 218.652ZM534.105 304.805C532.673 305.951 531.814 307.454 531.527 309.316C531.241 311.035 530.883 312.754 530.453 314.473C530.023 316.191 529.236 317.695 528.09 318.984C527.087 320.13 525.225 320.632 522.504 320.488C521.931 321.204 521.788 321.634 522.074 321.777C522.504 321.921 522.862 322.565 523.148 323.711C521.143 323.424 519.711 323.568 518.852 324.141C517.992 324.714 516.918 325.143 515.629 325.43C512.335 324.427 509.542 322.637 507.25 320.059C505.102 317.337 503.168 314.401 501.449 311.25C499.874 308.099 498.441 304.876 497.152 301.582C496.007 298.288 494.789 295.423 493.5 292.988C493.5 292.415 493.786 292.201 494.359 292.344C494.789 292.344 495.219 292.344 495.648 292.344C494.932 290.911 494.431 289.336 494.145 287.617C493.715 285.755 492.999 284.251 491.996 283.105C496.15 274.225 500.59 264.987 505.316 255.391C510.043 245.651 514.77 235.84 519.496 225.957C524.366 215.931 529.164 205.905 533.891 195.879C538.76 185.71 543.415 175.755 547.855 166.016C551.866 167.448 555.733 169.167 559.457 171.172C563.324 173.034 566.833 175.254 569.984 177.832C573.135 180.41 575.785 183.418 577.934 186.855C580.225 190.15 581.729 193.945 582.445 198.242C582.159 199.102 581.801 199.388 581.371 199.102C580.941 198.815 580.583 198.958 580.297 199.531C581.013 200.391 581.371 201.035 581.371 201.465C581.514 201.751 581.514 202.109 581.371 202.539C581.228 202.826 581.156 203.255 581.156 203.828C581.156 204.401 581.514 205.189 582.23 206.191C581.514 206.048 581.013 206.191 580.727 206.621C580.44 206.908 579.939 206.908 579.223 206.621C579.939 208.626 580.154 210.202 579.867 211.348C579.581 212.493 579.151 213.568 578.578 214.57C578.005 215.43 577.504 216.432 577.074 217.578C576.788 218.581 576.931 220.013 577.504 221.875C576.931 221.875 576.501 222.018 576.215 222.305C576.072 222.448 575.928 222.663 575.785 222.949C575.642 223.236 575.427 223.522 575.141 223.809C574.997 223.952 574.639 223.952 574.066 223.809C574.496 227.533 574.639 231.328 574.496 235.195C574.353 238.919 574.21 242.786 574.066 246.797C573.923 250.664 573.923 254.674 574.066 258.828C574.21 262.982 574.783 267.279 575.785 271.719C581.944 268.138 586.885 263.483 590.609 257.754C594.477 252.025 597.484 245.651 599.633 238.633C601.924 231.615 603.643 224.095 604.789 216.074C606.078 208.053 607.367 199.889 608.656 191.582C610.232 190.007 611.449 188.073 612.309 185.781C613.311 183.49 614.099 181.126 614.672 178.691C615.388 176.257 616.033 173.822 616.605 171.387C617.322 168.809 618.253 166.517 619.398 164.512C621.977 164.798 624.125 165.586 625.844 166.875C627.706 168.021 629.424 169.382 631 170.957C632.576 172.389 634.223 173.75 635.941 175.039C637.66 176.328 639.809 177.188 642.387 177.617C644.392 180.482 646.254 183.275 647.973 185.996C649.691 188.574 650.837 191.51 651.41 194.805C650.551 196.237 649.906 197.812 649.477 199.531C649.047 201.25 648.546 202.969 647.973 204.688C647.543 206.406 646.898 207.982 646.039 209.414C645.18 210.846 643.962 212.064 642.387 213.066C641.957 217.363 641.312 221.374 640.453 225.098C639.594 228.822 638.806 232.474 638.09 236.055C637.374 239.635 636.729 243.359 636.156 247.227C635.583 251.094 635.368 255.319 635.512 259.902C634.223 264.056 632.79 268.353 631.215 272.793C629.639 277.09 628.493 281.1 627.777 284.824C625.056 286.973 622.908 289.622 621.332 292.773C619.757 295.924 618.109 299.076 616.391 302.227C615.674 302.799 615.245 302.943 615.102 302.656C614.958 302.227 614.314 301.94 613.168 301.797C613.311 303.086 613.025 303.945 612.309 304.375C611.736 304.661 611.807 305.664 612.523 307.383C610.089 308.529 607.94 310.033 606.078 311.895C604.216 313.757 602.139 315.475 599.848 317.051C597.699 318.626 595.121 319.701 592.113 320.273C589.249 320.703 585.453 320.059 580.727 318.34C573.708 313.184 567.406 307.24 561.82 300.508C556.234 293.776 551.794 285.827 548.5 276.66C547.068 277.09 545.993 278.021 545.277 279.453C544.561 280.885 543.917 282.389 543.344 283.965C542.771 285.54 542.198 286.973 541.625 288.262C541.052 289.551 540.193 290.195 539.047 290.195C538.76 291.484 538.188 292.702 537.328 293.848C536.612 294.85 535.896 295.924 535.18 297.07C534.464 298.073 533.891 299.219 533.461 300.508C533.174 301.797 533.389 303.229 534.105 304.805ZM645.824 274.082C645.824 272.507 646.039 271.074 646.469 269.785C646.898 268.496 646.97 266.849 646.684 264.844C651.124 255.391 656.137 246.654 661.723 238.633C667.452 230.469 674.255 223.307 682.133 217.148C683.422 216.146 684.424 215.143 685.141 214.141C686 212.995 686.788 211.921 687.504 210.918C688.363 209.915 689.294 209.056 690.297 208.34C691.299 207.48 692.589 206.908 694.164 206.621C697.745 202.467 702.042 198.672 707.055 195.234C712.068 191.797 717.296 188.503 722.738 185.352C728.181 182.201 733.624 178.978 739.066 175.684C744.652 172.389 749.665 168.809 754.105 164.941C755.681 165.944 756.898 166.302 757.758 166.016C758.76 165.586 759.763 165.514 760.766 165.801C762.055 168.522 763.702 170.456 765.707 171.602C767.855 172.604 770.004 173.678 772.152 174.824C774.444 175.827 776.521 177.116 778.383 178.691C780.388 180.124 781.892 182.129 782.895 184.707C781.892 184.707 781.391 185.065 781.391 185.781C781.534 186.497 781.749 187.285 782.035 188.145C782.322 189.004 782.465 189.792 782.465 190.508C782.465 191.224 781.82 191.582 780.531 191.582C780.531 192.585 781.033 193.086 782.035 193.086C783.038 193.086 783.539 193.587 783.539 194.59C783.539 195.449 783.324 196.165 782.895 196.738C782.608 197.168 782.608 197.956 782.895 199.102C779.457 201.393 775.59 203.613 771.293 205.762C767.139 207.767 762.699 209.915 757.973 212.207C753.389 214.499 748.663 217.005 743.793 219.727C739.066 222.305 734.34 225.312 729.613 228.75C724.887 232.188 720.089 235.983 715.219 240.137C710.492 244.29 705.909 248.73 701.469 253.457C697.029 258.04 692.875 262.839 689.008 267.852C685.141 272.721 681.846 277.52 679.125 282.246C679.411 282.962 679.77 283.607 680.199 284.18C680.772 284.753 681.202 285.397 681.488 286.113C686.931 286.4 692.016 286.4 696.742 286.113C701.469 285.684 706.195 285.97 710.922 286.973C711.495 286.543 711.853 285.97 711.996 285.254C712.139 284.538 712.569 284.036 713.285 283.75C723.025 282.747 732.12 281.172 740.57 279.023C749.021 276.732 757.615 274.44 766.352 272.148C763.773 271.146 761.482 270.358 759.477 269.785C758.617 268.926 758.617 268.21 759.477 267.637C760.479 266.921 761.267 266.204 761.84 265.488C759.548 264.199 757.615 262.48 756.039 260.332C754.607 258.184 753.747 255.391 753.461 251.953C754.464 251.094 754.965 250.091 754.965 248.945C754.965 247.799 754.464 246.868 753.461 246.152C752.745 245.866 752.315 245.866 752.172 246.152C752.029 246.439 751.885 246.725 751.742 247.012C751.742 247.298 751.599 247.585 751.312 247.871C751.169 248.158 750.811 248.158 750.238 247.871C750.382 246.296 750.74 245.007 751.312 244.004C751.885 243.001 752.315 241.784 752.602 240.352L770.434 228.535C772.296 229.967 774.587 231.471 777.309 233.047C780.03 234.622 782.895 236.198 785.902 237.773C788.91 239.349 791.99 240.996 795.141 242.715C798.292 244.29 801.228 245.866 803.949 247.441C806.527 248.587 808.747 250.02 810.609 251.738C812.471 253.314 814.262 255.033 815.98 256.895C817.699 258.613 819.418 260.332 821.137 262.051C822.855 263.77 824.932 265.202 827.367 266.348C827.081 268.639 827.224 270.501 827.797 271.934C828.37 273.366 828.513 275.085 828.227 277.09C825.505 281.96 822.211 286.113 818.344 289.551C814.477 292.845 810.108 295.71 805.238 298.145C800.512 300.579 795.427 302.656 789.984 304.375C784.542 305.951 778.956 307.526 773.227 309.102C767.497 310.534 761.697 312.109 755.824 313.828C750.095 315.404 744.438 317.266 738.852 319.414C736.417 319.414 734.34 319.486 732.621 319.629C730.902 319.772 729.255 319.987 727.68 320.273C726.104 320.56 724.529 320.846 722.953 321.133C721.378 321.419 719.659 321.634 717.797 321.777C717.081 321.634 716.579 321.777 716.293 322.207C716.15 322.637 715.863 322.995 715.434 323.281C712.569 323.711 709.991 323.926 707.699 323.926C705.408 323.926 703.474 323.926 701.898 323.926C699.893 323.926 697.816 324.212 695.668 324.785C693.52 325.358 691.514 325.573 689.652 325.43C676.762 324.857 666.664 320.273 659.359 311.68C652.055 303.086 648.044 291.27 647.328 276.23C647.471 275.514 647.328 275.085 646.898 274.941C646.469 274.655 646.111 274.368 645.824 274.082ZM900.844 274.082C900.844 272.507 901.059 271.074 901.488 269.785C901.918 268.496 901.99 266.849 901.703 264.844C906.143 255.391 911.156 246.654 916.742 238.633C922.471 230.469 929.275 223.307 937.152 217.148C938.441 216.146 939.444 215.143 940.16 214.141C941.02 212.995 941.807 211.921 942.523 210.918C943.383 209.915 944.314 209.056 945.316 208.34C946.319 207.48 947.608 206.908 949.184 206.621C952.764 202.467 957.061 198.672 962.074 195.234C967.087 191.797 972.315 188.503 977.758 185.352C983.201 182.201 988.643 178.978 994.086 175.684C999.672 172.389 1004.68 168.809 1009.12 164.941C1010.7 165.944 1011.92 166.302 1012.78 166.016C1013.78 165.586 1014.78 165.514 1015.79 165.801C1017.07 168.522 1018.72 170.456 1020.73 171.602C1022.88 172.604 1025.02 173.678 1027.17 174.824C1029.46 175.827 1031.54 177.116 1033.4 178.691C1035.41 180.124 1036.91 182.129 1037.91 184.707C1036.91 184.707 1036.41 185.065 1036.41 185.781C1036.55 186.497 1036.77 187.285 1037.05 188.145C1037.34 189.004 1037.48 189.792 1037.48 190.508C1037.48 191.224 1036.84 191.582 1035.55 191.582C1035.55 192.585 1036.05 193.086 1037.05 193.086C1038.06 193.086 1038.56 193.587 1038.56 194.59C1038.56 195.449 1038.34 196.165 1037.91 196.738C1037.63 197.168 1037.63 197.956 1037.91 199.102C1034.48 201.393 1030.61 203.613 1026.31 205.762C1022.16 207.767 1017.72 209.915 1012.99 212.207C1008.41 214.499 1003.68 217.005 998.812 219.727C994.086 222.305 989.359 225.312 984.633 228.75C979.906 232.188 975.108 235.983 970.238 240.137C965.512 244.29 960.928 248.73 956.488 253.457C952.048 258.04 947.895 262.839 944.027 267.852C940.16 272.721 936.866 277.52 934.145 282.246C934.431 282.962 934.789 283.607 935.219 284.18C935.792 284.753 936.221 285.397 936.508 286.113C941.951 286.4 947.035 286.4 951.762 286.113C956.488 285.684 961.215 285.97 965.941 286.973C966.514 286.543 966.872 285.97 967.016 285.254C967.159 284.538 967.589 284.036 968.305 283.75C978.044 282.747 987.139 281.172 995.59 279.023C1004.04 276.732 1012.63 274.44 1021.37 272.148C1018.79 271.146 1016.5 270.358 1014.5 269.785C1013.64 268.926 1013.64 268.21 1014.5 267.637C1015.5 266.921 1016.29 266.204 1016.86 265.488C1014.57 264.199 1012.63 262.48 1011.06 260.332C1009.63 258.184 1008.77 255.391 1008.48 251.953C1009.48 251.094 1009.98 250.091 1009.98 248.945C1009.98 247.799 1009.48 246.868 1008.48 246.152C1007.76 245.866 1007.33 245.866 1007.19 246.152C1007.05 246.439 1006.9 246.725 1006.76 247.012C1006.76 247.298 1006.62 247.585 1006.33 247.871C1006.19 248.158 1005.83 248.158 1005.26 247.871C1005.4 246.296 1005.76 245.007 1006.33 244.004C1006.9 243.001 1007.33 241.784 1007.62 240.352L1025.45 228.535C1027.32 229.967 1029.61 231.471 1032.33 233.047C1035.05 234.622 1037.91 236.198 1040.92 237.773C1043.93 239.349 1047.01 240.996 1050.16 242.715C1053.31 244.29 1056.25 245.866 1058.97 247.441C1061.55 248.587 1063.77 250.02 1065.63 251.738C1067.49 253.314 1069.28 255.033 1071 256.895C1072.72 258.613 1074.44 260.332 1076.16 262.051C1077.88 263.77 1079.95 265.202 1082.39 266.348C1082.1 268.639 1082.24 270.501 1082.82 271.934C1083.39 273.366 1083.53 275.085 1083.25 277.09C1080.52 281.96 1077.23 286.113 1073.36 289.551C1069.5 292.845 1065.13 295.71 1060.26 298.145C1055.53 300.579 1050.45 302.656 1045 304.375C1039.56 305.951 1033.98 307.526 1028.25 309.102C1022.52 310.534 1016.72 312.109 1010.84 313.828C1005.11 315.404 999.457 317.266 993.871 319.414C991.436 319.414 989.359 319.486 987.641 319.629C985.922 319.772 984.275 319.987 982.699 320.273C981.124 320.56 979.548 320.846 977.973 321.133C976.397 321.419 974.678 321.634 972.816 321.777C972.1 321.634 971.599 321.777 971.312 322.207C971.169 322.637 970.883 322.995 970.453 323.281C967.589 323.711 965.01 323.926 962.719 323.926C960.427 323.926 958.493 323.926 956.918 323.926C954.913 323.926 952.836 324.212 950.688 324.785C948.539 325.358 946.534 325.573 944.672 325.43C931.781 324.857 921.684 320.273 914.379 311.68C907.074 303.086 903.064 291.27 902.348 276.23C902.491 275.514 902.348 275.085 901.918 274.941C901.488 274.655 901.13 274.368 900.844 274.082ZM1080.45 306.523C1079.74 306.667 1079.09 306.165 1078.52 305.02C1077.95 303.73 1077.3 302.513 1076.59 301.367H1078.95C1077.95 298.216 1077.66 295.352 1078.09 292.773C1078.66 290.052 1079.31 287.474 1080.02 285.039C1080.74 282.461 1081.31 280.026 1081.74 277.734C1082.32 275.299 1082.1 272.793 1081.1 270.215C1081.81 270.645 1082.32 270.501 1082.6 269.785C1083.03 268.926 1083.32 267.923 1083.46 266.777C1083.75 265.488 1083.82 264.199 1083.68 262.91C1083.68 261.478 1083.6 260.332 1083.46 259.473C1085.32 255.033 1086.76 250.449 1087.76 245.723C1088.9 240.996 1089.91 236.341 1090.77 231.758C1091.62 227.031 1092.56 222.52 1093.56 218.223C1094.7 213.783 1096.14 209.629 1097.86 205.762C1099.86 205.475 1101.94 205.762 1104.09 206.621C1106.38 207.337 1107.88 208.268 1108.6 209.414C1113.04 205.977 1116.98 201.823 1120.41 196.953C1123.85 192.083 1127.29 187.357 1130.73 182.773C1134.31 178.047 1138.32 173.893 1142.76 170.312C1147.2 166.732 1152.71 164.583 1159.3 163.867C1162.74 166.302 1166.61 168.952 1170.9 171.816C1175.2 174.538 1178.71 177.975 1181.43 182.129C1182.58 182.845 1183.65 183.633 1184.65 184.492C1185.8 185.208 1186.94 185.924 1188.09 186.641V189.863C1190.1 191.725 1191.74 193.945 1193.03 196.523C1194.46 198.958 1195.68 201.608 1196.68 204.473C1197.83 207.194 1198.9 209.987 1199.91 212.852C1200.91 215.716 1202.05 218.366 1203.34 220.801C1203.06 221.66 1202.91 222.448 1202.91 223.164C1203.06 223.737 1203.2 224.382 1203.34 225.098C1203.63 225.671 1203.85 226.387 1203.99 227.246C1204.13 227.962 1204.2 228.893 1204.2 230.039C1203.63 237.63 1201.12 243.789 1196.68 248.516C1192.39 253.099 1187.09 256.895 1180.79 259.902C1174.63 262.767 1168.04 265.273 1161.02 267.422C1154 269.427 1147.63 271.647 1141.9 274.082C1141.9 274.655 1142.18 274.941 1142.76 274.941C1143.47 274.941 1143.69 275.371 1143.4 276.23C1147.7 278.809 1150.99 280.885 1153.29 282.461C1155.72 284.036 1157.94 285.397 1159.95 286.543C1162.09 287.546 1164.39 288.405 1166.82 289.121C1169.4 289.837 1172.91 290.697 1177.35 291.699C1181.79 292.702 1185.23 293.561 1187.66 294.277C1190.24 294.85 1192.53 295.352 1194.54 295.781C1196.54 296.068 1198.69 296.354 1200.98 296.641C1203.27 296.927 1206.35 297.285 1210.22 297.715C1211.79 299.29 1213.08 301.152 1214.09 303.301C1215.09 305.449 1215.8 307.598 1216.23 309.746C1216.66 311.895 1216.74 313.971 1216.45 315.977C1216.31 317.839 1215.73 319.342 1214.73 320.488C1214.87 321.061 1215.23 321.348 1215.8 321.348C1216.52 321.204 1217.24 321.204 1217.95 321.348C1216.95 322.064 1216.09 322.923 1215.38 323.926C1214.66 324.928 1213.94 325.931 1213.23 326.934C1212.51 327.936 1211.65 328.867 1210.65 329.727C1209.79 330.586 1208.64 331.087 1207.21 331.23C1202.05 333.236 1195.47 333.307 1187.45 331.445C1179.42 329.583 1169.18 326.289 1156.72 321.562C1150.56 319.271 1145.55 317.194 1141.68 315.332C1137.82 313.47 1134.45 311.68 1131.59 309.961C1128.72 308.099 1126.07 306.165 1123.64 304.16C1121.2 302.012 1118.41 299.505 1115.26 296.641C1114.83 296.784 1114.54 297.07 1114.4 297.5C1114.4 297.93 1114.18 298.216 1113.75 298.359C1113.04 304.089 1111.89 308.743 1110.32 312.324C1108.88 315.905 1106.74 319.557 1103.87 323.281C1101.58 322.852 1100 323.066 1099.14 323.926C1098.43 324.785 1097.5 325.573 1096.35 326.289C1094.92 326.576 1093.85 326.504 1093.13 326.074C1092.41 325.788 1091.77 325.43 1091.2 325C1090.62 324.57 1089.98 324.141 1089.26 323.711C1088.55 323.281 1087.4 323.138 1085.82 323.281C1085.39 321.992 1084.96 320.775 1084.54 319.629C1084.11 318.34 1082.96 317.767 1081.1 317.91C1081.53 316.621 1081.67 315.547 1081.53 314.688C1081.38 313.685 1081.17 312.826 1080.88 312.109C1080.6 311.25 1080.31 310.391 1080.02 309.531C1079.88 308.672 1080.02 307.669 1080.45 306.523ZM1152.21 208.34C1150.35 211.061 1148.27 213.568 1145.98 215.859C1143.69 218.008 1141.4 220.299 1139.11 222.734C1136.96 225.026 1135.02 227.604 1133.3 230.469C1131.59 233.19 1130.37 236.484 1129.65 240.352C1135.67 239.635 1141.97 237.988 1148.56 235.41C1155.15 232.689 1161.38 230.111 1167.25 227.676C1166.53 222.376 1164.67 218.151 1161.66 215C1158.66 211.706 1155.51 209.486 1152.21 208.34ZM1211.08 304.59L1213.87 302.441L1214.09 297.93C1217.67 289.193 1221.32 280.814 1225.04 272.793C1228.91 264.772 1232.92 256.536 1237.07 248.086C1238.36 245.365 1239.65 242.643 1240.94 239.922C1242.37 237.201 1243.73 234.408 1245.02 231.543C1244.88 230.97 1244.81 230.397 1244.81 229.824C1244.81 229.108 1244.95 228.32 1245.24 227.461C1247.24 224.596 1248.82 222.018 1249.96 219.727C1251.25 217.435 1252.47 215.072 1253.62 212.637C1254.91 209.772 1256.27 206.908 1257.7 204.043C1259.27 201.178 1261.21 198.385 1263.5 195.664L1265 193.516L1267.37 193.73C1267.94 193.444 1268.51 193.229 1269.09 193.086C1269.8 192.799 1270.66 192.656 1271.66 192.656L1275.53 193.301C1280.26 191.152 1284.41 188.073 1287.99 184.062C1291.72 179.909 1295.44 174.967 1299.16 169.238L1301.74 165.586L1305.18 167.734C1305.9 168.164 1307.04 168.594 1308.62 169.023C1310.19 169.453 1311.84 169.954 1313.56 170.527C1316.57 171.243 1319.5 172.103 1322.37 173.105C1325.23 173.965 1327.45 175.182 1329.03 176.758L1330.1 178.691C1330.39 180.267 1330.6 181.699 1330.75 182.988C1331.03 184.277 1331.32 185.566 1331.61 186.855C1332.18 189.863 1332.68 192.871 1333.11 195.879C1333.54 198.743 1333.83 201.966 1333.97 205.547C1334.68 208.411 1335.33 211.348 1335.9 214.355C1336.62 217.22 1337.26 220.085 1337.84 222.949C1338.55 227.103 1339.34 231.113 1340.2 234.98C1341.06 238.704 1342.2 242.285 1343.64 245.723C1345.07 245.723 1345.93 245.794 1346.21 245.938C1347.93 245.221 1349.94 244.792 1352.23 244.648L1355.02 244.434L1355.88 247.012C1356.17 247.441 1356.53 247.871 1356.96 248.301C1357.39 248.73 1357.89 249.16 1358.46 249.59C1360.75 249.733 1362.4 250.234 1363.4 251.094C1364.55 251.81 1365.48 252.526 1366.2 253.242C1366.48 253.529 1366.84 253.887 1367.27 254.316C1367.7 254.603 1368.06 254.818 1368.34 254.961L1372.21 256.465L1370.06 260.547C1368.49 263.555 1366.05 266.491 1362.76 269.355C1359.61 272.22 1356.03 274.583 1352.02 276.445C1352.3 277.448 1352.45 278.379 1352.45 279.238C1352.59 280.098 1352.8 281.1 1353.09 282.246C1353.66 285.111 1354.09 288.118 1354.38 291.27C1354.81 294.277 1354.81 297.428 1354.38 300.723C1352.95 304.447 1351.23 307.812 1349.22 310.82C1347.36 313.685 1345.07 316.335 1342.35 318.77C1339.77 321.061 1336.83 322.995 1333.54 324.57C1330.24 326.003 1326.81 326.79 1323.23 326.934C1321.22 326.504 1319.72 326.003 1318.71 325.43C1317.86 324.857 1317.07 324.284 1316.35 323.711C1315.21 322.852 1314.27 322.279 1313.56 321.992L1310.77 320.703L1311.62 317.48C1312.05 316.335 1311.98 315.332 1311.41 314.473C1310.98 313.613 1309.98 312.467 1308.4 311.035C1307.83 310.605 1307.33 310.176 1306.9 309.746C1306.47 309.173 1305.97 308.6 1305.39 308.027L1301.1 303.086L1308.19 301.152C1312.48 300.007 1315.35 298.574 1316.78 296.855C1318.21 294.993 1318.79 291.771 1318.5 287.188C1314.92 286.471 1311.98 286.4 1309.69 286.973C1307.4 287.402 1305.11 287.904 1302.82 288.477C1299.52 289.336 1296.3 290.124 1293.15 290.84C1290 291.413 1286.56 291.699 1282.84 291.699C1280.4 291.699 1277.82 291.484 1275.1 291.055L1272.74 290.84L1272.09 288.477C1272.09 288.19 1271.88 287.904 1271.45 287.617C1271.16 287.188 1270.88 286.829 1270.59 286.543C1269.87 285.684 1269.01 284.538 1268.01 283.105C1267.01 281.673 1266.79 279.883 1267.37 277.734C1266.36 276.159 1265.79 274.512 1265.65 272.793C1265.08 273.939 1264.57 275.085 1264.14 276.23C1263.86 277.233 1263.57 278.236 1263.29 279.238L1262.43 282.031L1259.63 282.461C1259.35 282.747 1259.06 283.177 1258.77 283.75C1258.63 284.323 1258.63 284.753 1258.77 285.039L1259.63 287.402L1257.48 289.336C1257.2 289.766 1256.84 290.124 1256.41 290.41C1255.98 290.697 1255.62 290.983 1255.34 291.27C1255.05 292.845 1254.62 294.349 1254.05 295.781C1253.62 297.214 1253.12 298.646 1252.54 300.078C1251.83 302.37 1251.11 304.59 1250.39 306.738C1249.82 308.887 1249.54 311.035 1249.54 313.184L1248.68 315.977C1247.96 317.122 1247.03 317.982 1245.88 318.555C1244.88 319.128 1243.88 319.629 1242.88 320.059C1241.44 320.632 1240.44 321.204 1239.87 321.777L1239.22 324.57L1236 325C1234.14 325.43 1232.78 325.716 1231.92 325.859C1231.2 326.003 1230.34 326.074 1229.34 326.074L1226.55 325.859C1224.83 324.141 1223.4 322.852 1222.25 321.992C1221.25 320.99 1220.03 320.13 1218.6 319.414L1217.31 317.695C1216.74 316.549 1216.38 315.547 1216.23 314.688C1216.09 313.685 1215.88 312.682 1215.59 311.68C1215.3 309.818 1214.87 308.529 1214.3 307.812L1211.08 304.59ZM1279.61 248.73C1277.61 251.595 1275.67 254.603 1273.81 257.754C1274.82 257.611 1275.75 257.539 1276.61 257.539C1277.61 257.539 1278.61 257.467 1279.61 257.324C1284.63 257.038 1289.28 256.68 1293.58 256.25C1297.88 255.82 1302.53 255.104 1307.54 254.102C1306.4 248.802 1305.11 243.431 1303.68 237.988C1302.39 232.402 1300.95 226.816 1299.38 221.23L1298.3 223.379C1294.72 227.246 1291.29 231.4 1287.99 235.84C1284.7 240.28 1281.98 244.505 1279.83 248.516L1279.61 248.73ZM1392.19 327.363C1388.04 326.361 1384.82 324.714 1382.52 322.422C1380.38 319.987 1378.73 317.194 1377.58 314.043C1376.58 310.749 1375.86 307.168 1375.43 303.301C1375.15 299.434 1374.79 295.423 1374.36 291.27C1374.93 289.408 1375.65 287.832 1376.51 286.543C1377.51 285.254 1377.94 283.464 1377.8 281.172C1379.37 276.589 1380.8 272.148 1382.09 267.852C1383.38 263.555 1384.24 259.115 1384.67 254.531C1385.53 253.242 1386.39 252.383 1387.25 251.953C1388.4 243.789 1388.54 235.41 1387.68 226.816C1386.82 218.223 1385.39 210.273 1383.38 202.969C1383.53 201.393 1383.74 200.247 1384.03 199.531C1384.31 198.672 1384.31 197.956 1384.03 197.383C1383.74 196.094 1384.17 195.449 1385.32 195.449C1386.46 195.449 1387.61 195.449 1388.75 195.449C1388.75 192.871 1388.25 190.365 1387.25 187.93C1386.39 185.352 1385.53 182.415 1384.67 179.121C1385.82 176.543 1386.61 174.036 1387.04 171.602C1387.46 169.167 1388.25 166.947 1389.4 164.941C1393.98 166.374 1398.49 168.021 1402.93 169.883C1407.37 171.745 1411.74 173.607 1416.04 175.469C1420.34 177.188 1424.56 178.906 1428.71 180.625C1432.87 182.201 1436.95 183.49 1440.96 184.492C1447.12 188.932 1453.42 193.372 1459.87 197.812C1466.46 202.109 1472.4 206.908 1477.7 212.207C1483.14 217.363 1487.65 223.307 1491.23 230.039C1494.82 236.771 1496.89 244.72 1497.46 253.887C1497.18 254.746 1496.96 255.462 1496.82 256.035C1496.68 256.608 1496.53 257.181 1496.39 257.754C1496.25 258.327 1496.18 258.971 1496.18 259.688C1496.18 260.404 1496.18 261.406 1496.18 262.695C1491.02 271.719 1484.5 279.31 1476.62 285.469C1468.75 291.628 1460.15 297.07 1450.84 301.797C1441.53 306.523 1431.79 310.892 1421.62 314.902C1411.6 318.77 1401.79 322.923 1392.19 327.363ZM1413.25 205.547C1411.96 205.547 1411.03 205.833 1410.45 206.406C1412.17 212.852 1413.46 218.939 1414.32 224.668C1415.18 230.397 1415.61 236.126 1415.61 241.855C1415.75 247.585 1415.47 253.457 1414.75 259.473C1414.03 265.488 1413.03 272.005 1411.74 279.023C1413.6 278.88 1415.25 278.522 1416.68 277.949C1418.12 277.376 1419.55 276.732 1420.98 276.016C1422.56 275.299 1424.13 274.655 1425.71 274.082C1427.43 273.509 1429.36 273.151 1431.51 273.008C1432.08 271.862 1432.8 271.003 1433.66 270.43C1434.66 269.714 1435.52 268.997 1436.23 268.281C1439.82 266.849 1443.4 265.345 1446.98 263.77C1450.56 262.194 1453.85 260.404 1456.86 258.398C1459.87 256.393 1462.59 254.102 1465.02 251.523C1467.46 248.945 1469.46 245.866 1471.04 242.285C1469.89 240.137 1468.46 238.346 1466.74 236.914C1465.17 235.339 1463.45 233.835 1461.59 232.402C1459.87 230.827 1458.15 229.251 1456.43 227.676C1454.85 225.957 1453.57 224.023 1452.56 221.875C1450.27 221.589 1448.27 221.016 1446.55 220.156C1444.83 219.154 1443.18 218.223 1441.61 217.363C1440.03 216.361 1438.31 215.43 1436.45 214.57C1434.73 213.711 1432.65 213.21 1430.22 213.066C1426.49 211.061 1423.13 209.701 1420.12 208.984C1417.11 208.125 1414.82 206.979 1413.25 205.547ZM1514.01 218.652C1513.72 216.79 1513.36 215.645 1512.93 215.215C1513.94 212.637 1514.65 210.13 1515.08 207.695C1515.65 205.117 1516.08 202.682 1516.37 200.391C1516.66 198.385 1516.94 196.523 1517.23 194.805C1517.66 193.086 1518.16 191.439 1518.73 189.863C1521.17 189.29 1522.96 188.288 1524.11 186.855C1525.39 185.28 1526.4 183.919 1527.11 182.773C1529.69 182.63 1531.34 182.988 1532.05 183.848C1532.91 184.707 1533.85 186.139 1534.85 188.145C1535.56 189.72 1536.57 191.439 1537.86 193.301C1539.14 195.02 1541.08 196.38 1543.66 197.383C1544.09 198.958 1544.59 200.462 1545.16 201.895C1545.73 203.327 1546.38 204.831 1547.09 206.406C1548.38 209.414 1549.6 212.565 1550.75 215.859C1551.89 219.01 1552.54 222.018 1552.68 224.883C1550.96 228.177 1549.6 231.973 1548.6 236.27C1547.74 240.566 1547.17 244.935 1546.88 249.375C1546.74 253.672 1546.88 257.826 1547.31 261.836C1547.74 265.846 1548.45 269.212 1549.46 271.934L1550.75 275.371L1555.47 274.941C1560.63 273.652 1565.28 272.22 1569.44 270.645C1573.59 268.926 1577.46 266.921 1581.04 264.629C1584.62 262.337 1588.06 259.759 1591.35 256.895C1594.65 253.887 1598.08 250.378 1601.66 246.367C1605.1 242.357 1608.18 237.845 1610.9 232.832C1613.62 227.676 1615.84 222.376 1617.56 216.934C1619.42 211.491 1620.86 206.048 1621.86 200.605C1622.86 195.163 1623.51 190.078 1623.79 185.352C1626.51 184.062 1628.02 181.986 1628.3 179.121L1627.66 176.328C1627.23 175.612 1627.02 174.967 1627.02 174.395C1627.16 173.678 1627.37 173.034 1627.66 172.461C1628.81 169.167 1631.24 166.732 1634.96 165.156C1637.54 166.875 1639.91 168.737 1642.05 170.742C1644.35 172.747 1646.42 174.753 1648.29 176.758C1648.57 180.625 1649.14 183.991 1650 186.855C1650.86 189.577 1651.79 192.227 1652.8 194.805C1653.8 197.24 1654.66 199.603 1655.38 201.895C1656.23 204.186 1656.81 206.979 1657.09 210.273C1655.66 214.57 1654.59 218.652 1653.87 222.52C1653.3 226.243 1652.73 230.182 1652.15 234.336L1651.72 236.699C1649.14 241.139 1646.57 245.723 1643.99 250.449C1641.55 255.033 1639.55 259.043 1637.97 262.48C1637.11 263.34 1636.33 264.342 1635.61 265.488C1635.04 266.634 1634.46 267.78 1633.89 268.926C1633.6 269.355 1633.17 270.072 1632.6 271.074C1632.17 272.077 1631.74 272.793 1631.31 273.223L1626.16 271.289L1624.87 277.949L1621.43 278.809L1618.85 281.816C1615.56 287.546 1612.05 292.344 1608.32 296.211C1604.74 300.078 1600.66 303.516 1596.08 306.523C1591.64 309.531 1586.55 312.396 1580.82 315.117C1575.24 317.695 1568.79 320.488 1561.49 323.496C1558.62 323.066 1556.12 322.852 1553.97 322.852C1551.96 322.708 1549.96 322.565 1547.95 322.422C1545.95 322.422 1544.01 322.35 1542.15 322.207C1540.29 322.064 1538.14 321.849 1535.71 321.562C1535.13 320.273 1534.35 319.342 1533.34 318.77C1532.34 318.197 1531.41 317.91 1530.55 317.91C1527.69 316.478 1525.54 314.473 1524.11 311.895C1522.67 309.316 1521.17 306.452 1519.59 303.301C1518.88 301.582 1518.09 299.863 1517.23 298.145C1516.51 296.426 1515.58 294.779 1514.44 293.203L1518.73 291.914L1513.15 285.469C1512.72 285.039 1512.22 284.609 1511.64 284.18C1511.21 283.75 1510.79 283.249 1510.36 282.676V278.594C1509.78 266.849 1509.5 256.035 1509.5 246.152C1509.64 236.126 1511 227.318 1513.58 219.727L1514.01 218.652ZM1639.26 304.59L1642.05 302.441L1642.27 297.93C1645.85 289.193 1649.5 280.814 1653.23 272.793C1657.09 264.772 1661.1 256.536 1665.26 248.086C1666.55 245.365 1667.84 242.643 1669.12 239.922C1670.56 237.201 1671.92 234.408 1673.21 231.543C1673.06 230.97 1672.99 230.397 1672.99 229.824C1672.99 229.108 1673.14 228.32 1673.42 227.461C1675.43 224.596 1677 222.018 1678.15 219.727C1679.44 217.435 1680.65 215.072 1681.8 212.637C1683.09 209.772 1684.45 206.908 1685.88 204.043C1687.46 201.178 1689.39 198.385 1691.68 195.664L1693.19 193.516L1695.55 193.73C1696.12 193.444 1696.7 193.229 1697.27 193.086C1697.99 192.799 1698.85 192.656 1699.85 192.656L1703.71 193.301C1708.44 191.152 1712.6 188.073 1716.18 184.062C1719.9 179.909 1723.62 174.967 1727.35 169.238L1729.93 165.586L1733.36 167.734C1734.08 168.164 1735.23 168.594 1736.8 169.023C1738.38 169.453 1740.02 169.954 1741.74 170.527C1744.75 171.243 1747.69 172.103 1750.55 173.105C1753.42 173.965 1755.64 175.182 1757.21 176.758L1758.29 178.691C1758.57 180.267 1758.79 181.699 1758.93 182.988C1759.22 184.277 1759.5 185.566 1759.79 186.855C1760.36 189.863 1760.86 192.871 1761.29 195.879C1761.72 198.743 1762.01 201.966 1762.15 205.547C1762.87 208.411 1763.51 211.348 1764.09 214.355C1764.8 217.22 1765.45 220.085 1766.02 222.949C1766.74 227.103 1767.52 231.113 1768.38 234.98C1769.24 238.704 1770.39 242.285 1771.82 245.723C1773.25 245.723 1774.11 245.794 1774.4 245.938C1776.12 245.221 1778.12 244.792 1780.41 244.648L1783.21 244.434L1784.07 247.012C1784.35 247.441 1784.71 247.871 1785.14 248.301C1785.57 248.73 1786.07 249.16 1786.64 249.59C1788.94 249.733 1790.58 250.234 1791.59 251.094C1792.73 251.81 1793.66 252.526 1794.38 253.242C1794.67 253.529 1795.02 253.887 1795.45 254.316C1795.88 254.603 1796.24 254.818 1796.53 254.961L1800.39 256.465L1798.25 260.547C1796.67 263.555 1794.24 266.491 1790.94 269.355C1787.79 272.22 1784.21 274.583 1780.2 276.445C1780.49 277.448 1780.63 278.379 1780.63 279.238C1780.77 280.098 1780.99 281.1 1781.27 282.246C1781.85 285.111 1782.28 288.118 1782.56 291.27C1782.99 294.277 1782.99 297.428 1782.56 300.723C1781.13 304.447 1779.41 307.812 1777.41 310.82C1775.54 313.685 1773.25 316.335 1770.53 318.77C1767.95 321.061 1765.02 322.995 1761.72 324.57C1758.43 326.003 1754.99 326.79 1751.41 326.934C1749.4 326.504 1747.9 326.003 1746.9 325.43C1746.04 324.857 1745.25 324.284 1744.54 323.711C1743.39 322.852 1742.46 322.279 1741.74 321.992L1738.95 320.703L1739.81 317.48C1740.24 316.335 1740.17 315.332 1739.59 314.473C1739.16 313.613 1738.16 312.467 1736.59 311.035C1736.01 310.605 1735.51 310.176 1735.08 309.746C1734.65 309.173 1734.15 308.6 1733.58 308.027L1729.28 303.086L1736.37 301.152C1740.67 300.007 1743.53 298.574 1744.96 296.855C1746.4 294.993 1746.97 291.771 1746.68 287.188C1743.1 286.471 1740.17 286.4 1737.88 286.973C1735.58 287.402 1733.29 287.904 1731 288.477C1727.71 289.336 1724.48 290.124 1721.33 290.84C1718.18 291.413 1714.74 291.699 1711.02 291.699C1708.58 291.699 1706.01 291.484 1703.29 291.055L1700.92 290.84L1700.28 288.477C1700.28 288.19 1700.06 287.904 1699.63 287.617C1699.35 287.188 1699.06 286.829 1698.77 286.543C1698.06 285.684 1697.2 284.538 1696.2 283.105C1695.19 281.673 1694.98 279.883 1695.55 277.734C1694.55 276.159 1693.98 274.512 1693.83 272.793C1693.26 273.939 1692.76 275.085 1692.33 276.23C1692.04 277.233 1691.76 278.236 1691.47 279.238L1690.61 282.031L1687.82 282.461C1687.53 282.747 1687.24 283.177 1686.96 283.75C1686.81 284.323 1686.81 284.753 1686.96 285.039L1687.82 287.402L1685.67 289.336C1685.38 289.766 1685.02 290.124 1684.59 290.41C1684.16 290.697 1683.81 290.983 1683.52 291.27C1683.23 292.845 1682.8 294.349 1682.23 295.781C1681.8 297.214 1681.3 298.646 1680.73 300.078C1680.01 302.37 1679.29 304.59 1678.58 306.738C1678.01 308.887 1677.72 311.035 1677.72 313.184L1676.86 315.977C1676.14 317.122 1675.21 317.982 1674.07 318.555C1673.06 319.128 1672.06 319.629 1671.06 320.059C1669.63 320.632 1668.62 321.204 1668.05 321.777L1667.41 324.57L1664.18 325C1662.32 325.43 1660.96 325.716 1660.1 325.859C1659.39 326.003 1658.53 326.074 1657.52 326.074L1654.73 325.859C1653.01 324.141 1651.58 322.852 1650.43 321.992C1649.43 320.99 1648.21 320.13 1646.78 319.414L1645.49 317.695C1644.92 316.549 1644.56 315.547 1644.42 314.688C1644.27 313.685 1644.06 312.682 1643.77 311.68C1643.49 309.818 1643.06 308.529 1642.48 307.812L1639.26 304.59ZM1707.8 248.73C1705.79 251.595 1703.86 254.603 1702 257.754C1703 257.611 1703.93 257.539 1704.79 257.539C1705.79 257.539 1706.79 257.467 1707.8 257.324C1712.81 257.038 1717.46 256.68 1721.76 256.25C1726.06 255.82 1730.71 255.104 1735.73 254.102C1734.58 248.802 1733.29 243.431 1731.86 237.988C1730.57 232.402 1729.14 226.816 1727.56 221.23L1726.49 223.379C1722.91 227.246 1719.47 231.4 1716.18 235.84C1712.88 240.28 1710.16 244.505 1708.01 248.516L1707.8 248.73ZM1793.09 203.828C1792.95 202.682 1792.66 201.68 1792.23 200.82C1791.94 199.818 1791.59 198.743 1791.16 197.598C1790.44 195.879 1789.8 194.017 1789.22 192.012C1788.65 190.007 1788.36 187.643 1788.36 184.922C1788.65 183.49 1789.01 182.487 1789.44 181.914C1789.87 181.198 1790.3 180.625 1790.73 180.195L1791.59 176.328H1794.81C1795.95 176.471 1797.1 176.543 1798.25 176.543C1799.54 176.543 1800.75 176.543 1801.9 176.543C1807.34 176.543 1812.93 176.328 1818.66 175.898C1824.39 175.469 1830.26 174.967 1836.27 174.395C1842.86 173.535 1849.95 172.891 1857.54 172.461C1858.26 170.885 1858.69 169.883 1858.83 169.453C1859.12 169.023 1859.4 168.522 1859.69 167.949L1862.05 166.66C1865.35 166.517 1867.64 166.947 1868.93 167.949C1870.22 168.809 1871.22 169.668 1871.94 170.527C1875.66 170.241 1879.46 169.883 1883.32 169.453C1887.19 168.88 1891.2 168.307 1895.36 167.734C1901.08 167.018 1906.89 166.302 1912.76 165.586C1918.63 164.87 1924.36 164.512 1929.95 164.512C1932.38 164.512 1934.67 164.583 1936.82 164.727C1938.97 164.87 1941.05 165.085 1943.05 165.371L1945.63 167.305C1946.2 168.307 1946.92 169.238 1947.78 170.098C1948.64 170.957 1949.64 171.816 1950.79 172.676C1952.93 174.395 1955.01 176.543 1957.02 179.121C1959.16 181.699 1959.95 185.495 1959.38 190.508L1958.3 192.656C1957.73 193.229 1957.02 193.802 1956.16 194.375L1954.01 197.168H1951.64C1950.21 197.168 1949.14 197.311 1948.42 197.598C1947.71 197.741 1946.85 198.027 1945.84 198.457C1945.27 198.743 1944.63 199.03 1943.91 199.316C1943.19 199.46 1942.41 199.674 1941.55 199.961C1939.97 199.818 1938.75 199.746 1937.89 199.746C1937.04 199.746 1936.03 199.746 1934.89 199.746C1930.59 199.746 1925.93 200.033 1920.92 200.605C1915.91 201.178 1911.04 201.823 1906.31 202.539C1902.88 202.969 1899.58 203.398 1896.43 203.828C1893.28 204.115 1890.41 204.401 1887.84 204.688C1886.4 208.411 1885.11 211.706 1883.97 214.57C1882.82 217.435 1881.61 220.299 1880.32 223.164C1879.03 226.029 1877.81 228.965 1876.66 231.973C1875.52 234.837 1874.44 238.06 1873.44 241.641C1871.72 244.219 1870.29 246.725 1869.14 249.16C1868 251.452 1867.07 254.102 1866.35 257.109C1864.2 259.544 1862.63 262.194 1861.62 265.059C1860.77 267.923 1859.98 270.358 1859.26 272.363L1858.4 275.586C1857.4 276.589 1856.76 277.376 1856.47 277.949C1856.33 278.522 1855.97 279.167 1855.39 279.883C1854.96 281.745 1854.39 283.535 1853.68 285.254C1853.39 285.97 1853.1 286.758 1852.82 287.617C1852.53 288.333 1852.46 288.906 1852.6 289.336C1852.32 290.911 1851.89 292.129 1851.31 292.988C1851.31 293.848 1851.24 294.707 1851.1 295.566C1850.95 296.426 1850.81 297.285 1850.67 298.145C1850.38 299.147 1850.17 300.078 1850.02 300.938C1849.88 301.654 1849.95 302.37 1850.24 303.086C1850.67 303.659 1851.1 304.232 1851.53 304.805C1851.96 305.378 1852.32 306.094 1852.6 306.953C1852.89 307.24 1853.25 307.454 1853.68 307.598C1854.11 307.741 1854.46 307.956 1854.75 308.242C1855.9 309.245 1856.97 309.818 1857.97 309.961L1860.12 312.539C1860.98 317.695 1860.19 321.706 1857.76 324.57C1855.18 327.865 1850.88 329.512 1844.87 329.512L1841.86 329.297C1840.86 328.294 1840.28 327.65 1840.14 327.363C1838.85 326.79 1837.78 326.289 1836.92 325.859C1836.06 325.573 1835.27 324.928 1834.55 323.926C1834.27 323.639 1833.91 323.496 1833.48 323.496C1833.05 323.353 1832.69 323.138 1832.41 322.852C1830.97 322.422 1829.83 321.921 1828.97 321.348L1826.61 320.059C1826.75 318.626 1826.82 317.624 1826.82 317.051C1825.67 315.475 1824.74 313.757 1824.03 311.895C1823.45 310.033 1822.95 308.099 1822.52 306.094C1822.09 304.518 1821.66 303.086 1821.23 301.797C1820.95 300.508 1820.45 299.362 1819.73 298.359C1819.44 288.333 1820.38 279.954 1822.52 273.223C1824.67 266.348 1827.04 259.688 1829.61 253.242C1831.05 249.805 1832.41 246.296 1833.7 242.715C1834.98 239.134 1836.13 235.482 1837.13 231.758L1839.5 229.395C1840.5 228.535 1841.14 228.034 1841.43 227.891C1841.43 226.029 1841.79 224.238 1842.5 222.52C1843.22 220.658 1844.01 218.796 1844.87 216.934C1845.44 215.788 1845.94 214.642 1846.37 213.496C1846.94 212.35 1847.3 211.348 1847.45 210.488C1846.44 210.488 1845.51 210.56 1844.65 210.703C1843.94 210.703 1843.15 210.775 1842.29 210.918C1840.43 211.348 1838.64 211.562 1836.92 211.562C1835.63 211.562 1834.7 211.491 1834.12 211.348C1832.98 211.921 1831.9 212.279 1830.9 212.422C1829.9 212.422 1828.9 212.422 1827.89 212.422H1825.32H1822.74C1821.02 212.422 1819.66 212.637 1818.66 213.066C1816.65 213.066 1815.36 213.066 1814.79 213.066C1814.22 213.066 1813.57 213.066 1812.86 213.066H1810.28H1807.7C1806.55 213.066 1805.26 212.995 1803.83 212.852C1802.4 212.565 1800.9 211.992 1799.32 211.133L1797.82 209.414C1796.96 207.839 1796.17 206.979 1795.45 206.836L1793.09 206.191V203.828ZM1934.03 317.695C1932.88 316.549 1932.02 315.189 1931.45 313.613C1931.02 312.038 1929.87 310.749 1928.01 309.746C1927.73 307.598 1927.3 305.163 1926.72 302.441C1926.29 299.577 1925.79 296.712 1925.22 293.848C1924.79 290.84 1924.43 287.904 1924.14 285.039C1924 282.031 1924.14 279.31 1924.57 276.875C1924.86 275.586 1925.29 274.368 1925.86 273.223C1926.58 272.077 1927.22 271.003 1927.8 270C1928.51 268.854 1929.01 267.708 1929.3 266.562C1929.73 265.417 1929.8 264.271 1929.52 263.125C1930.38 262.982 1930.88 262.552 1931.02 261.836C1931.31 260.977 1932.02 260.69 1933.17 260.977C1934.17 257.826 1935.24 254.889 1936.39 252.168C1937.54 249.447 1938.75 246.797 1940.04 244.219C1941.33 241.641 1942.62 239.062 1943.91 236.484C1945.34 233.763 1946.63 230.755 1947.78 227.461C1945.34 225.169 1943.55 222.734 1942.41 220.156C1941.4 217.435 1940.62 214.714 1940.04 211.992C1939.47 209.271 1939.04 206.549 1938.75 203.828C1938.47 200.964 1937.89 198.099 1937.04 195.234C1938.75 192.656 1940.83 190.579 1943.27 189.004C1945.7 187.285 1948.35 185.924 1951.21 184.922C1954.22 183.776 1957.45 182.917 1960.88 182.344C1964.32 181.628 1967.97 180.84 1971.84 179.98C1978.71 177.832 1984.87 176.185 1990.32 175.039C1995.76 173.75 2001.06 172.747 2006.21 172.031C2011.37 171.172 2016.74 170.456 2022.33 169.883C2027.91 169.167 2034.36 168.164 2041.66 166.875C2041.81 167.305 2042.02 167.52 2042.31 167.52C2042.74 167.52 2043.24 167.52 2043.81 167.52C2044.24 168.522 2045.03 169.023 2046.18 169.023C2046.18 168.594 2046.1 168.236 2045.96 167.949C2045.96 167.52 2045.96 167.161 2045.96 166.875C2046.25 166.875 2046.61 166.947 2047.04 167.09C2047.61 167.233 2048.04 167.376 2048.32 167.52C2048.75 167.663 2049.11 167.663 2049.4 167.52C2049.68 167.233 2049.76 166.732 2049.61 166.016C2051.33 169.023 2053.55 171.53 2056.27 173.535C2058.99 175.397 2062 177.044 2065.3 178.477C2065.44 179.766 2065.44 180.697 2065.3 181.27C2065.3 181.842 2065.23 182.415 2065.08 182.988C2064.94 183.418 2064.87 183.991 2064.87 184.707C2064.87 185.28 2065.01 186.139 2065.3 187.285C2063.01 191.152 2060.36 194.16 2057.35 196.309C2054.48 198.457 2051.4 200.104 2048.11 201.25C2044.82 202.396 2041.31 203.255 2037.58 203.828C2034 204.401 2030.28 205.046 2026.41 205.762C2022.69 206.335 2018.89 207.194 2015.02 208.34C2011.16 209.486 2007.36 211.204 2003.64 213.496C2002.49 213.066 2001.42 212.923 2000.41 213.066C1999.55 213.066 1998.62 213.21 1997.62 213.496C1996.62 213.783 1995.47 214.069 1994.18 214.355C1993.04 214.642 1991.61 214.642 1989.89 214.355C1988.74 215.358 1987.38 216.074 1985.8 216.504C1984.37 216.934 1982.87 217.363 1981.29 217.793C1982.01 219.368 1982.3 220.944 1982.15 222.52C1982.15 224.095 1982.37 225.456 1982.8 226.602C1988.81 227.174 1995.47 227.174 2002.78 226.602C2010.08 225.885 2017.24 225.384 2024.26 225.098C2024.4 225.814 2024.33 226.315 2024.05 226.602C2023.76 226.888 2023.62 227.389 2023.62 228.105C2024.91 228.965 2026.12 230.039 2027.27 231.328C2028.42 232.617 2029.56 233.906 2030.71 235.195C2032 236.341 2033.29 237.344 2034.57 238.203C2035.86 238.919 2037.37 239.206 2039.09 239.062C2039.8 240.495 2040.3 241.999 2040.59 243.574C2040.88 245.15 2040.66 246.797 2039.95 248.516C2037.08 250.378 2034.29 252.311 2031.57 254.316C2028.85 256.178 2025.98 257.897 2022.97 259.473C2020.11 261.048 2016.96 262.337 2013.52 263.34C2010.08 264.342 2006.36 264.772 2002.35 264.629C2001.63 264.629 2000.99 264.629 2000.41 264.629C1999.98 264.629 1999.41 264.342 1998.7 263.77C1997.26 264.486 1995.33 264.772 1992.89 264.629C1990.6 264.342 1988.67 264.557 1987.09 265.273C1985.09 264.557 1982.73 264.199 1980 264.199C1977.43 264.199 1975.13 263.841 1973.13 263.125C1970.55 266.849 1968.12 270.788 1965.82 274.941C1963.53 278.952 1961.53 283.249 1959.81 287.832C1965.68 288.691 1970.55 289.049 1974.42 288.906C1978.29 288.763 1981.94 288.477 1985.38 288.047C1988.81 287.617 1992.32 287.188 1995.9 286.758C1999.63 286.328 2004.14 286.185 2009.44 286.328C2013.02 284.609 2017.1 283.464 2021.68 282.891C2026.41 282.174 2030.78 281.172 2034.79 279.883C2036.22 280.312 2037.44 281.172 2038.44 282.461C2039.44 283.607 2040.38 284.824 2041.23 286.113C2042.24 287.259 2043.24 288.262 2044.24 289.121C2045.24 289.98 2046.53 290.267 2048.11 289.98C2048.83 290.697 2049.26 291.556 2049.4 292.559C2049.68 293.561 2049.9 294.492 2050.04 295.352C2050.33 296.211 2050.69 296.927 2051.12 297.5C2051.55 297.93 2052.33 298.073 2053.48 297.93C2050.76 303.516 2047.68 307.812 2044.24 310.82C2040.95 313.828 2037.15 316.191 2032.86 317.91C2028.7 319.486 2023.98 320.703 2018.68 321.562C2013.52 322.279 2007.72 323.21 2001.27 324.355C1999.7 324.642 1998.34 324.642 1997.19 324.355C1996.19 323.926 1995.11 323.711 1993.97 323.711C1989.96 324.427 1985.16 325.143 1979.57 325.859C1974.13 326.576 1968.62 326.862 1963.03 326.719C1957.45 326.576 1952.07 325.859 1946.92 324.57C1941.76 323.281 1937.46 320.99 1934.03 317.695Z" fill="#277BCF"/>
<path d="M2363.1 140.069L2282.13 132.551L2249.96 57.787C2247.71 52.5519 2240.29 52.5519 2238.04 57.787L2205.87 132.551L2124.9 140.069C2119.23 140.595 2116.94 147.654 2121.21 151.416L2182.31 205.14L2164.43 284.551C2163.18 290.111 2169.18 294.473 2174.07 291.564L2244 250.003L2313.93 291.564C2318.82 294.474 2324.82 290.111 2323.57 284.551L2305.69 205.14L2366.79 151.416C2371.06 147.654 2368.77 140.595 2363.1 140.069Z" fill="#FFDC64"/>
<path d="M2161.22 55.2131C2165.35 60.9524 2177 85.6005 2183.66 99.9652C2184.71 102.223 2181.88 104.263 2180.07 102.552C2168.57 91.6726 2148.92 72.7928 2144.79 67.0529C2141.52 62.5117 2142.55 56.1797 2147.09 52.9101C2151.63 49.6404 2157.95 50.6719 2161.22 55.2131Z" fill="#FFF082"/>
<path d="M2326.78 55.2131C2322.65 60.9524 2311 85.6005 2304.34 99.9652C2303.29 102.223 2306.12 104.263 2307.93 102.552C2319.43 91.6726 2339.08 72.7922 2343.21 67.0529C2346.48 62.5117 2345.45 56.1797 2340.91 52.9101C2336.37 49.6404 2330.05 50.6719 2326.78 55.2131Z" fill="#FFF082"/>
<path d="M2392.01 223.517C2385.3 221.325 2358.3 217.702 2342.6 215.715C2340.13 215.402 2339.05 218.721 2341.23 219.925C2355.08 227.582 2379.02 240.591 2385.74 242.783C2391.05 244.518 2396.76 241.612 2398.5 236.292C2400.23 230.971 2397.33 225.253 2392.01 223.517Z" fill="#FFF082"/>
<path d="M2095.99 223.517C2102.7 221.325 2129.7 217.702 2145.4 215.715C2147.87 215.402 2148.95 218.721 2146.77 219.925C2132.92 227.582 2108.98 240.591 2102.26 242.783C2096.95 244.518 2091.24 241.612 2089.5 236.292C2087.77 230.971 2090.67 225.253 2095.99 223.517Z" fill="#FFF082"/>
<path d="M2234.19 337.868C2234.19 330.796 2239.12 303.978 2242.1 288.425C2242.57 285.98 2246.05 285.98 2246.52 288.425C2249.5 303.978 2254.43 330.796 2254.43 337.868C2254.43 343.464 2249.9 348 2244.31 348C2238.72 348.001 2234.19 343.464 2234.19 337.868Z" fill="#FFF082"/>
<path d="M2261.66 84.9745L2249.96 57.787C2247.71 52.5519 2240.29 52.5519 2238.04 57.787L2205.87 132.551L2124.9 140.069C2119.23 140.595 2116.94 147.654 2121.21 151.416L2182.31 205.14L2164.43 284.551C2163.18 290.111 2169.18 294.473 2174.07 291.564L2183.38 286.032C2198.64 187.173 2241.53 114.603 2261.66 84.9745Z" fill="#FFC850"/>
</svg>
